<svg id="Layer_1" xmlns="http://www.w3.org/2000/svg" version="1.1" viewBox="53.85 26.59 504.13 60.46">
  <rect x="53.85" y="26.59" width="72.02" height="4.14" style="fill: rgb(191, 215, 54);"/>
  <rect x="125.87" y="26.59" width="72.02" height="4.14" style="fill: rgb(3, 160, 108);"/>
  <rect x="197.89" y="26.59" width="72.02" height="4.14" style="fill: rgb(81, 181, 220);"/>
  <rect x="269.91" y="26.59" width="72.02" height="4.14" style="fill: rgb(232, 177, 62);"/>
  <rect x="341.93" y="26.59" width="72.02" height="4.14" style="fill: rgb(220, 91, 104);"/>
  <rect x="413.94" y="26.59" width="72.02" height="4.14" style="fill: rgb(225, 240, 251);"/>
  <rect x="485.96" y="26.59" width="72.02" height="4.14" style="fill: rgb(19, 45, 68);"/>
  <g>
    <path class="st3" d="M54.48,49.88v-5.36c0-.07.05-.12.12-.12h1.05c.06,0,.11.02.14.08l1.67,4.2,1.67-4.2c.02-.06.07-.08.14-.08h1.05c.07,0,.12.05.12.12v5.36c0,.07-.05.12-.12.12h-.9c-.07,0-.12-.05-.12-.12v-3.34l-1.29,3.37c-.02.06-.08.1-.14.1h-.8c-.06,0-.12-.03-.14-.1l-1.29-3.37v3.34c0,.07-.05.12-.12.12h-.9c-.07,0-.12-.05-.12-.12Z"/>
    <path class="st3" d="M61.25,48.04c0-1.16.76-2.05,1.86-2.05.59,0,1.02.24,1.28.65l.02-.43c0-.07.05-.12.12-.12h.78c.07,0,.12.05.12.12v3.68c0,.07-.06.12-.13.12h-.78c-.07,0-.12-.05-.12-.12l-.02-.43c-.27.4-.7.65-1.28.65-1.1,0-1.86-.89-1.86-2.05ZM63.35,49.08c.58,0,.99-.42.99-1.05s-.41-1.05-.99-1.05-1.02.42-1.02,1.05.43,1.05,1.02,1.05Z"/>
    <path class="st3" d="M66.34,44.77c0-.34.26-.61.62-.61s.61.27.61.61-.26.62-.61.62-.62-.27-.62-.62ZM66.4,46.2c0-.07.05-.12.12-.12h.87c.07,0,.12.05.12.12v3.68c0,.07-.05.12-.12.12h-.87c-.07,0-.12-.05-.12-.12v-3.68Z"/>
    <path class="st3" d="M68.47,49.88v-3.68c0-.07.05-.12.12-.12h.83c.07,0,.12.03.12.13l.03.46c.22-.4.6-.69,1.18-.69.82,0,1.42.59,1.42,1.62v2.28c0,.07-.06.12-.13.12h-.86c-.07,0-.12-.05-.12-.12v-2.03c0-.55-.26-.85-.73-.85s-.77.3-.77.85v2.03c0,.07-.05.12-.12.12h-.86c-.07,0-.12-.05-.12-.12Z"/>
    <path class="st3" d="M74.38,50.9l2.62-6.76c.02-.06.08-.1.14-.1h.9c.09,0,.13.05.1.14l-2.62,6.76c-.02.06-.08.1-.14.1h-.9c-.09,0-.13-.05-.1-.14Z"/>
    <path class="st3" d="M80.44,49.88v-5.36c0-.07.05-.12.12-.12h1.69c1.33,0,1.97.74,1.97,1.81s-.64,1.82-1.97,1.82h-.66v1.84c0,.07-.05.12-.12.12h-.9c-.07,0-.12-.05-.12-.12ZM82.2,47.02c.49,0,.91-.17.91-.81s-.42-.8-.91-.8h-.62v1.61h.62Z"/>
    <path class="st3" d="M85,49.88v-3.68c0-.07.05-.12.12-.12h.83c.07,0,.11.03.12.13l.03.5c.14-.42.38-.73.85-.73.18,0,.3.05.36.1.06.04.07.09.07.16v.7c0,.1-.06.12-.16.1-.09-.02-.18-.04-.29-.04-.54,0-.83.36-.83.92v1.96c0,.07-.05.12-.12.12h-.86c-.07,0-.12-.05-.12-.12Z"/>
    <path class="st3" d="M88.04,44.77c0-.34.26-.61.62-.61s.61.27.61.61-.26.62-.61.62-.62-.27-.62-.62ZM88.1,46.2c0-.07.05-.12.12-.12h.87c.07,0,.12.05.12.12v3.68c0,.07-.05.12-.12.12h-.87c-.07,0-.12-.05-.12-.12v-3.68Z"/>
    <path class="st3" d="M90.17,49.88v-3.68c0-.07.05-.12.12-.12h.83c.07,0,.12.03.12.13l.03.46c.22-.4.6-.69,1.18-.69.82,0,1.42.59,1.42,1.62v2.28c0,.07-.06.12-.13.12h-.86c-.07,0-.12-.05-.12-.12v-2.03c0-.55-.26-.85-.73-.85s-.77.3-.77.85v2.03c0,.07-.05.12-.12.12h-.86c-.07,0-.12-.05-.12-.12Z"/>
    <path class="st3" d="M94.62,48.02c0-1.16.87-2.04,2.05-2.04.65,0,1.18.27,1.52.7.05.06.03.12-.02.17l-.48.47c-.06.06-.15.06-.21,0-.22-.22-.45-.33-.77-.33-.62,0-1.03.45-1.03,1.02s.41,1.05,1.06,1.05c.3,0,.54-.11.75-.33.06-.06.14-.06.21,0l.48.47s.06.11.02.17c-.34.43-.87.7-1.5.7-1.19,0-2.07-.9-2.07-2.07Z"/>
    <path class="st3" d="M98.92,44.77c0-.34.26-.61.62-.61s.61.27.61.61-.26.62-.61.62-.62-.27-.62-.62ZM98.98,46.2c0-.07.05-.12.12-.12h.87c.07,0,.12.05.12.12v3.68c0,.07-.05.12-.12.12h-.87c-.07,0-.12-.05-.12-.12v-3.68Z"/>
    <path class="st3" d="M101.05,51.39v-5.2c0-.07.05-.12.12-.12h.79c.07,0,.12.05.12.12l.02.43c.26-.41.68-.65,1.28-.65,1.1,0,1.85.9,1.85,2.05s-.76,2.05-1.85,2.05c-.54,0-.94-.21-1.22-.56v1.86c0,.07-.05.12-.12.12h-.87c-.07,0-.12-.05-.12-.12ZM103.15,49.08c.58,0,1.01-.42,1.01-1.05s-.43-1.05-1.01-1.05-1,.42-1,1.05.41,1.05,1,1.05Z"/>
    <path class="st3" d="M105.79,48.04c0-1.16.76-2.05,1.86-2.05.59,0,1.02.24,1.28.65l.02-.43c0-.07.05-.12.12-.12h.78c.07,0,.12.05.12.12v3.68c0,.07-.06.12-.13.12h-.78c-.07,0-.12-.05-.12-.12l-.02-.43c-.27.4-.7.65-1.28.65-1.1,0-1.86-.89-1.86-2.05ZM107.88,49.08c.58,0,.99-.42.99-1.05s-.41-1.05-.99-1.05-1.02.42-1.02,1.05.43,1.05,1.02,1.05Z"/>
    <path class="st3" d="M110.92,49.88v-5.48c0-.07.05-.12.12-.12h.87c.07,0,.12.05.12.12v5.48c0,.07-.05.12-.12.12h-.87c-.07,0-.12-.05-.12-.12Z"/>
  </g>
  <g>
    <path class="st3" d="M55.21,58.88v-4.86h-.87c-.07,0-.1-.04-.1-.11v-.4c0-.07.03-.11.1-.11h1.49c.07,0,.1.04.1.11v5.37c0,.07-.03.11-.1.11h-.5c-.07,0-.11-.04-.11-.11Z"/>
    <path class="st3" d="M56.81,58.88v-.41c0-.06.02-.11.06-.15l1.72-1.99c.32-.37.73-.82.73-1.38s-.39-.95-1-.95c-.57,0-.84.34-1.02.62-.05.06-.11.06-.16,0l-.3-.28c-.06-.06-.06-.1,0-.18.28-.43.75-.83,1.54-.83,1.02,0,1.66.7,1.66,1.56,0,.74-.46,1.25-.78,1.62l-1.58,1.85h2.23c.07,0,.11.04.11.11v.4c0,.07-.04.11-.11.11h-2.97c-.07,0-.11-.04-.11-.11Z"/>
    <path class="st3" d="M60.85,58.31c-.04-.06-.03-.11.02-.16l.31-.29s.1-.04.14.02c.2.26.53.55,1.06.55.66,0,1.09-.44,1.09-1.04,0-.64-.5-1.05-1.14-1.05h-.16c-.08,0-.11-.03-.11-.1v-.39c0-.07.03-.1.11-.1h.16c.59,0,.94-.41.94-.89s-.35-.84-.88-.84c-.42,0-.73.23-.91.54-.05.07-.1.06-.16.02l-.3-.29s-.05-.09,0-.14c.27-.43.78-.78,1.45-.78.86,0,1.51.58,1.51,1.39,0,.59-.34,1.03-.82,1.26.59.21,1.06.71,1.06,1.47,0,.95-.75,1.64-1.79,1.64-.72,0-1.25-.33-1.57-.79Z"/>
    <path class="st3" d="M67.3,58.88v-1.15h-2.25c-.07,0-.12-.05-.12-.12v-.43s0-.08.03-.13l2.29-3.57c.04-.06.08-.08.14-.08h.51c.07,0,.11.05.11.12v3.6h.57c.07,0,.1.05.1.12v.38c0,.07-.02.11-.1.11h-.57v1.15c0,.07-.03.11-.1.11h-.5c-.07,0-.11-.04-.11-.11ZM67.3,57.12v-2.61l-1.66,2.61h1.66Z"/>
    <path class="st3" d="M71.2,58.88v-3.69c0-.07.04-.11.11-.11h.47c.08,0,.11.03.11.12l.02.46c.14-.38.41-.68.89-.68.17,0,.29.03.36.08.05.04.06.07.06.14v.4c0,.09-.06.1-.14.08-.1-.02-.2-.04-.29-.04-.66,0-.88.55-.88,1.02v2.21c0,.07-.03.11-.1.11h-.5c-.07,0-.11-.04-.11-.11Z"/>
    <path class="st3" d="M74.1,57.48v-2.29c0-.07.04-.11.11-.11h.5c.07,0,.1.04.1.11v2.19c0,.66.34,1.04.94,1.04s1.04-.38,1.04-1.04v-2.19c0-.07.03-.11.1-.11h.5c.07,0,.11.04.11.11v3.69c0,.07-.04.11-.11.11h-.47c-.08,0-.1-.03-.11-.12l-.02-.5c-.22.4-.64.71-1.27.71-.84,0-1.42-.57-1.42-1.61Z"/>
    <path class="st3" d="M78.45,57.02c0-1.15.81-2.04,1.98-2.04s1.85.89,1.85,1.85c0,.32-.06.46-.33.46h-2.8c.09.7.59,1.2,1.46,1.2.43,0,.76-.12,1.06-.33.05-.03.1-.03.13,0l.18.25c.06.06.03.11-.03.17-.34.34-.85.5-1.4.5-1.28,0-2.09-.92-2.09-2.07ZM81.64,56.76c-.04-.7-.5-1.17-1.21-1.17s-1.2.44-1.28,1.17h2.49Z"/>
    <path class="st3" d="M84.89,58.88v-5.37c0-.07.05-.11.12-.11h.66c.06,0,.1.02.13.08l1.94,4.68,1.94-4.68c.02-.06.07-.08.14-.08h.66c.07,0,.11.04.11.11v5.37c0,.07-.04.11-.11.11h-.52c-.07,0-.12-.04-.12-.11v-4.17l-1.71,4.19c-.02.06-.07.09-.14.09h-.51c-.06,0-.11-.02-.14-.09l-1.71-4.19v4.17c0,.07-.04.11-.11.11h-.52c-.07,0-.12-.04-.12-.11Z"/>
    <path class="st3" d="M91.62,57.04c0-1.17.78-2.05,1.91-2.05.67,0,1.17.31,1.45.81l.02-.6c0-.07.03-.11.1-.11h.46c.07,0,.11.04.11.11v3.69c0,.07-.04.11-.11.11h-.46c-.07,0-.1-.04-.1-.11l-.02-.58c-.29.49-.78.79-1.45.79-1.13,0-1.91-.88-1.91-2.05ZM93.66,58.43c.77,0,1.3-.55,1.3-1.38s-.54-1.4-1.3-1.4-1.34.57-1.34,1.39.56,1.39,1.34,1.39Z"/>
    <path class="st3" d="M96.75,53.72c0-.24.19-.43.43-.43s.42.19.42.43-.18.43-.42.43-.43-.19-.43-.43ZM96.82,55.19c0-.07.03-.11.1-.11h.5c.07,0,.11.04.11.11v3.69c0,.07-.04.11-.11.11h-.5c-.07,0-.1-.04-.1-.11v-3.69Z"/>
    <path class="st3" d="M98.68,58.88v-3.69c0-.07.04-.11.11-.11h.47c.08,0,.11.03.11.12l.02.5c.22-.4.64-.71,1.27-.71.84,0,1.42.57,1.42,1.6v2.3c0,.07-.04.11-.11.11h-.5c-.07,0-.1-.04-.1-.11v-2.19c0-.66-.34-1.05-.94-1.05s-1.04.39-1.04,1.05v2.19c0,.07-.03.11-.1.11h-.5c-.07,0-.11-.04-.11-.11Z"/>
    <path class="st3" d="M104.71,58.25c-.04-.06-.04-.11.02-.18l.26-.3c.06-.06.13-.05.18,0,.3.38.67.62,1.23.62.66,0,1.05-.34,1.05-.87s-.4-.77-.92-1.02l-.68-.33c-.59-.27-1.02-.7-1.02-1.41,0-.9.71-1.45,1.6-1.45.65,0,1.15.27,1.53.72.07.07.06.12,0,.18l-.26.3c-.06.07-.12.07-.18,0-.32-.34-.64-.52-1.07-.52-.51,0-.9.26-.9.75,0,.39.23.62.71.85l.63.3c.65.31,1.28.7,1.28,1.61,0,1-.78,1.56-1.77,1.56-.83,0-1.39-.39-1.7-.84Z"/>
    <path class="st3" d="M109.4,58.12v-2.45h-.5c-.07,0-.12-.05-.12-.12v-.35c0-.07.05-.11.12-.11h.5v-.93c0-.07.04-.11.11-.11h.5c.07,0,.1.04.1.11v.93h.66c.07,0,.11.04.11.11v.35c0,.07-.04.12-.11.12h-.66v2.36c0,.29.13.4.36.4.06,0,.17,0,.25-.02.11,0,.15.03.15.11v.34c0,.15-.33.19-.55.19-.56,0-.93-.28-.93-.93Z"/>
    <path class="st3" d="M111.78,58.88v-3.69c0-.07.04-.11.11-.11h.47c.08,0,.11.03.11.12l.02.46c.14-.38.41-.68.89-.68.17,0,.29.03.36.08.05.04.06.07.06.14v.4c0,.09-.06.1-.14.08-.1-.02-.2-.04-.29-.04-.66,0-.88.55-.88,1.02v2.21c0,.07-.03.11-.1.11h-.5c-.07,0-.11-.04-.11-.11Z"/>
    <path class="st3" d="M114.31,57.02c0-1.15.81-2.04,1.98-2.04s1.85.89,1.85,1.85c0,.32-.06.46-.33.46h-2.8c.09.7.59,1.2,1.46,1.2.43,0,.76-.12,1.06-.33.05-.03.1-.03.13,0l.18.25c.06.06.03.11-.03.17-.34.34-.85.5-1.4.5-1.28,0-2.1-.92-2.1-2.07ZM117.5,56.76c-.04-.7-.5-1.17-1.21-1.17s-1.2.44-1.28,1.17h2.49Z"/>
    <path class="st3" d="M118.88,57.02c0-1.15.81-2.04,1.98-2.04s1.85.89,1.85,1.85c0,.32-.06.46-.33.46h-2.8c.09.7.59,1.2,1.46,1.2.43,0,.76-.12,1.06-.33.05-.03.1-.03.13,0l.18.25c.06.06.03.11-.03.17-.34.34-.85.5-1.4.5-1.28,0-2.1-.92-2.1-2.07ZM122.07,56.76c-.04-.7-.5-1.17-1.21-1.17s-1.2.44-1.28,1.17h2.49Z"/>
    <path class="st3" d="M123.95,58.12v-2.45h-.5c-.07,0-.12-.05-.12-.12v-.35c0-.07.05-.11.12-.11h.5v-.93c0-.07.04-.11.11-.11h.5c.07,0,.1.04.1.11v.93h.66c.07,0,.11.04.11.11v.35c0,.07-.04.12-.11.12h-.66v2.36c0,.29.13.4.36.4.06,0,.17,0,.25-.02.11,0,.15.03.15.11v.34c0,.15-.33.19-.55.19-.56,0-.93-.28-.93-.93Z"/>
    <path class="st3" d="M126.63,59.11c-.3,0-.5-.2-.5-.48s.22-.49.5-.49c.31,0,.59.26.59.74,0,.64-.51,1.14-1.1,1.13v-.22c.54,0,.76-.67.51-.67Z"/>
    <path class="st3" d="M129.54,58.25c-.04-.06-.04-.11.02-.18l.26-.3c.06-.06.13-.05.18,0,.3.38.67.62,1.23.62.66,0,1.05-.34,1.05-.87s-.4-.77-.92-1.02l-.68-.33c-.59-.27-1.02-.7-1.02-1.41,0-.9.71-1.45,1.6-1.45.65,0,1.15.27,1.53.72.07.07.06.12,0,.18l-.26.3c-.06.07-.12.07-.18,0-.32-.34-.64-.52-1.07-.52-.51,0-.9.26-.9.75,0,.39.23.62.71.85l.63.3c.65.31,1.28.7,1.28,1.61,0,1-.78,1.56-1.77,1.56-.83,0-1.39-.39-1.7-.84Z"/>
    <path class="st3" d="M133.97,57.48v-2.29c0-.07.04-.11.11-.11h.5c.07,0,.1.04.1.11v2.19c0,.66.34,1.04.94,1.04s1.04-.38,1.04-1.04v-2.19c0-.07.03-.11.1-.11h.5c.07,0,.11.04.11.11v3.69c0,.07-.04.11-.11.11h-.47c-.08,0-.1-.03-.11-.12l-.02-.5c-.22.4-.64.71-1.27.71-.84,0-1.42-.57-1.42-1.61Z"/>
    <path class="st3" d="M138.46,53.72c0-.24.19-.43.43-.43s.42.19.42.43-.18.43-.42.43-.43-.19-.43-.43ZM138.53,55.19c0-.07.03-.11.1-.11h.5c.07,0,.11.04.11.11v3.69c0,.07-.04.11-.11.11h-.5c-.07,0-.1-.04-.1-.11v-3.69Z"/>
    <path class="st3" d="M140.69,58.12v-2.45h-.5c-.07,0-.12-.05-.12-.12v-.35c0-.07.05-.11.12-.11h.5v-.93c0-.07.04-.11.11-.11h.5c.07,0,.1.04.1.11v.93h.66c.07,0,.11.04.11.11v.35c0,.07-.04.12-.11.12h-.66v2.36c0,.29.13.4.36.4.06,0,.17,0,.25-.02.11,0,.15.03.15.11v.34c0,.15-.33.19-.55.19-.56,0-.93-.28-.93-.93Z"/>
    <path class="st3" d="M142.84,57.02c0-1.15.81-2.04,1.98-2.04s1.85.89,1.85,1.85c0,.32-.06.46-.33.46h-2.8c.09.7.59,1.2,1.46,1.2.43,0,.76-.12,1.06-.33.05-.03.1-.03.13,0l.18.25c.06.06.03.11-.03.17-.34.34-.85.5-1.4.5-1.28,0-2.09-.92-2.09-2.07ZM146.03,56.76c-.04-.7-.5-1.17-1.21-1.17s-1.2.44-1.28,1.17h2.49Z"/>
    <path class="st3" d="M149,58.88v-.41c0-.06.02-.11.06-.15l1.72-1.99c.32-.37.73-.82.73-1.38s-.39-.95-1-.95c-.57,0-.84.34-1.02.62-.05.06-.11.06-.16,0l-.3-.28c-.06-.06-.06-.1,0-.18.28-.43.75-.83,1.54-.83,1.02,0,1.66.7,1.66,1.56,0,.74-.46,1.25-.78,1.62l-1.58,1.85h2.23c.07,0,.11.04.11.11v.4c0,.07-.04.11-.11.11h-2.97c-.07,0-.11-.04-.11-.11Z"/>
    <path class="st3" d="M153.08,56.22c0-1.88.88-2.89,2.12-2.89s2.12,1.01,2.12,2.89-.88,2.88-2.12,2.88-2.12-1.01-2.12-2.88ZM155.2,58.42c.9,0,1.42-.83,1.42-2.2s-.51-2.21-1.42-2.21-1.42.84-1.42,2.21.5,2.2,1.42,2.2Z"/>
    <path class="st3" d="M158.11,56.22c0-1.88.88-2.89,2.12-2.89s2.12,1.01,2.12,2.89-.88,2.88-2.12,2.88-2.12-1.01-2.12-2.88ZM160.23,58.42c.9,0,1.42-.83,1.42-2.2s-.51-2.21-1.42-2.21-1.42.84-1.42,2.21.5,2.2,1.42,2.2Z"/>
  </g>
  <g>
    <path class="st3" d="M54.57,67.88v-5.37c0-.07.05-.11.12-.11h.66c.06,0,.1.02.13.08l1.94,4.68,1.94-4.68c.02-.06.07-.08.14-.08h.66c.07,0,.11.04.11.11v5.37c0,.07-.04.11-.11.11h-.52c-.07,0-.12-.04-.12-.11v-4.17l-1.71,4.19c-.02.06-.07.09-.14.09h-.51c-.06,0-.11-.02-.14-.09l-1.71-4.19v4.17c0,.07-.04.11-.11.11h-.52c-.07,0-.12-.04-.12-.11Z"/>
    <path class="st3" d="M61.3,66.04c0-1.17.87-2.05,2.02-2.05s2.02.89,2.02,2.05-.86,2.05-2.02,2.05-2.02-.89-2.02-2.05ZM63.32,67.42c.75,0,1.32-.56,1.32-1.38s-.57-1.39-1.32-1.39-1.32.57-1.32,1.39.56,1.38,1.32,1.38Z"/>
    <path class="st3" d="M66.28,67.88v-3.69c0-.07.04-.11.11-.11h.47c.08,0,.11.03.11.12l.02.5c.22-.4.64-.71,1.27-.71.84,0,1.42.57,1.42,1.6v2.3c0,.07-.04.11-.11.11h-.5c-.07,0-.1-.04-.1-.11v-2.19c0-.66-.34-1.05-.94-1.05s-1.04.39-1.04,1.05v2.19c0,.07-.03.11-.1.11h-.5c-.07,0-.11-.04-.11-.11Z"/>
    <path class="st3" d="M70.63,66.03c0-1.17.88-2.05,2.05-2.05.62,0,1.14.26,1.48.66.05.06.05.12,0,.17l-.28.26c-.06.07-.14.05-.18,0-.24-.26-.53-.43-.99-.43-.79,0-1.37.58-1.37,1.38s.58,1.39,1.38,1.39c.46,0,.74-.17.98-.42.06-.06.13-.08.19-.02l.28.27s.05.1,0,.16c-.34.42-.86.67-1.49.67-1.17,0-2.05-.89-2.05-2.06Z"/>
    <path class="st3" d="M75.49,67.12v-2.45h-.5c-.07,0-.12-.05-.12-.12v-.35c0-.07.05-.11.12-.11h.5v-.93c0-.07.04-.11.11-.11h.5c.07,0,.1.04.1.11v.93h.66c.07,0,.11.04.11.11v.35c0,.07-.04.12-.11.12h-.66v2.36c0,.29.13.4.36.4.06,0,.17,0,.25-.02.11,0,.15.03.15.11v.34c0,.15-.33.19-.55.19-.56,0-.93-.28-.93-.93Z"/>
    <path class="st3" d="M77.64,66.04c0-1.17.87-2.05,2.02-2.05s2.02.89,2.02,2.05-.86,2.05-2.02,2.05-2.02-.89-2.02-2.05ZM79.66,67.42c.75,0,1.32-.56,1.32-1.38s-.57-1.39-1.32-1.39-1.32.57-1.32,1.39.56,1.38,1.32,1.38Z"/>
    <path class="st3" d="M82.61,67.88v-3.69c0-.07.04-.11.11-.11h.47c.08,0,.11.03.11.12l.02.5c.22-.4.64-.71,1.27-.71.84,0,1.42.57,1.42,1.6v2.3c0,.07-.04.11-.11.11h-.5c-.07,0-.1-.04-.1-.11v-2.19c0-.66-.34-1.05-.94-1.05s-1.04.39-1.04,1.05v2.19c0,.07-.03.11-.1.11h-.5c-.07,0-.11-.04-.11-.11Z"/>
    <path class="st3" d="M87.46,68.11c-.3,0-.5-.2-.5-.48s.22-.49.5-.49c.31,0,.59.26.59.74,0,.64-.51,1.14-1.1,1.13v-.22c.54,0,.76-.67.51-.67Z"/>
    <path class="st3" d="M93.75,67.92l-2.44-4.39v4.36c0,.07-.04.11-.11.11h-.52c-.07,0-.12-.04-.12-.11v-5.37c0-.07.05-.11.12-.11h.66c.06,0,.11.02.14.08l2.45,4.41v-4.37c0-.07.05-.11.12-.11h.52c.07,0,.11.04.11.11v5.37c0,.07-.04.11-.11.11h-.67c-.06,0-.11-.02-.14-.08Z"/>
    <path class="st3" d="M95.98,67.88v-5.37c0-.07.05-.11.12-.11h1.69c1.1,0,1.53.68,1.53,1.37,0,.54-.28,1.01-.79,1.2.69.16,1.14.71,1.14,1.46,0,.92-.62,1.57-1.9,1.57h-1.66c-.07,0-.12-.04-.12-.11ZM97.68,64.72c.56,0,.92-.3.92-.86s-.36-.79-.92-.79h-.96v1.66h.96ZM97.71,67.33c.78,0,1.19-.34,1.19-1s-.42-1.02-1.19-1.02h-.98v2.01h.98Z"/>
    <path class="st3" d="M102.27,67.88v-5.37c0-.07.05-.11.12-.11h2.72c.07,0,.12.04.12.11v.44c0,.07-.05.11-.12.11h-2.09v1.73h1.98c.07,0,.11.04.11.11v.44c0,.07-.04.11-.11.11h-1.98v1.87h2.09c.07,0,.11.05.11.12v.44c0,.07-.04.11-.11.11h-2.73c-.07,0-.12-.04-.12-.11Z"/>
    <path class="st3" d="M107.09,67.88v-4.86h-.87c-.07,0-.1-.04-.1-.11v-.4c0-.07.03-.11.1-.11h1.49c.07,0,.1.04.1.11v5.37c0,.07-.03.11-.1.11h-.5c-.07,0-.11-.04-.11-.11Z"/>
    <path class="st3" d="M108.81,65.22c0-1.62,1.22-2.89,2.85-2.89.78,0,1.42.29,1.91.74.06.06.07.11.02.18l-.32.34c-.05.06-.1.06-.17,0-.39-.34-.86-.54-1.43-.54-1.2,0-2.1.92-2.1,2.16s.9,2.15,2.1,2.15c.58,0,1.04-.21,1.43-.54.06-.06.12-.06.17,0l.32.35c.06.06.04.12-.02.18-.5.46-1.13.75-1.91.75-1.64,0-2.85-1.25-2.85-2.88Z"/>
    <path class="st3" d="M116.96,67.88v-4.86h-.87c-.07,0-.1-.04-.1-.11v-.4c0-.07.03-.11.1-.11h1.49c.07,0,.1.04.1.11v5.37c0,.07-.03.11-.1.11h-.5c-.07,0-.11-.04-.11-.11Z"/>
    <path class="st3" d="M118.84,67.88v-5.37c0-.07.05-.11.12-.11h.52c.07,0,.11.04.11.11v2.38h2.48v-2.38c0-.07.04-.11.11-.11h.52c.07,0,.12.04.12.11v5.37c0,.07-.05.11-.12.11h-.52c-.07,0-.11-.04-.11-.11v-2.33h-2.48v2.33c0,.07-.04.11-.11.11h-.52c-.07,0-.12-.04-.12-.11Z"/>
    <path class="st3" d="M124.39,67.86l2.01-4.84h-2.51c-.07,0-.1-.04-.1-.11v-.4c0-.07.03-.11.1-.11h3.29c.07,0,.11.06.08.14l-2.17,5.33c-.02.07-.06.12-.14.12h-.49c-.08,0-.11-.06-.08-.14Z"/>
  </g>
  <g>
    <path class="st3" d="M55.2,77.96c-.55-.98-.8-2.28-.8-3.52,0-1.17.27-2.4.8-3.32.03-.06.08-.08.14-.08h.46c.09,0,.13.06.08.14-.48.91-.75,2.05-.75,3.25,0,1.28.27,2.49.76,3.45.04.09,0,.14-.09.14h-.46c-.06,0-.11-.02-.14-.08Z"/>
    <path class="st3" d="M56.82,76.34c-.04-.08-.03-.13.02-.17l.34-.27c.06-.04.12-.02.17.04.2.25.54.49,1.03.49.7,0,1.23-.51,1.23-1.26s-.53-1.21-1.19-1.21c-.32,0-.7.11-.96.45-.05.06-.11.06-.2.03l-.32-.14c-.08-.03-.1-.07-.08-.14l.58-2.65c.02-.06.06-.1.13-.1h2.27c.07,0,.1.04.1.11v.4c0,.07-.03.11-.1.11h-1.85l-.34,1.58c.22-.14.55-.26.93-.26.97,0,1.74.75,1.74,1.86,0,1.17-.86,1.91-1.92,1.91-.78,0-1.33-.4-1.58-.76Z"/>
    <path class="st3" d="M61.08,74.22c0-1.88.88-2.89,2.12-2.89s2.12,1.01,2.12,2.89-.88,2.88-2.12,2.88-2.12-1.01-2.12-2.88ZM63.2,76.42c.9,0,1.42-.83,1.42-2.2s-.51-2.21-1.42-2.21-1.42.84-1.42,2.21.5,2.2,1.42,2.2Z"/>
    <path class="st3" d="M66.08,75.24c0-.5.18-.96.58-1.47l1.89-2.46c.05-.06.1-.08.15-.03l.36.31c.06.05.06.09.02.15l-1.4,1.76c.1-.06.26-.1.45-.1.87,0,1.68.76,1.68,1.83s-.79,1.87-1.87,1.87-1.85-.82-1.85-1.86ZM67.94,76.43c.66,0,1.16-.5,1.16-1.21s-.5-1.21-1.16-1.21-1.16.5-1.16,1.21.5,1.21,1.16,1.21Z"/>
    <path class="st3" d="M70.65,77.89c.49-.97.76-2.17.76-3.45,0-1.21-.27-2.34-.75-3.25-.05-.09,0-.14.08-.14h.46c.06,0,.11.02.14.08.53.92.8,2.15.8,3.32,0,1.24-.25,2.54-.8,3.52-.03.06-.08.08-.14.08h-.46c-.09,0-.13-.06-.09-.14Z"/>
    <path class="st3" d="M74.58,76.88v-.41c0-.06.02-.11.06-.15l1.72-1.99c.32-.37.73-.82.73-1.38s-.39-.95-1-.95c-.57,0-.84.34-1.02.62-.05.06-.11.06-.16,0l-.3-.28c-.06-.06-.06-.1,0-.18.28-.43.75-.83,1.54-.83,1.02,0,1.66.7,1.66,1.56,0,.74-.46,1.25-.78,1.62l-1.58,1.85h2.23c.07,0,.11.04.11.11v.4c0,.07-.04.11-.11.11h-2.97c-.07,0-.11-.04-.11-.11Z"/>
    <path class="st3" d="M78.61,76.31c-.04-.06-.03-.11.02-.16l.31-.29s.1-.04.14.02c.2.26.53.55,1.06.55.66,0,1.09-.44,1.09-1.04,0-.64-.5-1.05-1.14-1.05h-.16c-.08,0-.11-.03-.11-.1v-.39c0-.07.03-.1.11-.1h.16c.59,0,.94-.41.94-.89s-.35-.84-.88-.84c-.42,0-.73.23-.91.54-.05.07-.1.06-.16.02l-.3-.29s-.05-.09,0-.14c.27-.43.78-.78,1.45-.78.86,0,1.51.58,1.51,1.39,0,.59-.34,1.03-.82,1.26.59.21,1.06.71,1.06,1.47,0,.95-.75,1.64-1.79,1.64-.72,0-1.25-.33-1.57-.79Z"/>
    <path class="st3" d="M82.73,75.41c0-.78.48-1.32,1.05-1.54-.45-.23-.71-.67-.71-1.18,0-.74.58-1.37,1.48-1.37s1.48.62,1.48,1.37c0,.5-.26.94-.71,1.18.57.22,1.05.76,1.05,1.54,0,1.02-.82,1.69-1.82,1.69s-1.81-.67-1.81-1.69ZM84.55,76.44c.64,0,1.11-.43,1.11-1.07s-.51-1.09-1.11-1.09-1.11.42-1.11,1.09.47,1.07,1.11,1.07ZM84.55,73.6c.5,0,.84-.37.84-.85s-.34-.83-.84-.83-.84.35-.84.83.35.85.84.85Z"/>
    <path class="st3" d="M87.19,74.94v-.39c0-.07.03-.1.1-.1h2.4c.07,0,.1.03.1.1v.39c0,.07-.03.11-.1.11h-2.4c-.07,0-.1-.04-.1-.11Z"/>
    <path class="st3" d="M90.68,76.34c-.04-.08-.03-.13.02-.17l.34-.27c.06-.04.12-.02.17.04.2.25.54.49,1.03.49.7,0,1.23-.51,1.23-1.26s-.53-1.21-1.19-1.21c-.32,0-.7.11-.96.45-.05.06-.11.06-.2.03l-.32-.14c-.08-.03-.1-.07-.08-.14l.58-2.65c.02-.06.06-.1.13-.1h2.27c.07,0,.1.04.1.11v.4c0,.07-.03.11-.1.11h-1.85l-.34,1.58c.22-.14.55-.26.93-.26.97,0,1.74.75,1.74,1.86,0,1.17-.86,1.91-1.92,1.91-.78,0-1.33-.4-1.58-.76Z"/>
    <path class="st3" d="M94.88,76.31c-.04-.06-.03-.11.02-.16l.31-.29s.1-.04.14.02c.2.26.53.55,1.06.55.66,0,1.09-.44,1.09-1.04,0-.64-.5-1.05-1.14-1.05h-.16c-.08,0-.11-.03-.11-.1v-.39c0-.07.03-.1.11-.1h.16c.59,0,.94-.41.94-.89s-.35-.84-.88-.84c-.42,0-.73.23-.91.54-.05.07-.1.06-.16.02l-.3-.29s-.05-.09,0-.14c.27-.43.78-.78,1.45-.78.86,0,1.51.58,1.51,1.39,0,.59-.34,1.03-.82,1.26.59.21,1.06.71,1.06,1.47,0,.95-.75,1.64-1.79,1.64-.72,0-1.25-.33-1.57-.79Z"/>
    <path class="st3" d="M99,75.41c0-.78.48-1.32,1.05-1.54-.45-.23-.71-.67-.71-1.18,0-.74.58-1.37,1.48-1.37s1.48.62,1.48,1.37c0,.5-.26.94-.71,1.18.57.22,1.05.76,1.05,1.54,0,1.02-.82,1.69-1.82,1.69s-1.81-.67-1.81-1.69ZM100.81,76.44c.64,0,1.11-.43,1.11-1.07s-.51-1.09-1.11-1.09-1.11.42-1.11,1.09.47,1.07,1.11,1.07ZM100.81,73.6c.5,0,.84-.37.84-.85s-.34-.83-.84-.83-.84.35-.84.83.35.85.84.85Z"/>
    <path class="st3" d="M103.39,75.24c0-.5.18-.96.58-1.47l1.89-2.46c.05-.06.1-.08.15-.03l.36.31c.06.05.06.09.02.15l-1.4,1.76c.1-.06.26-.1.45-.1.87,0,1.68.76,1.68,1.83s-.79,1.87-1.87,1.87-1.85-.82-1.85-1.86ZM105.25,76.43c.66,0,1.16-.5,1.16-1.21s-.5-1.21-1.16-1.21-1.16.5-1.16,1.21.5,1.21,1.16,1.21Z"/>
  </g>
  <g>
    <path class="st3" d="M192.02,49.22c-.04-.06-.04-.11.02-.18l.46-.54c.06-.06.12-.07.18-.02.35.36.67.55,1.13.55s.78-.2.78-.6c0-.38-.28-.51-.67-.69l-.68-.32c-.59-.27-1.12-.7-1.12-1.53,0-1.02.78-1.58,1.73-1.58.66,0,1.2.26,1.64.74.06.06.06.12,0,.18l-.46.55c-.05.06-.11.08-.18.03-.34-.3-.62-.46-.98-.46-.41,0-.66.2-.66.54s.22.46.66.66l.58.26c.61.29,1.25.66,1.25,1.61,0,1.13-.92,1.65-1.87,1.65-.87,0-1.49-.42-1.82-.87Z"/>
    <path class="st3" d="M196.54,49.88v-5.48c0-.07.05-.12.12-.12h.86c.07,0,.12.05.12.12v2.27c.22-.4.6-.69,1.18-.69.82,0,1.42.59,1.42,1.62v2.28c0,.07-.06.12-.13.12h-.86c-.07,0-.12-.05-.12-.12v-2.03c0-.55-.26-.85-.73-.85s-.77.3-.77.85v2.03c0,.07-.05.12-.12.12h-.86c-.07,0-.12-.05-.12-.12Z"/>
    <path class="st3" d="M200.99,48.02c0-1.15.81-2.04,2.01-2.04s1.88.88,1.88,1.87c0,.38-.09.6-.43.6h-2.38c.12.5.53.77,1.16.77.3,0,.59-.06.91-.24.06-.03.1-.02.14.03l.3.41c.04.06.03.11-.04.18-.34.34-.84.5-1.39.5-1.29,0-2.15-.89-2.15-2.07ZM203.9,47.68c-.06-.52-.42-.78-.89-.78s-.86.26-.96.78h1.85Z"/>
    <path class="st3" d="M205.43,48.04c0-1.16.76-2.05,1.86-2.05.54,0,.94.2,1.21.55v-2.13c0-.07.05-.12.12-.12h.87c.07,0,.12.05.12.12v5.48c0,.07-.06.12-.13.12h-.78c-.07,0-.12-.05-.12-.12l-.02-.43c-.27.4-.7.65-1.28.65-1.1,0-1.86-.89-1.86-2.05ZM207.52,49.08c.58,0,.99-.42.99-1.05s-.41-1.05-.99-1.05-1.02.42-1.02,1.05.43,1.05,1.02,1.05Z"/>
    <path class="st3" d="M210.52,44.77c0-.34.26-.61.62-.61s.61.27.61.61-.26.62-.61.62-.62-.27-.62-.62ZM210.57,46.2c0-.07.05-.12.12-.12h.87c.07,0,.12.05.12.12v3.68c0,.07-.05.12-.12.12h-.87c-.07,0-.12-.05-.12-.12v-3.68Z"/>
    <path class="st3" d="M212.45,48.04c0-1.16.76-2.05,1.86-2.05.59,0,1.02.24,1.28.65l.02-.43c0-.07.05-.12.12-.12h.78c.07,0,.12.05.12.12v3.68c0,.07-.06.12-.13.12h-.78c-.07,0-.12-.05-.12-.12l-.02-.43c-.27.4-.7.65-1.28.65-1.1,0-1.86-.89-1.86-2.05ZM214.54,49.08c.58,0,.99-.42.99-1.05s-.41-1.05-.99-1.05-1.02.42-1.02,1.05.43,1.05,1.02,1.05Z"/>
    <path class="st3" d="M217.38,48.02c0-1.16.87-2.04,2.05-2.04.65,0,1.18.27,1.52.7.05.06.03.12-.02.17l-.48.47c-.06.06-.15.06-.21,0-.22-.22-.45-.33-.77-.33-.62,0-1.03.45-1.03,1.02s.41,1.05,1.06,1.05c.3,0,.54-.11.75-.33.06-.06.14-.06.21,0l.48.47s.06.11.02.17c-.34.43-.87.7-1.5.7-1.19,0-2.07-.9-2.07-2.07Z"/>
  </g>
  <g>
    <path class="st3" d="M192.02,57.41c0-.78.48-1.32,1.05-1.54-.45-.23-.71-.67-.71-1.18,0-.74.58-1.37,1.48-1.37s1.48.62,1.48,1.37c0,.5-.26.94-.71,1.18.57.22,1.05.76,1.05,1.54,0,1.02-.82,1.69-1.81,1.69s-1.82-.67-1.82-1.69ZM193.84,58.44c.64,0,1.11-.43,1.11-1.07s-.51-1.09-1.11-1.09-1.11.42-1.11,1.09.47,1.07,1.11,1.07ZM193.84,55.6c.5,0,.84-.37.84-.85s-.34-.83-.84-.83-.84.35-.84.83.35.85.84.85Z"/>
    <path class="st3" d="M197.18,58.88v-4.86h-.87c-.07,0-.1-.04-.1-.11v-.4c0-.07.03-.11.1-.11h1.49c.07,0,.1.04.1.11v5.37c0,.07-.03.11-.1.11h-.5c-.07,0-.11-.04-.11-.11Z"/>
    <path class="st3" d="M198.86,58.34c-.04-.08-.03-.13.02-.17l.34-.27c.06-.04.12-.02.17.04.2.25.54.49,1.03.49.7,0,1.23-.51,1.23-1.26s-.53-1.21-1.19-1.21c-.32,0-.7.11-.96.45-.05.06-.11.06-.2.03l-.32-.14c-.08-.03-.1-.07-.08-.14l.58-2.65c.02-.06.06-.1.13-.1h2.27c.07,0,.1.04.1.11v.4c0,.07-.03.11-.1.11h-1.85l-.34,1.58c.22-.14.55-.26.93-.26.97,0,1.74.75,1.74,1.86,0,1.17-.86,1.91-1.92,1.91-.78,0-1.33-.4-1.58-.76Z"/>
    <path class="st3" d="M203.11,58.86l1.92-5.37c.02-.06.08-.1.14-.1h.58c.06,0,.13.03.15.1l1.92,5.37c.03.08,0,.14-.1.14h-.54c-.06,0-.1-.02-.13-.1l-.37-1.07h-2.45l-.37,1.07c-.02.07-.06.1-.14.1h-.54c-.09,0-.12-.06-.09-.14ZM206.46,57.16l-.99-2.85-.99,2.85h1.98Z"/>
    <path class="st3" d="M210.37,58.88v-3.69c0-.07.04-.11.11-.11h.47c.08,0,.11.03.11.12l.02.46c.14-.38.41-.68.89-.68.17,0,.29.03.36.08.05.04.06.07.06.14v.4c0,.09-.06.1-.14.08-.1-.02-.2-.04-.29-.04-.66,0-.88.55-.88,1.02v2.21c0,.07-.03.11-.1.11h-.5c-.07,0-.11-.04-.11-.11Z"/>
    <path class="st3" d="M213.28,57.48v-2.29c0-.07.04-.11.11-.11h.5c.07,0,.1.04.1.11v2.19c0,.66.34,1.04.94,1.04s1.04-.38,1.04-1.04v-2.19c0-.07.03-.11.1-.11h.5c.07,0,.11.04.11.11v3.69c0,.07-.04.11-.11.11h-.47c-.08,0-.1-.03-.11-.12l-.02-.5c-.22.4-.64.71-1.27.71-.84,0-1.42-.57-1.42-1.61Z"/>
    <path class="st3" d="M217.63,57.02c0-1.15.81-2.04,1.98-2.04s1.85.89,1.85,1.85c0,.32-.06.46-.33.46h-2.8c.09.7.59,1.2,1.46,1.2.43,0,.76-.12,1.06-.33.05-.03.1-.03.13,0l.18.25c.06.06.03.11-.03.17-.34.34-.85.5-1.4.5-1.28,0-2.09-.92-2.09-2.07ZM220.82,56.76c-.04-.7-.5-1.17-1.21-1.17s-1.2.44-1.28,1.17h2.49Z"/>
    <path class="st3" d="M224.07,58.88v-5.37c0-.07.05-.11.12-.11h1.69c1.1,0,1.53.68,1.53,1.37,0,.54-.28,1.01-.79,1.2.69.16,1.14.71,1.14,1.46,0,.92-.62,1.57-1.9,1.57h-1.66c-.07,0-.12-.04-.12-.11ZM225.77,55.72c.56,0,.92-.3.92-.86s-.36-.79-.92-.79h-.96v1.66h.96ZM225.79,58.33c.78,0,1.19-.34,1.19-1s-.42-1.02-1.19-1.02h-.98v2.01h.98Z"/>
    <path class="st3" d="M228.48,57.04c0-1.17.87-2.05,2.02-2.05s2.02.89,2.02,2.05-.86,2.05-2.02,2.05-2.02-.89-2.02-2.05ZM230.51,58.42c.75,0,1.32-.56,1.32-1.38s-.57-1.39-1.32-1.39-1.32.57-1.32,1.39.56,1.38,1.32,1.38Z"/>
    <path class="st3" d="M233.46,58.88v-3.69c0-.07.04-.11.11-.11h.47c.08,0,.11.03.11.12l.02.44c.2-.37.54-.66,1.11-.66.54,0,.94.25,1.14.75.2-.42.58-.75,1.22-.75.82,0,1.31.54,1.31,1.57v2.33c0,.07-.04.11-.11.11h-.5c-.07,0-.1-.04-.1-.11v-2.22c0-.65-.26-1.02-.79-1.02s-.88.38-.88,1.02v2.22c0,.07-.03.11-.1.11h-.5c-.07,0-.11-.04-.11-.11v-2.22c0-.65-.29-1.02-.82-1.02s-.86.38-.86,1.02v2.22c0,.07-.03.11-.1.11h-.5c-.07,0-.11-.04-.11-.11Z"/>
    <path class="st3" d="M240.8,58.3l-.02.58c0,.07-.03.11-.1.11h-.46c-.07,0-.11-.04-.11-.11v-5.49c0-.07.04-.11.11-.11h.5c.07,0,.11.04.11.11v2.35c.28-.47.77-.76,1.42-.76,1.13,0,1.91.89,1.91,2.05s-.78,2.05-1.91,2.05c-.67,0-1.16-.3-1.45-.79ZM242.11,58.43c.78,0,1.34-.56,1.34-1.39s-.56-1.39-1.34-1.39-1.3.57-1.3,1.4.54,1.38,1.3,1.38Z"/>
    <path class="st3" d="M244.89,57.04c0-1.17.78-2.05,1.91-2.05.67,0,1.17.31,1.45.81l.02-.6c0-.07.03-.11.1-.11h.46c.07,0,.11.04.11.11v3.69c0,.07-.04.11-.11.11h-.46c-.07,0-.1-.04-.1-.11l-.02-.58c-.29.49-.78.79-1.45.79-1.13,0-1.91-.88-1.91-2.05ZM246.93,58.43c.77,0,1.3-.55,1.3-1.38s-.54-1.4-1.3-1.4-1.34.57-1.34,1.39.56,1.39,1.34,1.39Z"/>
    <path class="st3" d="M250.08,58.88v-3.69c0-.07.04-.11.11-.11h.47c.08,0,.11.03.11.12l.02.46c.14-.38.41-.68.89-.68.17,0,.29.03.36.08.05.04.06.07.06.14v.4c0,.09-.06.1-.14.08-.1-.02-.2-.04-.29-.04-.66,0-.88.55-.88,1.02v2.21c0,.07-.03.11-.1.11h-.5c-.07,0-.11-.04-.11-.11Z"/>
    <path class="st3" d="M252.6,57.04c0-1.17.78-2.05,1.91-2.05.65,0,1.14.29,1.42.76v-2.35c0-.07.04-.11.11-.11h.5c.07,0,.11.04.11.11v5.49c0,.07-.04.11-.11.11h-.46c-.07,0-.1-.04-.1-.11l-.02-.58c-.29.49-.78.79-1.45.79-1.13,0-1.91-.88-1.91-2.05ZM254.64,58.43c.77,0,1.3-.55,1.3-1.38s-.54-1.4-1.3-1.4-1.34.57-1.34,1.39.56,1.39,1.34,1.39Z"/>
    <path class="st3" d="M257.73,53.72c0-.24.19-.43.43-.43s.42.19.42.43-.18.43-.42.43-.43-.19-.43-.43ZM257.8,55.19c0-.07.03-.11.1-.11h.5c.07,0,.11.04.11.11v3.69c0,.07-.04.11-.11.11h-.5c-.07,0-.1-.04-.1-.11v-3.69Z"/>
    <path class="st3" d="M259.46,57.02c0-1.15.81-2.04,1.98-2.04s1.85.89,1.85,1.85c0,.32-.06.46-.33.46h-2.8c.09.7.59,1.2,1.46,1.2.43,0,.76-.12,1.06-.33.05-.03.1-.03.13,0l.18.25c.06.06.03.11-.03.17-.34.34-.85.5-1.4.5-1.28,0-2.09-.92-2.09-2.07ZM262.65,56.76c-.04-.7-.5-1.17-1.21-1.17s-1.2.44-1.28,1.17h2.49Z"/>
    <path class="st3" d="M264.23,58.88v-3.69c0-.07.04-.11.11-.11h.47c.08,0,.11.03.11.12l.02.46c.14-.38.41-.68.89-.68.17,0,.29.03.36.08.05.04.06.07.06.14v.4c0,.09-.06.1-.14.08-.1-.02-.2-.04-.29-.04-.66,0-.88.55-.88,1.02v2.21c0,.07-.03.11-.1.11h-.5c-.07,0-.11-.04-.11-.11Z"/>
    <path class="st3" d="M268.53,58.25c-.04-.06-.04-.11.02-.18l.26-.3c.06-.06.13-.05.18,0,.3.38.67.62,1.23.62.66,0,1.05-.34,1.05-.87s-.4-.77-.92-1.02l-.68-.33c-.59-.27-1.02-.7-1.02-1.41,0-.9.71-1.45,1.6-1.45.65,0,1.15.27,1.53.72.07.07.06.12,0,.18l-.26.3c-.06.07-.12.07-.18,0-.32-.34-.64-.52-1.07-.52-.51,0-.9.26-.9.75,0,.39.23.62.71.85l.63.3c.65.31,1.28.7,1.28,1.61,0,1-.78,1.56-1.77,1.56-.83,0-1.39-.39-1.7-.84Z"/>
    <path class="st3" d="M273.23,58.12v-2.45h-.5c-.07,0-.12-.05-.12-.12v-.35c0-.07.05-.11.12-.11h.5v-.93c0-.07.04-.11.11-.11h.5c.07,0,.1.04.1.11v.93h.66c.07,0,.11.04.11.11v.35c0,.07-.04.12-.11.12h-.66v2.36c0,.29.13.4.36.4.06,0,.17,0,.25-.02.11,0,.15.03.15.11v.34c0,.15-.33.19-.55.19-.56,0-.93-.28-.93-.93Z"/>
    <path class="st3" d="M275.61,58.88v-3.69c0-.07.04-.11.11-.11h.47c.08,0,.11.03.11.12l.02.46c.14-.38.41-.68.89-.68.17,0,.29.03.36.08.05.04.06.07.06.14v.4c0,.09-.06.1-.14.08-.1-.02-.2-.04-.29-.04-.66,0-.88.55-.88,1.02v2.21c0,.07-.03.11-.1.11h-.5c-.07,0-.11-.04-.11-.11Z"/>
    <path class="st3" d="M278.14,57.02c0-1.15.81-2.04,1.98-2.04s1.85.89,1.85,1.85c0,.32-.06.46-.33.46h-2.8c.09.7.59,1.2,1.46,1.2.43,0,.76-.12,1.06-.33.05-.03.1-.03.13,0l.18.25c.06.06.03.11-.03.17-.34.34-.85.5-1.4.5-1.28,0-2.09-.92-2.09-2.07ZM281.33,56.76c-.04-.7-.5-1.17-1.21-1.17s-1.2.44-1.28,1.17h2.49Z"/>
    <path class="st3" d="M282.71,57.02c0-1.15.81-2.04,1.98-2.04s1.85.89,1.85,1.85c0,.32-.06.46-.33.46h-2.8c.09.7.59,1.2,1.46,1.2.43,0,.76-.12,1.06-.33.05-.03.1-.03.13,0l.18.25c.06.06.03.11-.03.17-.34.34-.85.5-1.4.5-1.28,0-2.09-.92-2.09-2.07ZM285.9,56.76c-.04-.7-.5-1.17-1.21-1.17s-1.2.44-1.28,1.17h2.49Z"/>
    <path class="st3" d="M287.79,58.12v-2.45h-.5c-.07,0-.12-.05-.12-.12v-.35c0-.07.05-.11.12-.11h.5v-.93c0-.07.04-.11.11-.11h.5c.07,0,.1.04.1.11v.93h.66c.07,0,.11.04.11.11v.35c0,.07-.04.12-.11.12h-.66v2.36c0,.29.13.4.36.4.06,0,.17,0,.25-.02.11,0,.15.03.15.11v.34c0,.15-.33.19-.55.19-.56,0-.93-.28-.93-.93Z"/>
  </g>
  <g>
    <path class="st3" d="M192.08,67.25c-.04-.06-.04-.11.02-.18l.26-.3c.06-.06.13-.05.18,0,.3.38.67.62,1.23.62.66,0,1.05-.34,1.05-.87s-.4-.77-.92-1.02l-.68-.33c-.59-.27-1.02-.7-1.02-1.41,0-.9.71-1.45,1.6-1.45.65,0,1.15.27,1.53.72.07.07.06.12,0,.18l-.26.3c-.06.07-.12.07-.18,0-.32-.34-.64-.52-1.07-.52-.51,0-.9.26-.9.75,0,.39.23.62.71.85l.63.3c.65.31,1.28.7,1.28,1.61,0,1-.78,1.56-1.77,1.56-.83,0-1.39-.39-1.7-.84Z"/>
    <path class="st3" d="M196.55,67.88v-5.49c0-.07.04-.11.11-.11h.5c.07,0,.1.04.1.11v2.3c.22-.4.64-.71,1.27-.71.84,0,1.42.57,1.42,1.6v2.3c0,.07-.04.11-.11.11h-.5c-.07,0-.1-.04-.1-.11v-2.19c0-.66-.34-1.05-.94-1.05s-1.04.39-1.04,1.05v2.19c0,.07-.03.11-.1.11h-.5c-.07,0-.11-.04-.11-.11Z"/>
    <path class="st3" d="M200.9,66.02c0-1.15.81-2.04,1.98-2.04s1.85.89,1.85,1.85c0,.32-.06.46-.33.46h-2.8c.09.7.59,1.2,1.46,1.2.43,0,.76-.12,1.06-.33.05-.03.1-.03.13,0l.18.25c.06.06.03.11-.03.17-.34.34-.85.5-1.4.5-1.28,0-2.09-.92-2.09-2.07ZM204.09,65.76c-.04-.7-.5-1.17-1.21-1.17s-1.2.44-1.28,1.17h2.49Z"/>
    <path class="st3" d="M205.47,66.04c0-1.17.78-2.05,1.91-2.05.65,0,1.14.29,1.42.76v-2.35c0-.07.04-.11.11-.11h.5c.07,0,.11.04.11.11v5.49c0,.07-.04.11-.11.11h-.46c-.07,0-.1-.04-.1-.11l-.02-.58c-.29.49-.78.79-1.45.79-1.13,0-1.91-.88-1.91-2.05ZM207.51,67.43c.77,0,1.3-.55,1.3-1.38s-.54-1.4-1.3-1.4-1.34.57-1.34,1.39.56,1.39,1.34,1.39Z"/>
    <path class="st3" d="M210.6,62.72c0-.24.19-.43.43-.43s.42.19.42.43-.18.43-.42.43-.43-.19-.43-.43ZM210.67,64.19c0-.07.03-.11.1-.11h.5c.07,0,.11.04.11.11v3.69c0,.07-.04.11-.11.11h-.5c-.07,0-.1-.04-.1-.11v-3.69Z"/>
    <path class="st3" d="M212.32,66.04c0-1.17.78-2.05,1.91-2.05.67,0,1.17.31,1.45.81l.02-.6c0-.07.03-.11.1-.11h.46c.07,0,.11.04.11.11v3.69c0,.07-.04.11-.11.11h-.46c-.07,0-.1-.04-.1-.11l-.02-.58c-.29.49-.78.79-1.45.79-1.13,0-1.91-.88-1.91-2.05ZM214.36,67.43c.77,0,1.3-.55,1.3-1.38s-.54-1.4-1.3-1.4-1.34.57-1.34,1.39.56,1.39,1.34,1.39Z"/>
    <path class="st3" d="M217.32,66.03c0-1.17.88-2.05,2.05-2.05.62,0,1.14.26,1.48.66.05.06.05.12,0,.17l-.28.26c-.06.07-.14.05-.18,0-.24-.26-.53-.43-.99-.43-.79,0-1.37.58-1.37,1.38s.58,1.39,1.38,1.39c.46,0,.74-.17.98-.42.06-.06.13-.08.19-.02l.28.27s.05.1,0,.16c-.34.42-.86.67-1.49.67-1.17,0-2.05-.89-2.05-2.06Z"/>
    <path class="st3" d="M222.12,68.11c-.3,0-.5-.2-.5-.48s.22-.49.5-.49c.31,0,.59.26.59.74,0,.64-.51,1.14-1.1,1.13v-.22c.54,0,.76-.67.51-.67Z"/>
    <path class="st3" d="M228.42,67.92l-2.44-4.39v4.36c0,.07-.04.11-.11.11h-.52c-.07,0-.12-.04-.12-.11v-5.37c0-.07.05-.11.12-.11h.66c.06,0,.11.02.14.08l2.45,4.41v-4.37c0-.07.05-.11.12-.11h.52c.07,0,.11.04.11.11v5.37c0,.07-.04.11-.11.11h-.67c-.06,0-.11-.02-.14-.08Z"/>
    <path class="st3" d="M230.64,67.88v-5.37c0-.07.05-.11.12-.11h1.69c1.1,0,1.53.68,1.53,1.37,0,.54-.28,1.01-.79,1.2.69.16,1.14.71,1.14,1.46,0,.92-.62,1.57-1.9,1.57h-1.66c-.07,0-.12-.04-.12-.11ZM232.35,64.72c.56,0,.92-.3.92-.86s-.36-.79-.92-.79h-.96v1.66h.96ZM232.37,67.33c.78,0,1.19-.34,1.19-1s-.42-1.02-1.19-1.02h-.98v2.01h.98Z"/>
    <path class="st3" d="M236.93,67.88v-5.37c0-.07.05-.11.12-.11h2.72c.07,0,.12.04.12.11v.44c0,.07-.05.11-.12.11h-2.09v1.73h1.98c.07,0,.11.04.11.11v.44c0,.07-.04.11-.11.11h-1.98v1.87h2.09c.07,0,.11.05.11.12v.44c0,.07-.04.11-.11.11h-2.73c-.07,0-.12-.04-.12-.11Z"/>
    <path class="st3" d="M243.19,67.88v-1.15h-2.25c-.07,0-.12-.05-.12-.12v-.43s0-.08.03-.13l2.29-3.57c.04-.06.08-.08.14-.08h.51c.07,0,.11.05.11.12v3.6h.57c.07,0,.1.05.1.12v.38c0,.07-.02.11-.1.11h-.57v1.15c0,.07-.03.11-.1.11h-.5c-.07,0-.11-.04-.11-.11ZM243.19,66.12v-2.61l-1.66,2.61h1.66Z"/>
    <path class="st3" d="M245.58,67.88v-5.37c0-.07.05-.11.12-.11h1.57c1.24,0,1.88.73,1.88,1.76s-.64,1.76-1.88,1.76h-.94v1.97c0,.07-.04.11-.11.11h-.52c-.07,0-.12-.04-.12-.11ZM247.22,65.25c.66,0,1.2-.28,1.2-1.1s-.54-1.1-1.2-1.1h-.89v2.19h.89Z"/>
    <path class="st3" d="M252.44,67.88v-4.86h-.87c-.07,0-.1-.04-.1-.11v-.4c0-.07.03-.11.1-.11h1.49c.07,0,.1.04.1.11v5.37c0,.07-.03.11-.1.11h-.5c-.07,0-.11-.04-.11-.11Z"/>
    <path class="st3" d="M254.32,67.88v-5.37c0-.07.05-.11.12-.11h.52c.07,0,.11.04.11.11v2.38h2.48v-2.38c0-.07.04-.11.11-.11h.52c.07,0,.12.04.12.11v5.37c0,.07-.05.11-.12.11h-.52c-.07,0-.11-.04-.11-.11v-2.33h-2.48v2.33c0,.07-.04.11-.11.11h-.52c-.07,0-.12-.04-.12-.11Z"/>
    <path class="st3" d="M260.04,67.7l1.41-1.76c-.1.06-.26.1-.45.1-.88,0-1.69-.77-1.69-1.83s.8-1.87,1.87-1.87,1.85.82,1.85,1.86c0,.5-.18.97-.58,1.48l-1.9,2.46c-.05.06-.1.08-.15.03l-.36-.31c-.06-.05-.06-.09-.02-.15ZM261.18,65.42c.66,0,1.16-.5,1.16-1.21s-.5-1.21-1.16-1.21-1.16.5-1.16,1.21.5,1.21,1.16,1.21Z"/>
  </g>
  <g>
    <path class="st3" d="M192.9,77.96c-.55-.98-.8-2.28-.8-3.52,0-1.17.27-2.4.8-3.32.03-.06.08-.08.14-.08h.46c.09,0,.13.06.08.14-.48.91-.75,2.05-.75,3.25,0,1.28.27,2.49.76,3.45.04.09,0,.14-.09.14h-.46c-.06,0-.11-.02-.14-.08Z"/>
    <path class="st3" d="M194.53,76.34c-.04-.08-.03-.13.02-.17l.34-.27c.06-.04.12-.02.17.04.2.25.54.49,1.03.49.7,0,1.23-.51,1.23-1.26s-.53-1.21-1.19-1.21c-.32,0-.7.11-.96.45-.05.06-.11.06-.2.03l-.32-.14c-.08-.03-.1-.07-.08-.14l.58-2.65c.02-.06.06-.1.13-.1h2.27c.07,0,.1.04.1.11v.4c0,.07-.03.11-.1.11h-1.85l-.34,1.58c.22-.14.55-.26.93-.26.97,0,1.74.75,1.74,1.86,0,1.17-.86,1.91-1.92,1.91-.78,0-1.33-.4-1.58-.76Z"/>
    <path class="st3" d="M198.78,74.22c0-1.88.88-2.89,2.12-2.89s2.12,1.01,2.12,2.89-.88,2.88-2.12,2.88-2.12-1.01-2.12-2.88ZM200.9,76.42c.9,0,1.42-.83,1.42-2.2s-.51-2.21-1.42-2.21-1.42.84-1.42,2.21.5,2.2,1.42,2.2Z"/>
    <path class="st3" d="M203.78,75.24c0-.5.18-.96.58-1.47l1.89-2.46c.05-.06.1-.08.15-.03l.36.31c.06.05.06.09.02.15l-1.4,1.76c.1-.06.26-.1.45-.1.87,0,1.68.76,1.68,1.83s-.79,1.87-1.87,1.87-1.85-.82-1.85-1.86ZM205.64,76.43c.66,0,1.16-.5,1.16-1.21s-.5-1.21-1.16-1.21-1.16.5-1.16,1.21.5,1.21,1.16,1.21Z"/>
    <path class="st3" d="M208.36,77.89c.49-.97.76-2.17.76-3.45,0-1.21-.27-2.34-.75-3.25-.05-.09,0-.14.08-.14h.46c.06,0,.11.02.14.08.53.92.8,2.15.8,3.32,0,1.24-.25,2.54-.8,3.52-.03.06-.08.08-.14.08h-.46c-.09,0-.13-.06-.09-.14Z"/>
    <path class="st3" d="M212.36,76.34c-.04-.08-.03-.13.02-.17l.34-.27c.06-.04.12-.02.17.04.2.25.54.49,1.03.49.7,0,1.23-.51,1.23-1.26s-.53-1.21-1.19-1.21c-.32,0-.7.11-.96.45-.05.06-.11.06-.2.03l-.32-.14c-.08-.03-.1-.07-.08-.14l.58-2.65c.02-.06.06-.1.13-.1h2.27c.07,0,.1.04.1.11v.4c0,.07-.03.11-.1.11h-1.85l-.34,1.58c.22-.14.55-.26.93-.26.97,0,1.74.75,1.74,1.86,0,1.17-.86,1.91-1.92,1.91-.78,0-1.33-.4-1.58-.76Z"/>
    <path class="st3" d="M216.56,76.31c-.04-.06-.03-.11.02-.16l.31-.29s.1-.04.14.02c.2.26.53.55,1.06.55.66,0,1.09-.44,1.09-1.04,0-.64-.5-1.05-1.14-1.05h-.16c-.08,0-.11-.03-.11-.1v-.39c0-.07.03-.1.11-.1h.16c.59,0,.94-.41.94-.89s-.35-.84-.88-.84c-.42,0-.73.23-.91.54-.05.07-.1.06-.16.02l-.3-.29s-.05-.09,0-.14c.27-.43.78-.78,1.45-.78.86,0,1.51.58,1.51,1.39,0,.59-.34,1.03-.82,1.26.59.21,1.06.71,1.06,1.47,0,.95-.75,1.64-1.79,1.64-.72,0-1.25-.33-1.57-.79Z"/>
    <path class="st3" d="M220.47,76.31c-.04-.06-.03-.11.02-.16l.31-.29s.1-.04.14.02c.2.26.53.55,1.06.55.66,0,1.09-.44,1.09-1.04,0-.64-.5-1.05-1.14-1.05h-.16c-.08,0-.11-.03-.11-.1v-.39c0-.07.03-.1.11-.1h.16c.59,0,.94-.41.94-.89s-.35-.84-.88-.84c-.42,0-.73.23-.91.54-.05.07-.1.06-.16.02l-.3-.29s-.05-.09,0-.14c.27-.43.78-.78,1.45-.78.86,0,1.51.58,1.51,1.39,0,.59-.34,1.03-.82,1.26.59.21,1.06.71,1.06,1.47,0,.95-.75,1.64-1.79,1.64-.72,0-1.25-.33-1.57-.79Z"/>
    <path class="st3" d="M224.63,74.94v-.39c0-.07.03-.1.1-.1h2.4c.07,0,.1.03.1.1v.39c0,.07-.03.11-.1.11h-2.4c-.07,0-.1-.04-.1-.11Z"/>
    <path class="st3" d="M228,76.31c-.04-.06-.03-.11.02-.16l.31-.29s.1-.04.14.02c.2.26.53.55,1.06.55.66,0,1.09-.44,1.09-1.04,0-.64-.5-1.05-1.14-1.05h-.16c-.08,0-.11-.03-.11-.1v-.39c0-.07.03-.1.11-.1h.16c.59,0,.94-.41.94-.89s-.35-.84-.88-.84c-.42,0-.73.23-.91.54-.05.07-.1.06-.16.02l-.3-.29s-.05-.09,0-.14c.27-.43.78-.78,1.45-.78.86,0,1.51.58,1.51,1.39,0,.59-.34,1.03-.82,1.26.59.21,1.06.71,1.06,1.47,0,.95-.75,1.64-1.79,1.64-.72,0-1.25-.33-1.57-.79Z"/>
    <path class="st3" d="M232.1,75.24c0-.5.18-.96.58-1.47l1.89-2.46c.05-.06.1-.08.15-.03l.36.31c.06.05.06.09.02.15l-1.4,1.76c.1-.06.26-.1.45-.1.87,0,1.68.76,1.68,1.83s-.79,1.87-1.87,1.87-1.85-.82-1.85-1.86ZM233.96,76.43c.66,0,1.16-.5,1.16-1.21s-.5-1.21-1.16-1.21-1.16.5-1.16,1.21.5,1.21,1.16,1.21Z"/>
    <path class="st3" d="M236.53,76.31c-.04-.06-.03-.11.02-.16l.31-.29s.1-.04.14.02c.2.26.53.55,1.06.55.66,0,1.09-.44,1.09-1.04,0-.64-.5-1.05-1.14-1.05h-.16c-.08,0-.11-.03-.11-.1v-.39c0-.07.03-.1.11-.1h.16c.59,0,.94-.41.94-.89s-.35-.84-.88-.84c-.42,0-.73.23-.91.54-.05.07-.1.06-.16.02l-.3-.29s-.05-.09,0-.14c.27-.43.78-.78,1.45-.78.86,0,1.51.58,1.51,1.39,0,.59-.34,1.03-.82,1.26.59.21,1.06.71,1.06,1.47,0,.95-.75,1.64-1.79,1.64-.72,0-1.25-.33-1.57-.79Z"/>
    <path class="st3" d="M241.17,76.86l2.01-4.84h-2.51c-.07,0-.1-.04-.1-.11v-.4c0-.07.03-.11.1-.11h3.29c.07,0,.11.06.08.14l-2.17,5.33c-.02.07-.06.12-.14.12h-.49c-.08,0-.11-.06-.08-.14Z"/>
  </g>
  <g>
    <path class="st3" d="M323.94,49.88v-4.46h-1.09c-.07,0-.12-.05-.12-.12v-.78c0-.07.05-.12.12-.12h3.33c.07,0,.12.05.12.12v.78c0,.07-.05.12-.12.12h-1.09v4.46c0,.07-.05.12-.12.12h-.9c-.07,0-.12-.05-.12-.12Z"/>
    <path class="st3" d="M326.17,48.04c0-1.16.76-2.05,1.86-2.05.59,0,1.02.24,1.28.65l.02-.43c0-.07.05-.12.12-.12h.78c.07,0,.12.05.12.12v3.68c0,.07-.06.12-.13.12h-.78c-.07,0-.12-.05-.12-.12l-.02-.43c-.27.4-.7.65-1.28.65-1.1,0-1.86-.89-1.86-2.05ZM328.27,49.08c.58,0,.99-.42.99-1.05s-.41-1.05-.99-1.05-1.02.42-1.02,1.05.43,1.05,1.02,1.05Z"/>
    <path class="st3" d="M331.31,49.88v-3.68c0-.07.05-.12.12-.12h.83c.07,0,.12.03.12.13l.03.46c.22-.4.6-.69,1.18-.69.82,0,1.42.59,1.42,1.62v2.28c0,.07-.06.12-.13.12h-.86c-.07,0-.12-.05-.12-.12v-2.03c0-.55-.26-.85-.73-.85s-.77.3-.77.85v2.03c0,.07-.05.12-.12.12h-.86c-.07,0-.12-.05-.12-.12Z"/>
    <path class="st3" d="M336.17,48.9v-1.97h-.5c-.07,0-.12-.05-.12-.12v-.62c0-.07.05-.12.12-.12h.5v-.92c0-.07.05-.12.12-.12h.87c.07,0,.12.05.12.12v.92h.62c.07,0,.12.05.12.12v.62c0,.07-.05.12-.12.12h-.62v1.85c0,.23.14.34.34.34.07,0,.15,0,.25,0,.09,0,.14.03.14.11v.58c0,.18-.4.23-.66.23-.62,0-1.18-.29-1.18-1.14Z"/>
    <path class="st3" d="M338.73,49.88v-3.68c0-.07.05-.12.12-.12h.83c.07,0,.11.03.12.13l.03.5c.14-.42.38-.73.85-.73.18,0,.3.05.36.1.06.04.07.09.07.16v.7c0,.1-.06.12-.16.1-.09-.02-.18-.04-.29-.04-.54,0-.83.36-.83.92v1.96c0,.07-.05.12-.12.12h-.86c-.07,0-.12-.05-.12-.12Z"/>
    <path class="st3" d="M341.52,48.04c0-1.16.76-2.05,1.86-2.05.59,0,1.02.24,1.28.65l.02-.43c0-.07.05-.12.12-.12h.78c.07,0,.12.05.12.12v3.68c0,.07-.06.12-.13.12h-.78c-.07,0-.12-.05-.12-.12l-.02-.43c-.27.4-.7.65-1.28.65-1.1,0-1.86-.89-1.86-2.05ZM343.61,49.08c.58,0,.99-.42.99-1.05s-.41-1.05-.99-1.05-1.02.42-1.02,1.05.43,1.05,1.02,1.05Z"/>
    <path class="st3" d="M346.65,49.88v-3.68c0-.07.05-.12.12-.12h.83c.07,0,.12.03.12.13l.02.42c.22-.37.57-.64,1.1-.64.5,0,.9.24,1.11.7.22-.4.6-.7,1.21-.7.84,0,1.35.58,1.35,1.6v2.29c0,.07-.05.12-.12.12h-.86c-.07,0-.12-.05-.12-.12v-2.05c0-.54-.19-.82-.62-.82s-.66.29-.66.82v2.05c0,.07-.05.12-.12.12h-.86c-.08,0-.13-.05-.13-.12v-2.05c0-.54-.2-.82-.62-.82s-.66.29-.66.82v2.05c0,.07-.05.12-.12.12h-.86c-.07,0-.12-.05-.12-.12Z"/>
    <path class="st3" d="M353.27,48.04c0-1.16.76-2.05,1.86-2.05.59,0,1.02.24,1.28.65l.02-.43c0-.07.05-.12.12-.12h.78c.07,0,.12.05.12.12v3.68c0,.07-.06.12-.13.12h-.78c-.07,0-.12-.05-.12-.12l-.02-.43c-.27.4-.7.65-1.28.65-1.1,0-1.86-.89-1.86-2.05ZM355.37,49.08c.58,0,.99-.42.99-1.05s-.41-1.05-.99-1.05-1.02.42-1.02,1.05.43,1.05,1.02,1.05Z"/>
    <path class="st3" d="M358.41,49.88v-3.68c0-.07.05-.12.12-.12h.83c.07,0,.11.03.12.13l.03.5c.14-.42.38-.73.85-.73.18,0,.3.05.36.1.06.04.07.09.07.16v.7c0,.1-.06.12-.16.1-.09-.02-.18-.04-.29-.04-.54,0-.83.36-.83.92v1.96c0,.07-.05.12-.12.12h-.86c-.07,0-.12-.05-.12-.12Z"/>
  </g>
  <g>
    <path class="st3" d="M323.62,58.88v-4.86h-.87c-.07,0-.1-.04-.1-.11v-.4c0-.07.03-.11.1-.11h1.49c.07,0,.1.04.1.11v5.37c0,.07-.03.11-.1.11h-.5c-.07,0-.11-.04-.11-.11Z"/>
    <path class="st3" d="M326.18,58.88v-4.86h-.87c-.07,0-.1-.04-.1-.11v-.4c0-.07.03-.11.1-.11h1.49c.07,0,.1.04.1.11v5.37c0,.07-.03.11-.1.11h-.5c-.07,0-.11-.04-.11-.11Z"/>
    <path class="st3" d="M327.78,58.88v-.41c0-.06.02-.11.06-.15l1.72-1.99c.32-.37.73-.82.73-1.38s-.39-.95-1-.95c-.57,0-.84.34-1.02.62-.05.06-.11.06-.16,0l-.3-.28c-.06-.06-.06-.1,0-.18.28-.43.75-.83,1.54-.83,1.02,0,1.66.7,1.66,1.56,0,.74-.46,1.25-.78,1.62l-1.58,1.85h2.23c.07,0,.11.04.11.11v.4c0,.07-.04.11-.11.11h-2.97c-.07,0-.11-.04-.11-.11Z"/>
    <path class="st3" d="M331.96,56.22c0-1.62,1.22-2.89,2.85-2.89.78,0,1.42.29,1.91.74.06.06.07.11.02.18l-.32.34c-.05.06-.1.06-.17,0-.39-.34-.86-.54-1.43-.54-1.2,0-2.1.92-2.1,2.16s.9,2.15,2.1,2.15c.58,0,1.04-.21,1.43-.54.06-.06.12-.06.17,0l.32.35c.06.06.04.12-.02.18-.5.46-1.13.75-1.91.75-1.64,0-2.85-1.25-2.85-2.88Z"/>
    <path class="st3" d="M339.4,58.88v-3.69c0-.07.04-.11.11-.11h.47c.08,0,.11.03.11.12l.02.46c.14-.38.41-.68.89-.68.17,0,.29.03.36.08.05.04.06.07.06.14v.4c0,.09-.06.1-.14.08-.1-.02-.2-.04-.29-.04-.66,0-.88.55-.88,1.02v2.21c0,.07-.03.11-.1.11h-.5c-.07,0-.11-.04-.11-.11Z"/>
    <path class="st3" d="M342.3,57.48v-2.29c0-.07.04-.11.11-.11h.5c.07,0,.1.04.1.11v2.19c0,.66.34,1.04.94,1.04s1.04-.38,1.04-1.04v-2.19c0-.07.03-.11.1-.11h.5c.07,0,.11.04.11.11v3.69c0,.07-.04.11-.11.11h-.47c-.08,0-.1-.03-.11-.12l-.02-.5c-.22.4-.64.71-1.27.71-.84,0-1.42-.57-1.42-1.61Z"/>
    <path class="st3" d="M346.65,57.02c0-1.15.81-2.04,1.98-2.04s1.85.89,1.85,1.85c0,.32-.06.46-.33.46h-2.8c.09.7.59,1.2,1.46,1.2.43,0,.76-.12,1.06-.33.05-.03.1-.03.13,0l.18.25c.06.06.03.11-.03.17-.34.34-.85.5-1.4.5-1.28,0-2.1-.92-2.1-2.07ZM349.84,56.76c-.04-.7-.5-1.17-1.21-1.17s-1.2.44-1.28,1.17h2.49Z"/>
    <path class="st3" d="M353.09,58.88v-5.37c0-.07.05-.11.12-.11h.66c.06,0,.1.02.13.08l1.94,4.68,1.94-4.68c.02-.06.07-.08.14-.08h.66c.07,0,.11.04.11.11v5.37c0,.07-.04.11-.11.11h-.52c-.07,0-.12-.04-.12-.11v-4.17l-1.71,4.19c-.02.06-.07.09-.14.09h-.51c-.06,0-.11-.02-.14-.09l-1.71-4.19v4.17c0,.07-.04.11-.11.11h-.52c-.07,0-.12-.04-.12-.11Z"/>
    <path class="st3" d="M359.82,57.04c0-1.17.78-2.05,1.91-2.05.67,0,1.17.31,1.45.81l.02-.6c0-.07.03-.11.1-.11h.46c.07,0,.11.04.11.11v3.69c0,.07-.04.11-.11.11h-.46c-.07,0-.1-.04-.1-.11l-.02-.58c-.29.49-.78.79-1.45.79-1.13,0-1.91-.88-1.91-2.05ZM361.86,58.43c.77,0,1.3-.55,1.3-1.38s-.54-1.4-1.3-1.4-1.33.57-1.33,1.39.56,1.39,1.33,1.39Z"/>
    <path class="st3" d="M364.95,53.72c0-.24.19-.43.43-.43s.42.19.42.43-.18.43-.42.43-.43-.19-.43-.43ZM365.02,55.19c0-.07.03-.11.1-.11h.5c.07,0,.11.04.11.11v3.69c0,.07-.04.11-.11.11h-.5c-.07,0-.1-.04-.1-.11v-3.69Z"/>
    <path class="st3" d="M366.88,58.88v-3.69c0-.07.04-.11.11-.11h.47c.08,0,.11.03.11.12l.02.5c.22-.4.64-.71,1.27-.71.84,0,1.42.57,1.42,1.6v2.3c0,.07-.04.11-.11.11h-.5c-.07,0-.1-.04-.1-.11v-2.19c0-.66-.33-1.05-.93-1.05s-1.04.39-1.04,1.05v2.19c0,.07-.03.11-.1.11h-.5c-.07,0-.11-.04-.11-.11Z"/>
    <path class="st3" d="M372.91,58.25c-.04-.06-.04-.11.02-.18l.26-.3c.06-.06.13-.05.18,0,.3.38.67.62,1.23.62.66,0,1.05-.34,1.05-.87s-.4-.77-.92-1.02l-.68-.33c-.59-.27-1.02-.7-1.02-1.41,0-.9.71-1.45,1.6-1.45.65,0,1.15.27,1.53.72.07.07.06.12,0,.18l-.26.3c-.06.07-.12.07-.18,0-.32-.34-.64-.52-1.07-.52-.51,0-.9.26-.9.75,0,.39.23.62.71.85l.63.3c.65.31,1.28.7,1.28,1.61,0,1-.78,1.56-1.77,1.56-.83,0-1.39-.39-1.7-.84Z"/>
    <path class="st3" d="M377.6,58.12v-2.45h-.5c-.07,0-.12-.05-.12-.12v-.35c0-.07.05-.11.12-.11h.5v-.93c0-.07.04-.11.11-.11h.5c.07,0,.1.04.1.11v.93h.66c.07,0,.11.04.11.11v.35c0,.07-.04.12-.11.12h-.66v2.36c0,.29.13.4.36.4.06,0,.17,0,.25-.02.11,0,.15.03.15.11v.34c0,.15-.33.19-.55.19-.56,0-.93-.28-.93-.93Z"/>
    <path class="st3" d="M379.98,58.88v-3.69c0-.07.04-.11.11-.11h.47c.08,0,.11.03.11.12l.02.46c.14-.38.41-.68.89-.68.17,0,.29.03.36.08.05.04.06.07.06.14v.4c0,.09-.06.1-.14.08-.1-.02-.2-.04-.29-.04-.66,0-.88.55-.88,1.02v2.21c0,.07-.03.11-.1.11h-.5c-.07,0-.11-.04-.11-.11Z"/>
    <path class="st3" d="M382.51,57.02c0-1.15.81-2.04,1.98-2.04s1.85.89,1.85,1.85c0,.32-.06.46-.33.46h-2.8c.09.7.59,1.2,1.46,1.2.43,0,.76-.12,1.06-.33.05-.03.1-.03.13,0l.18.25c.06.06.03.11-.03.17-.34.34-.85.5-1.4.5-1.28,0-2.09-.92-2.09-2.07ZM385.7,56.76c-.04-.7-.5-1.17-1.21-1.17s-1.2.44-1.28,1.17h2.49Z"/>
    <path class="st3" d="M387.08,57.02c0-1.15.81-2.04,1.98-2.04s1.85.89,1.85,1.85c0,.32-.06.46-.33.46h-2.8c.09.7.59,1.2,1.46,1.2.43,0,.76-.12,1.06-.33.05-.03.1-.03.13,0l.18.25c.06.06.03.11-.03.17-.34.34-.85.5-1.4.5-1.28,0-2.09-.92-2.09-2.07ZM390.27,56.76c-.04-.7-.5-1.17-1.21-1.17s-1.2.44-1.28,1.17h2.49Z"/>
    <path class="st3" d="M392.16,58.12v-2.45h-.5c-.07,0-.12-.05-.12-.12v-.35c0-.07.05-.11.12-.11h.5v-.93c0-.07.04-.11.11-.11h.5c.07,0,.1.04.1.11v.93h.66c.07,0,.11.04.11.11v.35c0,.07-.04.12-.11.12h-.66v2.36c0,.29.13.4.36.4.06,0,.17,0,.25-.02.11,0,.15.03.15.11v.34c0,.15-.33.19-.55.19-.56,0-.93-.28-.93-.93Z"/>
  </g>
  <g>
    <path class="st3" d="M322.79,67.25c-.04-.06-.04-.11.02-.18l.26-.3c.06-.06.13-.05.18,0,.3.38.67.62,1.23.62.66,0,1.05-.34,1.05-.87s-.4-.77-.92-1.02l-.68-.33c-.59-.27-1.02-.7-1.02-1.41,0-.9.71-1.45,1.6-1.45.65,0,1.15.27,1.53.72.07.07.06.12,0,.18l-.26.3c-.06.07-.12.07-.18,0-.32-.34-.64-.52-1.07-.52-.51,0-.9.26-.9.75,0,.39.23.62.71.85l.63.3c.65.31,1.28.7,1.28,1.61,0,1-.78,1.56-1.77,1.56-.83,0-1.39-.39-1.7-.84Z"/>
    <path class="st3" d="M327.05,66.04c0-1.17.78-2.05,1.91-2.05.67,0,1.17.31,1.45.81l.02-.6c0-.07.03-.11.1-.11h.46c.07,0,.11.04.11.11v3.69c0,.07-.04.11-.11.11h-.46c-.07,0-.1-.04-.1-.11l-.02-.58c-.29.49-.78.79-1.45.79-1.13,0-1.91-.88-1.91-2.05ZM329.09,67.43c.77,0,1.3-.55,1.3-1.38s-.54-1.4-1.3-1.4-1.34.57-1.34,1.39.56,1.39,1.34,1.39Z"/>
    <path class="st3" d="M332.04,66.03c0-1.17.88-2.05,2.05-2.05.62,0,1.14.26,1.48.66.05.06.05.12,0,.17l-.28.26c-.06.07-.14.05-.18,0-.24-.26-.53-.43-.99-.43-.79,0-1.37.58-1.37,1.38s.58,1.39,1.38,1.39c.46,0,.74-.17.98-.42.06-.06.13-.08.19-.02l.28.27s.05.1,0,.16c-.34.42-.86.67-1.49.67-1.17,0-2.05-.89-2.05-2.06Z"/>
    <path class="st3" d="M336.56,67.88v-5.49c0-.07.04-.11.11-.11h.5c.07,0,.11.04.11.11v3.63l1.69-1.88s.08-.06.14-.06h.61c.09,0,.1.06.05.13l-1.42,1.54,1.62,2.12c.06.07.02.14-.07.14h-.54c-.06,0-.1-.02-.14-.07l-1.31-1.69-.62.68v.97c0,.07-.04.11-.11.11h-.5c-.07,0-.11-.04-.11-.11Z"/>
    <path class="st3" d="M342.03,67.9l-1.46-3.69c-.03-.09,0-.14.09-.14h.51c.06,0,.1.03.13.1l1.14,3.01,1.13-3.01c.02-.06.06-.1.13-.1h.51c.09,0,.12.05.09.14l-1.46,3.69c-.02.06-.08.1-.14.1h-.51c-.06,0-.12-.03-.14-.1Z"/>
    <path class="st3" d="M345.14,62.72c0-.24.19-.43.43-.43s.42.19.42.43-.18.43-.42.43-.43-.19-.43-.43ZM345.21,64.19c0-.07.03-.11.1-.11h.5c.07,0,.11.04.11.11v3.69c0,.07-.04.11-.11.11h-.5c-.07,0-.1-.04-.1-.11v-3.69Z"/>
    <path class="st3" d="M347.07,67.88v-5.49c0-.07.04-.11.11-.11h.5c.07,0,.11.04.11.11v5.49c0,.07-.04.11-.11.11h-.5c-.07,0-.11-.04-.11-.11Z"/>
    <path class="st3" d="M348.93,67.88v-5.49c0-.07.04-.11.11-.11h.5c.07,0,.11.04.11.11v5.49c0,.07-.04.11-.11.11h-.5c-.07,0-.11-.04-.11-.11Z"/>
    <path class="st3" d="M350.6,66.02c0-1.15.81-2.04,1.98-2.04s1.85.89,1.85,1.85c0,.32-.06.46-.33.46h-2.8c.09.7.59,1.2,1.46,1.2.43,0,.76-.12,1.06-.33.05-.03.1-.03.13,0l.18.25c.06.06.03.11-.03.17-.34.34-.85.5-1.4.5-1.28,0-2.1-.92-2.1-2.07ZM353.79,65.76c-.04-.7-.5-1.17-1.21-1.17s-1.2.44-1.28,1.17h2.49Z"/>
    <path class="st3" d="M355.34,68.11c-.3,0-.5-.2-.5-.48s.22-.49.5-.49c.31,0,.59.26.59.74,0,.64-.51,1.14-1.1,1.13v-.22c.54,0,.76-.67.51-.67Z"/>
    <path class="st3" d="M361.63,67.92l-2.44-4.39v4.36c0,.07-.04.11-.11.11h-.52c-.07,0-.12-.04-.12-.11v-5.37c0-.07.05-.11.12-.11h.66c.06,0,.11.02.14.08l2.45,4.41v-4.37c0-.07.05-.11.12-.11h.52c.07,0,.11.04.11.11v5.37c0,.07-.04.11-.11.11h-.67c-.06,0-.11-.02-.14-.08Z"/>
    <path class="st3" d="M363.86,67.88v-5.37c0-.07.05-.11.12-.11h1.69c1.1,0,1.53.68,1.53,1.37,0,.54-.28,1.01-.79,1.2.69.16,1.13.71,1.13,1.46,0,.92-.62,1.57-1.9,1.57h-1.66c-.07,0-.12-.04-.12-.11ZM365.56,64.72c.56,0,.92-.3.92-.86s-.36-.79-.92-.79h-.96v1.66h.96ZM365.59,67.33c.78,0,1.19-.34,1.19-1s-.42-1.02-1.19-1.02h-.98v2.01h.98Z"/>
    <path class="st3" d="M370.15,67.88v-5.37c0-.07.05-.11.12-.11h2.72c.07,0,.12.04.12.11v.44c0,.07-.05.11-.12.11h-2.09v1.73h1.98c.07,0,.11.04.11.11v.44c0,.07-.04.11-.11.11h-1.98v1.87h2.09c.07,0,.11.05.11.12v.44c0,.07-.04.11-.11.11h-2.73c-.07,0-.12-.04-.12-.11Z"/>
    <path class="st3" d="M376.41,67.88v-1.15h-2.25c-.07,0-.12-.05-.12-.12v-.43s0-.08.03-.13l2.29-3.57c.04-.06.08-.08.14-.08h.51c.07,0,.11.05.11.12v3.6h.57c.07,0,.1.05.1.12v.38c0,.07-.02.11-.1.11h-.57v1.15c0,.07-.03.11-.1.11h-.5c-.07,0-.11-.04-.11-.11ZM376.41,66.12v-2.61l-1.66,2.61h1.66Z"/>
    <path class="st3" d="M378.8,67.88v-5.37c0-.07.05-.11.12-.11h.52c.07,0,.11.04.11.11v4.81h1.94c.07,0,.12.05.12.12v.43c0,.07-.05.12-.12.12h-2.57c-.07,0-.12-.04-.12-.11Z"/>
    <path class="st3" d="M384,65.22c0-1.88.88-2.89,2.12-2.89s2.12,1.01,2.12,2.89-.88,2.88-2.12,2.88-2.12-1.01-2.12-2.88ZM386.12,67.42c.9,0,1.42-.83,1.42-2.2s-.51-2.21-1.42-2.21-1.42.84-1.42,2.21.5,2.2,1.42,2.2Z"/>
    <path class="st3" d="M389.12,65.22c0-1.62,1.22-2.89,2.85-2.89.78,0,1.42.29,1.91.74.06.06.07.11.02.18l-.32.34c-.05.06-.1.06-.17,0-.39-.34-.86-.54-1.43-.54-1.2,0-2.1.92-2.1,2.16s.9,2.15,2.1,2.15c.58,0,1.04-.21,1.43-.54.06-.06.12-.06.17,0l.32.35c.06.06.04.12-.02.18-.5.46-1.13.75-1.91.75-1.64,0-2.85-1.25-2.85-2.88Z"/>
    <path class="st3" d="M394.73,67.31c-.04-.06-.03-.11.02-.16l.31-.29s.1-.04.14.02c.2.26.53.55,1.06.55.66,0,1.09-.44,1.09-1.04,0-.64-.5-1.05-1.14-1.05h-.16c-.08,0-.11-.03-.11-.1v-.39c0-.07.03-.1.11-.1h.16c.59,0,.94-.41.94-.89s-.35-.84-.88-.84c-.42,0-.73.23-.91.54-.05.07-.1.06-.16.02l-.3-.29s-.05-.09,0-.14c.27-.43.78-.78,1.45-.78.86,0,1.51.58,1.51,1.39,0,.59-.34,1.03-.82,1.26.59.21,1.06.71,1.06,1.47,0,.95-.75,1.64-1.79,1.64-.72,0-1.25-.33-1.57-.79Z"/>
  </g>
  <g>
    <path class="st3" d="M323.61,77.96c-.55-.98-.8-2.28-.8-3.52,0-1.17.27-2.4.8-3.32.03-.06.08-.08.14-.08h.46c.09,0,.13.06.08.14-.48.91-.75,2.05-.75,3.25,0,1.28.27,2.49.76,3.45.04.09,0,.14-.09.14h-.46c-.06,0-.11-.02-.14-.08Z"/>
    <path class="st3" d="M325.23,76.34c-.04-.08-.03-.13.02-.17l.34-.27c.06-.04.12-.02.17.04.2.25.54.49,1.03.49.7,0,1.23-.51,1.23-1.26s-.53-1.21-1.19-1.21c-.32,0-.7.11-.96.45-.05.06-.11.06-.2.03l-.32-.14c-.08-.03-.1-.07-.08-.14l.58-2.65c.02-.06.06-.1.13-.1h2.27c.07,0,.1.04.1.11v.4c0,.07-.03.11-.1.11h-1.85l-.34,1.58c.22-.14.55-.26.93-.26.97,0,1.74.75,1.74,1.86,0,1.17-.86,1.91-1.92,1.91-.78,0-1.33-.4-1.58-.76Z"/>
    <path class="st3" d="M329.49,74.22c0-1.88.88-2.89,2.12-2.89s2.12,1.01,2.12,2.89-.88,2.88-2.12,2.88-2.12-1.01-2.12-2.88ZM331.6,76.42c.9,0,1.42-.83,1.42-2.2s-.51-2.21-1.42-2.21-1.42.84-1.42,2.21.5,2.2,1.42,2.2Z"/>
    <path class="st3" d="M334.49,75.24c0-.5.18-.96.58-1.47l1.89-2.46c.05-.06.1-.08.15-.03l.36.31c.06.05.06.09.02.15l-1.4,1.76c.1-.06.26-.1.45-.1.87,0,1.68.76,1.68,1.83s-.79,1.87-1.87,1.87-1.85-.82-1.85-1.86ZM336.35,76.43c.66,0,1.16-.5,1.16-1.21s-.5-1.21-1.16-1.21-1.16.5-1.16,1.21.5,1.21,1.16,1.21Z"/>
    <path class="st3" d="M339.06,77.89c.49-.97.76-2.17.76-3.45,0-1.21-.27-2.34-.75-3.25-.05-.09,0-.14.08-.14h.46c.06,0,.11.02.14.08.53.92.8,2.15.8,3.32,0,1.24-.25,2.54-.8,3.52-.03.06-.08.08-.14.08h-.46c-.09,0-.13-.06-.09-.14Z"/>
    <path class="st3" d="M342.96,76.31c-.04-.06-.03-.11.02-.16l.31-.29s.1-.04.14.02c.2.26.53.55,1.06.55.66,0,1.09-.44,1.09-1.04,0-.64-.5-1.05-1.14-1.05h-.16c-.08,0-.11-.03-.11-.1v-.39c0-.07.03-.1.11-.1h.16c.59,0,.94-.41.94-.89s-.35-.84-.88-.84c-.42,0-.73.23-.91.54-.05.07-.1.06-.16.02l-.3-.29s-.05-.09,0-.14c.27-.43.78-.78,1.45-.78.86,0,1.51.58,1.51,1.39,0,.59-.33,1.03-.82,1.26.59.21,1.06.71,1.06,1.47,0,.95-.75,1.64-1.79,1.64-.72,0-1.25-.33-1.57-.79Z"/>
    <path class="st3" d="M347.05,75.24c0-.5.18-.96.58-1.47l1.89-2.46c.05-.06.1-.08.15-.03l.36.31c.06.05.06.09.02.15l-1.4,1.76c.1-.06.26-.1.45-.1.87,0,1.68.76,1.68,1.83s-.79,1.87-1.87,1.87-1.86-.82-1.86-1.86ZM348.92,76.43c.66,0,1.16-.5,1.16-1.21s-.5-1.21-1.16-1.21-1.16.5-1.16,1.21.5,1.21,1.16,1.21Z"/>
    <path class="st3" d="M353.88,76.88v-1.15h-2.25c-.07,0-.12-.05-.12-.12v-.43s0-.08.03-.13l2.29-3.57c.04-.06.08-.08.14-.08h.51c.07,0,.11.05.11.12v3.6h.57c.07,0,.1.05.1.12v.38c0,.07-.02.11-.1.11h-.57v1.15c0,.07-.03.11-.1.11h-.5c-.07,0-.11-.04-.11-.11ZM353.88,75.12v-2.61l-1.66,2.61h1.66Z"/>
    <path class="st3" d="M356.04,74.94v-.39c0-.07.03-.1.1-.1h2.4c.07,0,.1.03.1.1v.39c0,.07-.03.11-.1.11h-2.4c-.07,0-.1-.04-.1-.11Z"/>
    <path class="st3" d="M361.81,76.88v-1.15h-2.25c-.07,0-.12-.05-.12-.12v-.43s0-.08.03-.13l2.29-3.57c.04-.06.08-.08.14-.08h.51c.07,0,.11.05.11.12v3.6h.57c.07,0,.1.05.1.12v.38c0,.07-.02.11-.1.11h-.57v1.15c0,.07-.03.11-.1.11h-.5c-.07,0-.11-.04-.11-.11ZM361.81,75.12v-2.61l-1.66,2.61h1.66Z"/>
    <path class="st3" d="M364.46,76.86l2.02-4.84h-2.51c-.07,0-.1-.04-.1-.11v-.4c0-.07.03-.11.1-.11h3.29c.07,0,.11.06.08.14l-2.17,5.33c-.02.07-.06.12-.14.12h-.49c-.08,0-.11-.06-.08-.14Z"/>
    <path class="st3" d="M367.74,74.22c0-1.88.88-2.89,2.12-2.89s2.12,1.01,2.12,2.89-.88,2.88-2.12,2.88-2.12-1.01-2.12-2.88ZM369.86,76.42c.9,0,1.42-.83,1.42-2.2s-.51-2.21-1.42-2.21-1.42.84-1.42,2.21.5,2.2,1.42,2.2Z"/>
    <path class="st3" d="M373.51,76.88v-4.86h-.87c-.07,0-.1-.04-.1-.11v-.4c0-.07.03-.11.1-.11h1.49c.07,0,.1.04.1.11v5.37c0,.07-.03.11-.1.11h-.5c-.07,0-.11-.04-.11-.11Z"/>
  </g>
  <g>
    <path class="st3" d="M446.49,49.92l-1.18-1.88h-.41v1.84c0,.07-.05.12-.12.12h-.9c-.07,0-.12-.05-.12-.12v-5.36c0-.07.05-.12.12-.12h1.69c1.33,0,1.97.74,1.97,1.81,0,.82-.36,1.43-1.11,1.7l1.26,1.94c.06.09.02.14-.08.14h-.96c-.06,0-.11-.02-.14-.08ZM445.52,47.02c.49,0,.91-.17.91-.81s-.42-.8-.91-.8h-.62v1.61h.62Z"/>
    <path class="st3" d="M448.44,44.77c0-.34.26-.61.62-.61s.61.27.61.61-.26.62-.61.62-.62-.27-.62-.62ZM448.49,46.2c0-.07.05-.12.12-.12h.87c.07,0,.12.05.12.12v3.68c0,.07-.05.12-.12.12h-.87c-.07,0-.12-.05-.12-.12v-3.68Z"/>
    <path class="st3" d="M451.8,49.9l-1.46-3.69c-.03-.09,0-.14.1-.14h.88c.06,0,.12.03.14.1l.93,2.55.92-2.55c.02-.06.08-.1.14-.1h.88c.09,0,.13.05.1.14l-1.46,3.69c-.02.06-.08.1-.14.1h-.87c-.06,0-.12-.03-.14-.1Z"/>
    <path class="st3" d="M454.66,48.02c0-1.15.81-2.04,2.02-2.04s1.88.88,1.88,1.87c0,.38-.09.6-.43.6h-2.38c.12.5.53.77,1.16.77.3,0,.59-.06.91-.24.06-.03.1-.02.14.03l.3.41c.04.06.03.11-.04.18-.33.34-.84.5-1.39.5-1.29,0-2.15-.89-2.15-2.07ZM457.57,47.68c-.06-.52-.42-.78-.89-.78s-.86.26-.96.78h1.85Z"/>
    <path class="st3" d="M459.3,49.88v-3.68c0-.07.05-.12.12-.12h.83c.07,0,.11.03.12.13l.03.5c.14-.42.38-.73.85-.73.18,0,.3.05.36.1.06.04.07.09.07.16v.7c0,.1-.06.12-.16.1-.09-.02-.18-.04-.29-.04-.54,0-.83.36-.83.92v1.96c0,.07-.05.12-.12.12h-.86c-.07,0-.12-.05-.12-.12Z"/>
    <path class="st3" d="M463.63,49.9l-1.46-3.69c-.03-.09,0-.14.1-.14h.88c.06,0,.12.03.14.1l.93,2.55.92-2.55c.02-.06.08-.1.14-.1h.88c.09,0,.13.05.1.14l-1.46,3.69c-.02.06-.08.1-.14.1h-.87c-.06,0-.12-.03-.14-.1Z"/>
    <path class="st3" d="M466.92,44.77c0-.34.26-.61.62-.61s.61.27.61.61-.26.62-.61.62-.62-.27-.62-.62ZM466.97,46.2c0-.07.05-.12.12-.12h.87c.07,0,.12.05.12.12v3.68c0,.07-.05.12-.12.12h-.87c-.07,0-.12-.05-.12-.12v-3.68Z"/>
    <path class="st3" d="M468.85,48.02c0-1.15.81-2.04,2.02-2.04s1.88.88,1.88,1.87c0,.38-.09.6-.43.6h-2.38c.12.5.53.77,1.16.77.3,0,.59-.06.91-.24.06-.03.1-.02.14.03l.3.41c.04.06.03.11-.04.18-.33.34-.84.5-1.39.5-1.29,0-2.15-.89-2.15-2.07ZM471.76,47.68c-.06-.52-.42-.78-.89-.78s-.86.26-.96.78h1.85Z"/>
    <path class="st3" d="M474.21,49.9l-1.23-3.69c-.03-.09,0-.14.1-.14h.84c.06,0,.12.03.14.1l.78,2.54.86-2.54c.02-.06.08-.1.14-.1h.84c.06,0,.12.03.14.1l.85,2.54.78-2.54c.02-.06.09-.1.15-.1h.83c.09,0,.13.05.1.14l-1.22,3.69c-.02.06-.08.1-.14.1h-.89c-.06,0-.12-.03-.14-.1l-.88-2.54-.87,2.54c-.02.06-.08.1-.14.1h-.89c-.06,0-.12-.03-.14-.1Z"/>
  </g>
  <g>
    <path class="st3" d="M443.69,56.22c0-1.62,1.26-2.89,2.87-2.89s2.86,1.26,2.86,2.89-1.26,2.88-2.86,2.88-2.87-1.26-2.87-2.88ZM446.56,58.37c1.2,0,2.11-.93,2.11-2.15s-.91-2.16-2.11-2.16-2.11.93-2.11,2.16.91,2.15,2.11,2.15Z"/>
    <path class="st3" d="M450.49,60.4v-5.21c0-.07.04-.11.11-.11h.46c.07,0,.1.04.1.11l.02.6c.28-.5.78-.81,1.45-.81,1.13,0,1.91.89,1.91,2.05s-.78,2.05-1.91,2.05c-.65,0-1.14-.29-1.42-.75v2.06c0,.07-.04.11-.11.11h-.5c-.07,0-.11-.04-.11-.11ZM452.51,58.43c.78,0,1.33-.56,1.33-1.39s-.56-1.39-1.33-1.39-1.3.57-1.3,1.4.54,1.38,1.3,1.38Z"/>
    <path class="st3" d="M455.29,57.02c0-1.15.81-2.04,1.98-2.04s1.85.89,1.85,1.85c0,.32-.06.46-.33.46h-2.8c.09.7.59,1.2,1.46,1.2.43,0,.76-.12,1.06-.33.05-.03.1-.03.13,0l.18.25c.06.06.03.11-.03.17-.34.34-.85.5-1.4.5-1.28,0-2.09-.92-2.09-2.07ZM458.48,56.76c-.04-.7-.5-1.17-1.21-1.17s-1.2.44-1.28,1.17h2.49Z"/>
    <path class="st3" d="M460.05,58.88v-3.69c0-.07.04-.11.11-.11h.47c.08,0,.11.03.11.12l.02.46c.14-.38.41-.68.89-.68.17,0,.29.03.36.08.05.04.06.07.06.14v.4c0,.09-.06.1-.14.08-.1-.02-.2-.04-.29-.04-.66,0-.88.55-.88,1.02v2.21c0,.07-.03.11-.1.11h-.5c-.07,0-.11-.04-.11-.11Z"/>
    <path class="st3" d="M462.58,57.04c0-1.17.78-2.05,1.91-2.05.67,0,1.17.31,1.45.81l.02-.6c0-.07.03-.11.1-.11h.46c.07,0,.11.04.11.11v3.69c0,.07-.04.11-.11.11h-.46c-.07,0-.1-.04-.1-.11l-.02-.58c-.29.49-.78.79-1.45.79-1.13,0-1.91-.88-1.91-2.05ZM464.62,58.43c.77,0,1.3-.55,1.3-1.38s-.54-1.4-1.3-1.4-1.33.57-1.33,1.39.56,1.39,1.33,1.39Z"/>
    <path class="st3" d="M468.16,58.12v-2.45h-.5c-.07,0-.12-.05-.12-.12v-.35c0-.07.05-.11.12-.11h.5v-.93c0-.07.04-.11.11-.11h.5c.07,0,.1.04.1.11v.93h.66c.07,0,.11.04.11.11v.35c0,.07-.04.12-.11.12h-.66v2.36c0,.29.13.4.36.4.06,0,.17,0,.25-.02.11,0,.15.03.15.11v.34c0,.15-.33.19-.55.19-.56,0-.93-.28-.93-.93Z"/>
    <path class="st3" d="M470.48,53.72c0-.24.19-.43.43-.43s.42.19.42.43-.18.43-.42.43-.43-.19-.43-.43ZM470.55,55.19c0-.07.03-.11.1-.11h.5c.07,0,.11.04.11.11v3.69c0,.07-.04.11-.11.11h-.5c-.07,0-.1-.04-.1-.11v-3.69Z"/>
    <path class="st3" d="M472.21,57.04c0-1.17.87-2.05,2.02-2.05s2.01.89,2.01,2.05-.86,2.05-2.01,2.05-2.02-.89-2.02-2.05ZM474.23,58.42c.75,0,1.32-.56,1.32-1.38s-.57-1.39-1.32-1.39-1.32.57-1.32,1.39.56,1.38,1.32,1.38Z"/>
    <path class="st3" d="M477.18,58.88v-3.69c0-.07.04-.11.11-.11h.47c.08,0,.11.03.11.12l.02.5c.22-.4.64-.71,1.27-.71.84,0,1.42.57,1.42,1.6v2.3c0,.07-.04.11-.11.11h-.5c-.07,0-.1-.04-.1-.11v-2.19c0-.66-.33-1.05-.93-1.05s-1.04.39-1.04,1.05v2.19c0,.07-.03.11-.1.11h-.5c-.07,0-.11-.04-.11-.11Z"/>
    <path class="st3" d="M481.61,58.48c-.06-.06-.05-.13,0-.21l.16-.22c.06-.07.13-.07.19,0,.26.26.55.42.94.42s.69-.18.69-.54c0-.32-.21-.46-.56-.61l-.47-.2c-.48-.2-.87-.5-.87-1.06,0-.68.58-1.09,1.25-1.09.46,0,.9.19,1.19.56.05.06.03.12,0,.17l-.19.22c-.06.08-.12.07-.19,0-.25-.25-.5-.36-.77-.36-.33,0-.59.17-.59.48,0,.33.24.46.59.59l.43.18c.5.21.91.52.9,1.13,0,.74-.64,1.14-1.37,1.14-.64,0-1.08-.3-1.33-.61Z"/>
    <path class="st3" d="M486.8,56.22c0-1.62,1.22-2.89,2.85-2.89.78,0,1.42.29,1.91.74.06.06.07.11.02.18l-.32.34c-.05.06-.1.06-.17,0-.39-.34-.86-.54-1.43-.54-1.2,0-2.1.92-2.1,2.16s.9,2.15,2.1,2.15c.58,0,1.04-.21,1.43-.54.06-.06.12-.06.17,0l.32.35c.06.06.04.12-.02.18-.5.46-1.13.75-1.91.75-1.64,0-2.85-1.25-2.85-2.88Z"/>
    <path class="st3" d="M492.21,57.02c0-1.15.81-2.04,1.98-2.04s1.85.89,1.85,1.85c0,.32-.06.46-.33.46h-2.8c.09.7.59,1.2,1.46,1.2.43,0,.76-.12,1.06-.33.05-.03.1-.03.13,0l.18.25c.06.06.03.11-.03.17-.34.34-.85.5-1.4.5-1.28,0-2.09-.92-2.09-2.07ZM495.39,56.76c-.04-.7-.5-1.17-1.21-1.17s-1.2.44-1.28,1.17h2.49Z"/>
    <path class="st3" d="M496.97,58.88v-3.69c0-.07.04-.11.11-.11h.47c.08,0,.11.03.11.12l.02.5c.22-.4.64-.71,1.27-.71.84,0,1.42.57,1.42,1.6v2.3c0,.07-.04.11-.11.11h-.5c-.07,0-.1-.04-.1-.11v-2.19c0-.66-.34-1.05-.94-1.05s-1.04.39-1.04,1.05v2.19c0,.07-.03.11-.1.11h-.5c-.07,0-.11-.04-.11-.11Z"/>
    <path class="st3" d="M501.76,58.12v-2.45h-.5c-.07,0-.12-.05-.12-.12v-.35c0-.07.05-.11.12-.11h.5v-.93c0-.07.04-.11.11-.11h.5c.07,0,.1.04.1.11v.93h.66c.07,0,.11.04.11.11v.35c0,.07-.04.12-.11.12h-.66v2.36c0,.29.13.4.36.4.06,0,.17,0,.25-.02.11,0,.15.03.15.11v.34c0,.15-.33.19-.55.19-.56,0-.93-.28-.93-.93Z"/>
    <path class="st3" d="M504.14,58.88v-3.69c0-.07.04-.11.11-.11h.47c.08,0,.11.03.11.12l.02.46c.14-.38.41-.68.89-.68.17,0,.29.03.36.08.05.04.06.07.06.14v.4c0,.09-.06.1-.14.08-.1-.02-.2-.04-.29-.04-.66,0-.88.55-.88,1.02v2.21c0,.07-.03.11-.1.11h-.5c-.07,0-.11-.04-.11-.11Z"/>
    <path class="st3" d="M506.67,57.02c0-1.15.81-2.04,1.98-2.04s1.85.89,1.85,1.85c0,.32-.06.46-.33.46h-2.8c.09.7.59,1.2,1.46,1.2.43,0,.76-.12,1.06-.33.05-.03.1-.03.13,0l.18.25c.06.06.03.11-.03.17-.34.34-.85.5-1.4.5-1.28,0-2.09-.92-2.09-2.07ZM509.86,56.76c-.04-.7-.5-1.17-1.21-1.17s-1.2.44-1.28,1.17h2.49Z"/>
    <path class="st3" d="M512.83,57.04c0-1.17.78-2.05,1.91-2.05.65,0,1.14.29,1.42.76v-2.35c0-.07.04-.11.11-.11h.5c.07,0,.11.04.11.11v5.49c0,.07-.04.11-.11.11h-.46c-.07,0-.1-.04-.1-.11l-.02-.58c-.29.49-.78.79-1.45.79-1.13,0-1.91-.88-1.91-2.05ZM514.87,58.43c.77,0,1.3-.55,1.3-1.38s-.54-1.4-1.3-1.4-1.33.57-1.33,1.39.56,1.39,1.33,1.39Z"/>
    <path class="st3" d="M518.24,54.22c-.3,0-.5-.2-.5-.48s.22-.49.5-.49c.31,0,.59.26.59.74,0,.64-.51,1.14-1.1,1.13v-.22c.54,0,.76-.67.51-.67Z"/>
    <path class="st3" d="M518.92,57.04c0-1.17.87-2.05,2.02-2.05s2.01.89,2.01,2.05-.86,2.05-2.01,2.05-2.02-.89-2.02-2.05ZM520.94,58.42c.75,0,1.32-.56,1.32-1.38s-.57-1.39-1.32-1.39-1.32.57-1.32,1.39.56,1.38,1.32,1.38Z"/>
    <path class="st3" d="M523.89,60.4v-5.21c0-.07.04-.11.11-.11h.46c.07,0,.1.04.1.11l.02.6c.28-.5.78-.81,1.45-.81,1.13,0,1.91.89,1.91,2.05s-.78,2.05-1.91,2.05c-.65,0-1.14-.29-1.42-.75v2.06c0,.07-.04.11-.11.11h-.5c-.07,0-.11-.04-.11-.11ZM525.91,58.43c.78,0,1.33-.56,1.33-1.39s-.56-1.39-1.33-1.39-1.3.57-1.3,1.4.54,1.38,1.3,1.38Z"/>
    <path class="st3" d="M528.68,57.02c0-1.15.81-2.04,1.98-2.04s1.85.89,1.85,1.85c0,.32-.06.46-.33.46h-2.8c.09.7.59,1.2,1.46,1.2.43,0,.76-.12,1.06-.33.05-.03.1-.03.13,0l.18.25c.06.06.03.11-.03.17-.34.34-.85.5-1.4.5-1.28,0-2.09-.92-2.09-2.07ZM531.87,56.76c-.04-.7-.5-1.17-1.21-1.17s-1.2.44-1.28,1.17h2.49ZM530.83,53.49c.03-.07.07-.1.14-.1h.41c.09,0,.11.06.07.13l-.51.92c-.04.07-.07.1-.14.1h-.4c-.09,0-.11-.06-.07-.13l.5-.92Z"/>
    <path class="st3" d="M533.45,58.88v-3.69c0-.07.04-.11.11-.11h.47c.08,0,.11.03.11.12l.02.46c.14-.38.41-.68.89-.68.17,0,.29.03.36.08.05.04.06.07.06.14v.4c0,.09-.06.1-.14.08-.1-.02-.2-.04-.29-.04-.66,0-.88.55-.88,1.02v2.21c0,.07-.03.11-.1.11h-.5c-.07,0-.11-.04-.11-.11Z"/>
    <path class="st3" d="M535.97,57.04c0-1.17.78-2.05,1.91-2.05.67,0,1.17.31,1.45.81l.02-.6c0-.07.03-.11.1-.11h.46c.07,0,.11.04.11.11v3.69c0,.07-.04.11-.11.11h-.46c-.07,0-.1-.04-.1-.11l-.02-.58c-.29.49-.78.79-1.45.79-1.13,0-1.91-.88-1.91-2.05ZM538.01,58.43c.77,0,1.3-.55,1.3-1.38s-.54-1.4-1.3-1.4-1.33.57-1.33,1.39.56,1.39,1.33,1.39Z"/>
    <path class="st3" d="M541.55,58.12v-2.45h-.5c-.07,0-.12-.05-.12-.12v-.35c0-.07.05-.11.12-.11h.5v-.93c0-.07.04-.11.11-.11h.5c.07,0,.1.04.1.11v.93h.66c.07,0,.11.04.11.11v.35c0,.07-.04.12-.11.12h-.66v2.36c0,.29.13.4.36.4.06,0,.17,0,.25-.02.11,0,.15.03.15.11v.34c0,.15-.33.19-.55.19-.56,0-.93-.28-.93-.93Z"/>
    <path class="st3" d="M543.87,53.72c0-.24.19-.43.43-.43s.42.19.42.43-.18.43-.42.43-.43-.19-.43-.43ZM543.94,55.19c0-.07.03-.11.1-.11h.5c.07,0,.11.04.11.11v3.69c0,.07-.04.11-.11.11h-.5c-.07,0-.1-.04-.1-.11v-3.69Z"/>
    <path class="st3" d="M545.6,57.04c0-1.17.87-2.05,2.02-2.05s2.01.89,2.01,2.05-.86,2.05-2.01,2.05-2.02-.89-2.02-2.05ZM547.62,58.42c.75,0,1.32-.56,1.32-1.38s-.57-1.39-1.32-1.39-1.32.57-1.32,1.39.56,1.38,1.32,1.38Z"/>
    <path class="st3" d="M550.57,58.88v-3.69c0-.07.04-.11.11-.11h.47c.08,0,.11.03.11.12l.02.5c.22-.4.64-.71,1.27-.71.84,0,1.42.57,1.42,1.6v2.3c0,.07-.04.11-.11.11h-.5c-.07,0-.1-.04-.1-.11v-2.19c0-.66-.33-1.05-.93-1.05s-1.04.39-1.04,1.05v2.19c0,.07-.03.11-.1.11h-.5c-.07,0-.11-.04-.11-.11Z"/>
    <path class="st3" d="M555,58.48c-.06-.06-.05-.13,0-.21l.16-.22c.06-.07.13-.07.19,0,.26.26.55.42.94.42s.69-.18.69-.54c0-.32-.21-.46-.56-.61l-.47-.2c-.48-.2-.87-.5-.87-1.06,0-.68.58-1.09,1.25-1.09.46,0,.9.19,1.19.56.05.06.03.12,0,.17l-.19.22c-.06.08-.12.07-.19,0-.25-.25-.5-.36-.77-.36-.33,0-.59.17-.59.48,0,.33.24.46.59.59l.43.18c.5.21.91.52.9,1.13,0,.74-.64,1.14-1.37,1.14-.64,0-1.08-.3-1.33-.61Z"/>
  </g>
  <g>
    <path class="st3" d="M443.54,67.31c-.04-.06-.03-.11.02-.16l.31-.29s.1-.04.14.02c.2.26.53.55,1.06.55.66,0,1.09-.44,1.09-1.04,0-.64-.5-1.05-1.14-1.05h-.16c-.08,0-.11-.03-.11-.1v-.39c0-.07.03-.1.11-.1h.16c.59,0,.94-.41.94-.89s-.35-.84-.88-.84c-.42,0-.73.23-.91.54-.05.07-.1.06-.16.02l-.3-.29s-.05-.09,0-.14c.27-.43.78-.78,1.45-.78.86,0,1.51.58,1.51,1.39,0,.59-.34,1.03-.82,1.26.59.21,1.06.71,1.06,1.47,0,.95-.75,1.64-1.79,1.64-.72,0-1.25-.33-1.57-.79Z"/>
    <path class="st3" d="M447.66,65.22c0-1.88.88-2.89,2.12-2.89s2.12,1.01,2.12,2.89-.88,2.88-2.12,2.88-2.12-1.01-2.12-2.88ZM449.78,67.42c.9,0,1.42-.83,1.42-2.2s-.51-2.21-1.42-2.21-1.42.84-1.42,2.21.5,2.2,1.42,2.2Z"/>
    <path class="st3" d="M452.69,65.22c0-1.88.88-2.89,2.12-2.89s2.12,1.01,2.12,2.89-.88,2.88-2.12,2.88-2.12-1.01-2.12-2.88ZM454.8,67.42c.9,0,1.42-.83,1.42-2.2s-.51-2.21-1.42-2.21-1.42.84-1.42,2.21.5,2.2,1.42,2.2Z"/>
    <path class="st3" d="M459.48,67.88v-3.69c0-.07.04-.11.11-.11h.47c.08,0,.11.03.11.12l.02.46c.14-.38.41-.68.89-.68.17,0,.29.03.36.08.05.04.06.07.06.14v.4c0,.09-.06.1-.14.08-.1-.02-.2-.04-.29-.04-.66,0-.88.55-.88,1.02v2.21c0,.07-.03.11-.1.11h-.5c-.07,0-.11-.04-.11-.11Z"/>
    <path class="st3" d="M462.38,66.48v-2.29c0-.07.04-.11.11-.11h.5c.07,0,.1.04.1.11v2.19c0,.66.34,1.04.94,1.04s1.04-.38,1.04-1.04v-2.19c0-.07.03-.11.1-.11h.5c.07,0,.11.04.11.11v3.69c0,.07-.04.11-.11.11h-.47c-.08,0-.1-.03-.11-.12l-.02-.5c-.22.4-.64.71-1.27.71-.84,0-1.42-.57-1.42-1.61Z"/>
    <path class="st3" d="M466.73,66.02c0-1.15.81-2.04,1.98-2.04s1.85.89,1.85,1.85c0,.32-.06.46-.33.46h-2.8c.09.7.59,1.2,1.46,1.2.43,0,.76-.12,1.06-.33.05-.03.1-.03.13,0l.18.25c.06.06.03.11-.03.17-.34.34-.85.5-1.4.5-1.28,0-2.09-.92-2.09-2.07ZM469.92,65.76c-.04-.7-.5-1.17-1.21-1.17s-1.2.44-1.28,1.17h2.49Z"/>
    <path class="st3" d="M476,67.92l-1.3-2h-.77v1.97c0,.07-.04.11-.11.11h-.52c-.07,0-.12-.04-.12-.11v-5.37c0-.07.05-.11.12-.11h1.57c1.24,0,1.88.73,1.88,1.76,0,.86-.44,1.5-1.3,1.7l1.34,2c.06.09.02.14-.08.14h-.55c-.06,0-.11-.02-.14-.08ZM474.81,65.25c.66,0,1.2-.28,1.2-1.1s-.54-1.1-1.2-1.1h-.89v2.19h.89Z"/>
    <path class="st3" d="M477.33,66.04c0-1.17.87-2.05,2.02-2.05s2.01.89,2.01,2.05-.86,2.05-2.01,2.05-2.02-.89-2.02-2.05ZM479.36,67.42c.75,0,1.32-.56,1.32-1.38s-.57-1.39-1.32-1.39-1.32.57-1.32,1.39.56,1.38,1.32,1.38Z"/>
    <path class="st3" d="M483,67.3l-.02.58c0,.07-.03.11-.1.11h-.46c-.07,0-.11-.04-.11-.11v-5.49c0-.07.04-.11.11-.11h.5c.07,0,.11.04.11.11v2.35c.28-.47.77-.76,1.42-.76,1.13,0,1.91.89,1.91,2.05s-.78,2.05-1.91,2.05c-.67,0-1.16-.3-1.45-.79ZM484.32,67.43c.78,0,1.33-.56,1.33-1.39s-.56-1.39-1.33-1.39-1.3.57-1.3,1.4.54,1.38,1.3,1.38Z"/>
    <path class="st3" d="M487.1,66.02c0-1.15.81-2.04,1.98-2.04s1.85.89,1.85,1.85c0,.32-.06.46-.33.46h-2.8c.09.7.59,1.2,1.46,1.2.43,0,.76-.12,1.06-.33.05-.03.1-.03.13,0l.18.25c.06.06.03.11-.03.17-.34.34-.85.5-1.4.5-1.28,0-2.09-.92-2.09-2.07ZM490.29,65.76c-.04-.7-.5-1.17-1.21-1.17s-1.2.44-1.28,1.17h2.49Z"/>
    <path class="st3" d="M491.87,67.88v-3.69c0-.07.04-.11.11-.11h.47c.08,0,.11.03.11.12l.02.46c.14-.38.41-.68.89-.68.17,0,.29.03.36.08.05.04.06.07.06.14v.4c0,.09-.06.1-.14.08-.1-.02-.2-.04-.29-.04-.66,0-.88.55-.88,1.02v2.21c0,.07-.03.11-.1.11h-.5c-.07,0-.11-.04-.11-.11Z"/>
    <path class="st3" d="M495.24,67.12v-2.45h-.5c-.07,0-.12-.05-.12-.12v-.35c0-.07.05-.11.12-.11h.5v-.93c0-.07.04-.11.11-.11h.5c.07,0,.1.04.1.11v.93h.66c.07,0,.11.04.11.11v.35c0,.07-.04.12-.11.12h-.66v2.36c0,.29.13.4.36.4.06,0,.17,0,.25-.02.11,0,.15.03.15.11v.34c0,.15-.33.19-.55.19-.56,0-.93-.28-.93-.93Z"/>
    <path class="st3" d="M497.45,67.48c-.06-.06-.05-.13,0-.21l.16-.22c.06-.07.13-.07.19,0,.26.26.55.42.94.42s.69-.18.69-.54c0-.32-.21-.46-.56-.61l-.47-.2c-.48-.2-.87-.5-.87-1.06,0-.68.58-1.09,1.25-1.09.46,0,.9.19,1.19.56.05.06.03.12,0,.17l-.19.22c-.06.08-.12.07-.19,0-.25-.25-.5-.36-.77-.36-.33,0-.59.17-.59.48,0,.33.24.46.59.59l.43.18c.5.21.91.52.9,1.13,0,.74-.64,1.14-1.37,1.14-.64,0-1.08-.3-1.33-.61Z"/>
    <path class="st3" d="M500.89,66.04c0-1.17.87-2.05,2.02-2.05s2.01.89,2.01,2.05-.86,2.05-2.01,2.05-2.02-.89-2.02-2.05ZM502.92,67.42c.75,0,1.32-.56,1.32-1.38s-.57-1.39-1.32-1.39-1.32.57-1.32,1.39.56,1.38,1.32,1.38Z"/>
    <path class="st3" d="M505.87,67.88v-3.69c0-.07.04-.11.11-.11h.47c.08,0,.11.03.11.12l.02.5c.22-.4.64-.71,1.27-.71.84,0,1.42.57,1.42,1.6v2.3c0,.07-.04.11-.11.11h-.5c-.07,0-.1-.04-.1-.11v-2.19c0-.66-.33-1.05-.93-1.05s-1.04.39-1.04,1.05v2.19c0,.07-.03.11-.1.11h-.5c-.07,0-.11-.04-.11-.11Z"/>
    <path class="st3" d="M511.9,67.25c-.04-.06-.04-.11.02-.18l.26-.3c.06-.06.13-.05.18,0,.3.38.67.62,1.23.62.66,0,1.05-.34,1.05-.87s-.4-.77-.92-1.02l-.68-.33c-.59-.27-1.02-.7-1.02-1.41,0-.9.71-1.45,1.6-1.45.65,0,1.15.27,1.53.72.07.07.06.12,0,.18l-.26.3c-.06.07-.12.07-.18,0-.32-.34-.64-.52-1.07-.52-.51,0-.9.26-.9.75,0,.39.23.62.71.85l.63.3c.65.31,1.28.7,1.28,1.61,0,1-.78,1.56-1.77,1.56-.83,0-1.39-.39-1.7-.84Z"/>
    <path class="st3" d="M516.6,67.12v-2.45h-.5c-.07,0-.12-.05-.12-.12v-.35c0-.07.05-.11.12-.11h.5v-.93c0-.07.04-.11.11-.11h.5c.07,0,.1.04.1.11v.93h.66c.07,0,.11.04.11.11v.35c0,.07-.04.12-.11.12h-.66v2.36c0,.29.13.4.36.4.06,0,.17,0,.25-.02.11,0,.15.03.15.11v.34c0,.15-.33.19-.55.19-.56,0-.93-.28-.93-.93Z"/>
    <path class="st3" d="M518.98,67.88v-3.69c0-.07.04-.11.11-.11h.47c.08,0,.11.03.11.12l.02.46c.14-.38.41-.68.89-.68.17,0,.29.03.36.08.05.04.06.07.06.14v.4c0,.09-.06.1-.14.08-.1-.02-.2-.04-.29-.04-.66,0-.88.55-.88,1.02v2.21c0,.07-.03.11-.1.11h-.5c-.07,0-.11-.04-.11-.11Z"/>
    <path class="st3" d="M521.5,66.02c0-1.15.81-2.04,1.98-2.04s1.85.89,1.85,1.85c0,.32-.06.46-.33.46h-2.8c.09.7.59,1.2,1.46,1.2.43,0,.76-.12,1.06-.33.05-.03.1-.03.13,0l.18.25c.06.06.03.11-.03.17-.34.34-.85.5-1.4.5-1.28,0-2.09-.92-2.09-2.07ZM524.69,65.76c-.04-.7-.5-1.17-1.21-1.17s-1.2.44-1.28,1.17h2.49Z"/>
    <path class="st3" d="M526.07,66.02c0-1.15.81-2.04,1.98-2.04s1.85.89,1.85,1.85c0,.32-.06.46-.33.46h-2.8c.09.7.59,1.2,1.46,1.2.43,0,.76-.12,1.06-.33.05-.03.1-.03.13,0l.18.25c.06.06.03.11-.03.17-.34.34-.85.5-1.4.5-1.28,0-2.09-.92-2.09-2.07ZM529.26,65.76c-.04-.7-.5-1.17-1.21-1.17s-1.2.44-1.28,1.17h2.49Z"/>
    <path class="st3" d="M531.14,67.12v-2.45h-.5c-.07,0-.12-.05-.12-.12v-.35c0-.07.05-.11.12-.11h.5v-.93c0-.07.04-.11.11-.11h.5c.07,0,.1.04.1.11v.93h.66c.07,0,.11.04.11.11v.35c0,.07-.04.12-.11.12h-.66v2.36c0,.29.13.4.36.4.06,0,.17,0,.25-.02.11,0,.15.03.15.11v.34c0,.15-.33.19-.55.19-.56,0-.93-.28-.93-.93Z"/>
  </g>
  <g>
    <path class="st3" d="M446.68,76.92l-1.3-2h-.77v1.97c0,.07-.04.11-.11.11h-.52c-.07,0-.12-.04-.12-.11v-5.37c0-.07.05-.11.12-.11h1.57c1.24,0,1.88.73,1.88,1.76,0,.86-.44,1.5-1.3,1.7l1.34,2c.06.09.02.14-.08.14h-.55c-.06,0-.11-.02-.14-.08ZM445.49,74.25c.66,0,1.2-.28,1.2-1.1s-.54-1.1-1.2-1.1h-.89v2.19h.89Z"/>
    <path class="st3" d="M448.39,71.72c0-.24.19-.43.43-.43s.42.19.42.43-.18.43-.42.43-.43-.19-.43-.43ZM448.46,73.19c0-.07.03-.11.1-.11h.5c.07,0,.11.04.11.11v3.69c0,.07-.04.11-.11.11h-.5c-.07,0-.1-.04-.1-.11v-3.69Z"/>
    <path class="st3" d="M451.56,76.9l-1.46-3.69c-.03-.09,0-.14.09-.14h.51c.06,0,.1.03.13.1l1.14,3.01,1.13-3.01c.02-.06.06-.1.13-.1h.51c.09,0,.12.05.09.14l-1.46,3.69c-.02.06-.08.1-.14.1h-.51c-.06,0-.12-.03-.14-.1Z"/>
    <path class="st3" d="M454.26,75.02c0-1.15.81-2.04,1.98-2.04s1.85.89,1.85,1.85c0,.32-.06.46-.33.46h-2.8c.09.7.59,1.2,1.46,1.2.43,0,.76-.12,1.06-.33.05-.03.1-.03.13,0l.18.25c.06.06.03.11-.03.17-.34.34-.85.5-1.4.5-1.28,0-2.09-.92-2.09-2.07ZM457.45,74.76c-.04-.7-.5-1.17-1.21-1.17s-1.2.44-1.28,1.17h2.49Z"/>
    <path class="st3" d="M459.03,76.88v-3.69c0-.07.04-.11.11-.11h.47c.08,0,.11.03.11.12l.02.46c.14-.38.41-.68.89-.68.17,0,.29.03.36.08.05.04.06.07.06.14v.4c0,.09-.06.1-.14.08-.1-.02-.2-.04-.29-.04-.66,0-.88.55-.88,1.02v2.21c0,.07-.03.11-.1.11h-.5c-.07,0-.11-.04-.11-.11Z"/>
    <path class="st3" d="M463.17,76.9l-1.46-3.69c-.03-.09,0-.14.09-.14h.51c.06,0,.1.03.13.1l1.14,3.01,1.13-3.01c.02-.06.06-.1.13-.1h.51c.09,0,.12.05.09.14l-1.46,3.69c-.02.06-.08.1-.14.1h-.51c-.06,0-.12-.03-.14-.1Z"/>
    <path class="st3" d="M466.29,71.72c0-.24.19-.43.43-.43s.42.19.42.43-.18.43-.42.43-.43-.19-.43-.43ZM466.36,73.19c0-.07.03-.11.1-.11h.5c.07,0,.11.04.11.11v3.69c0,.07-.04.11-.11.11h-.5c-.07,0-.1-.04-.1-.11v-3.69Z"/>
    <path class="st3" d="M468.01,75.02c0-1.15.81-2.04,1.98-2.04s1.85.89,1.85,1.85c0,.32-.06.46-.33.46h-2.8c.09.7.59,1.2,1.46,1.2.43,0,.76-.12,1.06-.33.05-.03.1-.03.13,0l.18.25c.06.06.03.11-.03.17-.34.34-.85.5-1.4.5-1.28,0-2.09-.92-2.09-2.07ZM471.2,74.76c-.04-.7-.5-1.17-1.21-1.17s-1.2.44-1.28,1.17h2.49Z"/>
    <path class="st3" d="M473.55,76.9l-1.27-3.69c-.03-.09,0-.14.09-.14h.5c.06,0,.1.03.13.1l.99,3.01,1.04-3.01c.02-.06.08-.1.14-.1h.52c.06,0,.12.03.14.1l1.03,3.01.99-3.01c.02-.06.07-.1.14-.1h.49c.09,0,.13.05.1.14l-1.27,3.69c-.02.06-.08.1-.14.1h-.54c-.06,0-.12-.03-.14-.1l-1.05-3.01-1.05,3.01c-.02.06-.08.1-.14.1h-.54c-.06,0-.12-.03-.14-.1Z"/>
    <path class="st3" d="M478.99,77.11c-.3,0-.5-.2-.5-.48s.22-.49.5-.49c.31,0,.59.26.59.74,0,.64-.51,1.14-1.1,1.13v-.22c.54,0,.76-.67.51-.67Z"/>
    <path class="st3" d="M485.29,76.92l-2.44-4.39v4.36c0,.07-.04.11-.11.11h-.52c-.07,0-.12-.04-.12-.11v-5.37c0-.07.05-.11.12-.11h.66c.06,0,.11.02.14.08l2.45,4.41v-4.37c0-.07.05-.11.12-.11h.52c.07,0,.11.04.11.11v5.37c0,.07-.04.11-.11.11h-.67c-.06,0-.11-.02-.14-.08Z"/>
    <path class="st3" d="M487.52,76.88v-5.37c0-.07.05-.11.12-.11h1.69c1.1,0,1.53.68,1.53,1.37,0,.54-.28,1.01-.79,1.2.69.16,1.13.71,1.13,1.46,0,.92-.62,1.57-1.9,1.57h-1.66c-.07,0-.12-.04-.12-.11ZM489.22,73.72c.56,0,.92-.3.92-.86s-.36-.79-.92-.79h-.96v1.66h.96ZM489.24,76.33c.78,0,1.19-.34,1.19-1s-.42-1.02-1.19-1.02h-.98v2.01h.98Z"/>
    <path class="st3" d="M493.8,76.88v-5.37c0-.07.05-.11.12-.11h2.72c.07,0,.12.04.12.11v.44c0,.07-.05.11-.12.11h-2.09v1.73h1.98c.07,0,.11.04.11.11v.44c0,.07-.04.11-.11.11h-1.98v1.87h2.09c.07,0,.11.05.11.12v.44c0,.07-.04.11-.11.11h-2.73c-.07,0-.12-.04-.12-.11Z"/>
    <path class="st3" d="M498.63,76.88v-4.86h-.87c-.07,0-.1-.04-.1-.11v-.4c0-.07.03-.11.1-.11h1.49c.07,0,.1.04.1.11v5.37c0,.07-.03.11-.1.11h-.5c-.07,0-.11-.04-.11-.11Z"/>
    <path class="st3" d="M500.51,76.88v-5.37c0-.07.05-.11.12-.11h1.69c1.1,0,1.53.68,1.53,1.37,0,.54-.28,1.01-.79,1.2.69.16,1.13.71,1.13,1.46,0,.92-.62,1.57-1.9,1.57h-1.66c-.07,0-.12-.04-.12-.11ZM502.21,73.72c.56,0,.92-.3.92-.86s-.36-.79-.92-.79h-.96v1.66h.96ZM502.24,76.33c.78,0,1.19-.34,1.19-1s-.42-1.02-1.19-1.02h-.98v2.01h.98Z"/>
    <path class="st3" d="M506.54,74.22c0-1.88.88-2.89,2.12-2.89s2.12,1.01,2.12,2.89-.88,2.88-2.12,2.88-2.12-1.01-2.12-2.88ZM508.66,76.42c.9,0,1.42-.83,1.42-2.2s-.51-2.21-1.42-2.21-1.42.84-1.42,2.21.5,2.2,1.42,2.2Z"/>
    <path class="st3" d="M512.95,76.88v-4.82h-1.17c-.07,0-.12-.04-.12-.11v-.44c0-.07.05-.11.12-.11h3.08c.07,0,.11.04.11.11v.44c0,.07-.04.11-.11.11h-1.17v4.82c0,.07-.04.11-.11.11h-.52c-.07,0-.11-.04-.11-.11Z"/>
    <path class="st3" d="M515.86,75.41c0-.78.48-1.32,1.05-1.54-.45-.23-.71-.67-.71-1.18,0-.74.58-1.37,1.48-1.37s1.48.62,1.48,1.37c0,.5-.26.94-.71,1.18.57.22,1.05.76,1.05,1.54,0,1.02-.82,1.69-1.81,1.69s-1.82-.67-1.82-1.69ZM517.68,76.44c.64,0,1.11-.43,1.11-1.07s-.51-1.09-1.11-1.09-1.11.42-1.11,1.09.47,1.07,1.11,1.07ZM517.68,73.6c.5,0,.84-.37.84-.85s-.34-.83-.84-.83-.84.35-.84.83.35.85.84.85Z"/>
  </g>
  <g>
    <path class="st3" d="M444.48,86.96c-.55-.98-.8-2.28-.8-3.52,0-1.17.27-2.4.8-3.32.03-.06.08-.08.14-.08h.46c.09,0,.13.06.08.14-.48.91-.75,2.05-.75,3.25,0,1.28.27,2.49.76,3.45.04.09,0,.14-.09.14h-.46c-.06,0-.11-.02-.14-.08Z"/>
    <path class="st3" d="M446.1,85.34c-.04-.08-.03-.13.02-.17l.34-.27c.06-.04.12-.02.17.04.2.25.54.49,1.03.49.7,0,1.23-.51,1.23-1.26s-.53-1.21-1.19-1.21c-.32,0-.7.11-.96.45-.05.06-.11.06-.2.03l-.32-.14c-.08-.03-.1-.07-.08-.14l.58-2.65c.02-.06.06-.1.13-.1h2.27c.07,0,.1.04.1.11v.4c0,.07-.03.11-.1.11h-1.85l-.34,1.58c.22-.14.55-.26.93-.26.97,0,1.74.75,1.74,1.86,0,1.17-.86,1.91-1.92,1.91-.78,0-1.33-.4-1.58-.76Z"/>
    <path class="st3" d="M450.36,83.22c0-1.88.88-2.89,2.12-2.89s2.12,1.01,2.12,2.89-.88,2.88-2.12,2.88-2.12-1.01-2.12-2.88ZM452.48,85.42c.9,0,1.42-.83,1.42-2.2s-.51-2.21-1.42-2.21-1.42.84-1.42,2.21.5,2.2,1.42,2.2Z"/>
    <path class="st3" d="M455.36,84.24c0-.5.18-.96.58-1.47l1.89-2.46c.05-.06.1-.08.15-.03l.36.31c.06.05.06.09.02.15l-1.4,1.76c.1-.06.26-.1.45-.1.87,0,1.68.76,1.68,1.83s-.79,1.87-1.87,1.87-1.85-.82-1.85-1.86ZM457.22,85.43c.66,0,1.16-.5,1.16-1.21s-.5-1.21-1.16-1.21-1.16.5-1.16,1.21.5,1.21,1.16,1.21Z"/>
    <path class="st3" d="M459.93,86.89c.49-.97.76-2.17.76-3.45,0-1.21-.27-2.34-.75-3.25-.05-.09,0-.14.08-.14h.46c.06,0,.11.02.14.08.53.92.8,2.15.8,3.32,0,1.24-.25,2.54-.8,3.52-.03.06-.08.08-.14.08h-.46c-.09,0-.13-.06-.09-.14Z"/>
    <path class="st3" d="M463.83,85.31c-.04-.06-.03-.11.02-.16l.31-.29s.1-.04.14.02c.2.26.53.55,1.06.55.66,0,1.09-.44,1.09-1.04,0-.64-.5-1.05-1.14-1.05h-.16c-.08,0-.11-.03-.11-.1v-.39c0-.07.03-.1.11-.1h.16c.59,0,.94-.41.94-.89s-.35-.84-.88-.84c-.42,0-.73.23-.91.54-.05.07-.1.06-.16.02l-.3-.29s-.05-.09,0-.14c.27-.43.78-.78,1.45-.78.86,0,1.51.58,1.51,1.39,0,.59-.34,1.03-.82,1.26.59.21,1.06.71,1.06,1.47,0,.95-.75,1.64-1.79,1.64-.72,0-1.25-.33-1.57-.79Z"/>
    <path class="st3" d="M467.95,84.41c0-.78.48-1.32,1.05-1.54-.45-.23-.71-.67-.71-1.18,0-.74.58-1.37,1.48-1.37s1.48.62,1.48,1.37c0,.5-.26.94-.71,1.18.57.22,1.05.76,1.05,1.54,0,1.02-.82,1.69-1.81,1.69s-1.82-.67-1.82-1.69ZM469.76,85.44c.64,0,1.11-.43,1.11-1.07s-.51-1.09-1.11-1.09-1.11.42-1.11,1.09.47,1.07,1.11,1.07ZM469.76,82.6c.5,0,.84-.37.84-.85s-.34-.83-.84-.83-.84.35-.84.83.35.85.84.85Z"/>
    <path class="st3" d="M472.34,85.88v-.41c0-.06.02-.11.06-.15l1.72-1.99c.32-.37.73-.82.73-1.38s-.39-.95-1-.95c-.57,0-.84.34-1.02.62-.05.06-.11.06-.16,0l-.3-.28c-.06-.06-.06-.1,0-.18.28-.43.75-.83,1.54-.83,1.02,0,1.66.7,1.66,1.56,0,.74-.46,1.25-.78,1.62l-1.58,1.85h2.23c.07,0,.11.04.11.11v.4c0,.07-.04.11-.11.11h-2.97c-.07,0-.11-.04-.11-.11Z"/>
    <path class="st3" d="M476.47,83.94v-.39c0-.07.03-.1.1-.1h2.4c.07,0,.1.03.1.1v.39c0,.07-.03.11-.1.11h-2.4c-.07,0-.1-.04-.1-.11Z"/>
    <path class="st3" d="M479.85,85.31c-.04-.06-.03-.11.02-.16l.31-.29s.1-.04.14.02c.2.26.53.55,1.06.55.66,0,1.09-.44,1.09-1.04,0-.64-.5-1.05-1.14-1.05h-.16c-.08,0-.11-.03-.11-.1v-.39c0-.07.03-.1.11-.1h.16c.59,0,.94-.41.94-.89s-.35-.84-.88-.84c-.42,0-.73.23-.91.54-.05.07-.1.06-.16.02l-.3-.29s-.05-.09,0-.14c.27-.43.78-.78,1.45-.78.86,0,1.51.58,1.51,1.39,0,.59-.34,1.03-.82,1.26.59.21,1.06.71,1.06,1.47,0,.95-.75,1.64-1.79,1.64-.72,0-1.25-.33-1.57-.79Z"/>
    <path class="st3" d="M484.02,85.34c-.04-.08-.03-.13.02-.17l.34-.27c.06-.04.12-.02.17.04.2.25.54.49,1.03.49.7,0,1.23-.51,1.23-1.26s-.53-1.21-1.19-1.21c-.32,0-.7.11-.96.45-.05.06-.11.06-.2.03l-.32-.14c-.08-.03-.1-.07-.08-.14l.58-2.65c.02-.06.06-.1.13-.1h2.27c.07,0,.1.04.1.11v.4c0,.07-.03.11-.1.11h-1.85l-.34,1.58c.22-.14.55-.26.93-.26.97,0,1.74.75,1.74,1.86,0,1.17-.86,1.91-1.92,1.91-.78,0-1.33-.4-1.57-.76Z"/>
    <path class="st3" d="M488.8,85.86l2.02-4.84h-2.51c-.07,0-.1-.04-.1-.11v-.4c0-.07.03-.11.1-.11h3.29c.07,0,.11.06.08.14l-2.17,5.33c-.02.07-.06.12-.14.12h-.49c-.08,0-.11-.06-.08-.14Z"/>
    <path class="st3" d="M494.25,85.88v-1.15h-2.25c-.07,0-.12-.05-.12-.12v-.43s0-.08.03-.13l2.29-3.57c.04-.06.08-.08.14-.08h.51c.07,0,.11.05.11.12v3.6h.57c.07,0,.1.05.1.12v.38c0,.07-.02.11-.1.11h-.57v1.15c0,.07-.03.11-.1.11h-.5c-.07,0-.11-.04-.11-.11ZM494.25,84.12v-2.61l-1.66,2.61h1.66Z"/>
  </g>
</svg>