<svg xmlns="http://www.w3.org/2000/svg" version="1.1" viewBox="0 0 340 72" preserveAspectRatio="xMinYMid">
  <line x1="189.8" y1="0" x2="189.8" y2="71.64" style="stroke: rgb(19, 45, 68); stroke-width: 0.25px;"/>
  <path d="M 223.61 53.025 C 221.436 53.025 219.839 52.099 218.855 50.561 L 218.82 50.532 L 218.82 58.102 L 216.04 58.102 L 216.04 38.931 L 218.701 38.931 L 218.701 41.107 L 218.759 41.107 C 219.887 39.532 221.723 38.619 223.66 38.67 C 227.721 38.67 230.312 41.717 230.312 45.806 C 230.312 49.896 227.697 53.025 223.61 53.025 Z M 223.078 40.927 C 220.324 40.927 218.698 43.015 218.698 45.772 C 218.698 48.528 220.332 50.649 223.078 50.649 C 225.824 50.649 227.457 48.52 227.457 45.777 C 227.457 43.034 225.84 40.927 223.078 40.927 Z" style="fill: rgb(73, 88, 91);"/>
  <path d="M 233.817 52.708 L 233.817 32.697 L 236.573 32.697 L 236.573 52.708 L 233.817 52.708 Z" style="fill: rgb(73, 88, 91);"/>
  <path d="M 249.247 52.708 L 249.217 50.968 C 248.666 51.548 247.355 53.025 244.838 53.025 C 242.321 53.025 240.083 51.429 240.083 48.768 C 240.083 46.107 242.286 44.707 245.476 44.564 L 249.153 44.412 L 249.153 43.853 C 249.153 41.767 247.733 40.722 245.732 40.722 C 244.269 40.753 242.84 41.163 241.583 41.911 L 240.743 40.048 C 242.316 39.152 244.093 38.673 245.905 38.657 C 249.936 38.657 251.939 40.687 251.939 44.689 L 251.939 52.695 L 249.247 52.708 Z M 245.96 46.299 C 243.728 46.413 242.829 47.363 242.829 48.677 C 242.829 49.992 243.845 51.053 245.67 51.053 C 247.496 51.053 248.659 49.837 249.18 49.053 L 249.18 46.096 L 245.96 46.299 Z" style="fill: rgb(73, 88, 91);"/>
  <path d="M 264.647 52.708 L 264.647 45.021 C 264.647 42.701 264.24 40.961 261.776 40.961 C 259.195 40.961 258.237 43.138 258.237 45.777 L 258.237 52.708 L 255.454 52.708 L 255.454 38.931 L 258.237 38.931 L 258.208 41.107 L 258.296 41.107 C 259.128 39.57 260.752 38.628 262.5 38.67 C 266.417 38.67 267.43 41.251 267.43 44.558 L 267.43 52.708 L 264.647 52.708 Z" style="fill: rgb(73, 88, 91);"/>
  <path d="M 280.891 52.943 C 277.791 52.943 275.74 51.745 274.907 50.569 L 276.937 47.685 C 277.898 48.861 279.598 49.281 280.569 49.281 C 281.541 49.281 282.432 48.749 282.432 47.892 C 282.432 47.036 281.748 46.61 280.785 46.61 L 279.29 46.61 L 279.29 43.417 L 280.785 43.417 C 281.533 43.417 282.067 43.098 282.067 42.353 C 282.067 41.608 281.426 41.288 280.572 41.288 C 279.304 41.309 278.073 41.719 277.046 42.464 L 275.45 39.365 C 276.514 38.617 278.012 37.768 280.942 37.768 C 283.871 37.768 286.604 39.264 286.604 41.829 C 286.604 43.537 285.806 44.394 284.741 44.926 C 286.176 45.381 287.135 46.733 287.091 48.238 C 287.086 51.426 283.988 52.943 280.891 52.943 Z" style="fill: rgb(73, 88, 91);"/>
  <path d="M 295.249 52.943 C 291.468 52.943 288.69 50.165 288.69 45.463 C 288.69 40.762 291.146 37.747 295.741 37.747 C 297.984 37.747 299.802 38.516 300.656 39.157 L 299.059 42.257 C 299.059 42.257 297.564 41.358 295.959 41.358 C 294.355 41.358 293.299 42.257 293.299 44.072 C 293.511 43.859 294.472 43.007 296.715 43.007 C 298.958 43.007 301.238 44.503 301.238 47.493 C 301.238 50.484 299.054 52.943 295.249 52.943 Z M 295.036 46.104 C 293.76 46.111 292.969 47.496 293.613 48.598 C 294.256 49.7 295.851 49.692 296.484 48.584 C 296.625 48.336 296.7 48.056 296.702 47.77 C 296.715 46.845 295.961 46.091 295.036 46.104 Z" style="fill: rgb(73, 88, 91);"/>
  <path d="M 309.396 52.964 C 304.759 52.964 302.835 49.311 302.835 45.357 C 302.835 41.403 304.759 37.75 309.396 37.75 C 314.034 37.75 315.976 41.403 315.976 45.357 C 315.976 49.311 314.055 52.964 309.396 52.964 Z M 309.396 41.767 C 307.965 41.767 307.534 43.364 307.534 45.293 C 307.534 47.222 307.962 48.861 309.396 48.861 C 310.831 48.861 311.278 47.217 311.278 45.293 C 311.278 43.369 310.849 41.767 309.396 41.767 Z" style="fill: rgb(73, 88, 91);"/>
  <path d="M 257.825 21.724 L 251.439 25.896 L 251.439 34.602 C 251.439 35.012 251.883 35.268 252.237 35.063 C 252.402 34.968 252.503 34.792 252.503 34.602 L 252.503 26.47 L 257.897 22.948 L 263.567 25.773 C 263.648 25.422 263.75 25.075 263.873 24.736 L 257.825 21.724 Z" style="fill: rgb(192, 207, 41); stroke: none; stroke-width: 1px;"/>
  <path d="M 276.027 12.477 L 276.027 19.967 C 276.411 20.353 276.767 20.744 277.092 21.136 L 277.092 13.542 L 288.001 13.542 L 288.001 34.487 C 288.001 34.897 288.444 35.153 288.799 34.948 C 288.964 34.853 289.065 34.678 289.065 34.487 L 289.065 12.477 L 276.027 12.477 Z" style="fill: rgb(163, 218, 212); font-family: &quot;system-ui&quot;, -apple-system, Inter, Roboto, &quot;Helvetica Neue&quot;, &quot;Lucida Grande&quot;, Arial, sans-serif; font-size: 15px; font-weight: 400; line-height: 24px;"/>
  <path d="M 279.111 24.43 C 278.612 23.234 277.931 22.123 277.092 21.136 C 276.767 20.744 276.411 20.353 276.027 19.967 C 274.959 18.905 273.802 17.935 272.568 17.07 C 272.301 16.87 271.985 16.747 271.653 16.713 C 271.586 16.707 271.518 16.707 271.451 16.713 C 271.118 16.743 270.799 16.863 270.53 17.062 C 267.21 19.443 265.012 21.915 263.995 24.43 C 263.953 24.536 263.913 24.642 263.873 24.749 C 263.75 25.088 263.648 25.435 263.567 25.787 C 263.44 26.33 263.375 26.886 263.373 27.444 C 263.374 27.829 263.404 28.214 263.463 28.594 C 264.304 33.915 270.695 37.012 270.967 37.14 L 271.012 37.159 L 271.012 42.986 C 271.012 43.396 271.455 43.652 271.81 43.447 C 271.975 43.352 272.076 43.176 272.076 42.986 L 272.076 37.159 L 272.121 37.14 C 272.387 37.012 278.773 33.913 279.625 28.594 C 279.684 28.214 279.714 27.829 279.715 27.444 C 279.711 26.41 279.506 25.386 279.111 24.43 Z M 278.592 28.421 C 277.943 32.529 273.473 35.222 272.087 35.967 L 272.087 32.508 C 272.099 32.504 272.11 32.498 272.121 32.492 L 275.346 30.302 C 275.6 30.129 275.572 29.746 275.295 29.613 C 275.166 29.551 275.014 29.562 274.897 29.642 L 272.087 31.55 L 272.087 27.189 L 275.705 24.728 C 275.969 24.57 275.962 24.186 275.694 24.037 C 275.555 23.96 275.385 23.972 275.258 24.068 L 272.087 26.223 L 272.087 21.857 C 272.087 21.447 271.643 21.191 271.289 21.396 C 271.124 21.491 271.022 21.667 271.022 21.857 L 271.022 26.22 L 267.853 24.068 C 267.609 23.882 267.255 24.03 267.216 24.335 C 267.196 24.492 267.27 24.646 267.406 24.728 L 271.022 27.186 L 271.022 31.542 L 268.215 29.637 C 267.939 29.503 267.621 29.719 267.644 30.025 C 267.651 30.13 267.7 30.228 267.779 30.297 L 271.004 32.486 L 271.036 32.486 L 271.036 35.946 C 269.649 35.2 265.182 32.508 264.527 28.4 C 264.477 28.074 264.451 27.745 264.45 27.415 C 264.46 26.516 264.646 25.628 264.996 24.799 C 265.935 22.49 268.01 20.175 271.161 17.919 C 271.275 17.833 271.41 17.78 271.552 17.764 L 271.581 17.764 C 271.723 17.78 271.858 17.833 271.972 17.919 C 275.125 20.175 277.198 22.49 278.137 24.799 C 278.487 25.628 278.672 26.516 278.683 27.415 C 278.679 27.752 278.649 28.088 278.592 28.421 Z" style="fill: rgb(145, 180, 81);"/>
  <path d="M 69.375 60.721 C 69.684 60.721 69.953 60.621 69.953 60.24 C 69.953 59.864 69.684 59.765 69.375 59.765 L 68.979 59.765 L 68.979 60.721 L 69.375 60.721 Z M 69.988 62.442 L 69.238 61.324 L 68.979 61.324 L 68.979 62.418 C 68.979 62.46 68.949 62.489 68.902 62.489 L 68.329 62.489 C 68.284 62.489 68.253 62.46 68.253 62.418 L 68.253 59.232 C 68.253 59.189 68.284 59.161 68.329 59.161 L 69.4 59.161 C 70.244 59.161 70.648 59.603 70.648 60.24 C 70.648 60.725 70.42 61.092 69.943 61.247 L 70.741 62.404 C 70.775 62.455 70.75 62.489 70.689 62.489 L 70.081 62.489 C 70.041 62.489 70.009 62.475 69.988 62.442" style="fill: rgb(21, 45, 67); fill-opacity: 1; clip-path: url(&quot;#clippath0&quot;);"/>
  <path d="M 71.417 62.418 L 71.417 59.232 C 71.417 59.19 71.447 59.161 71.492 59.161 L 73.298 59.161 C 73.345 59.161 73.375 59.19 73.375 59.232 L 73.375 59.694 C 73.375 59.737 73.345 59.765 73.298 59.765 L 72.142 59.765 L 72.142 60.502 L 73.233 60.502 C 73.278 60.502 73.31 60.53 73.31 60.572 L 73.31 61.034 C 73.31 61.077 73.278 61.105 73.233 61.105 L 72.142 61.105 L 72.142 61.884 L 73.298 61.884 C 73.345 61.884 73.375 61.913 73.375 61.957 L 73.375 62.418 C 73.375 62.46 73.345 62.489 73.298 62.489 L 71.492 62.489 C 71.447 62.489 71.417 62.46 71.417 62.418" style="fill: rgb(21, 45, 67); fill-opacity: 1; clip-path: url(&quot;#clippath0&quot;);"/>
  <path d="M 73.975 60.839 C 73.975 59.864 74.792 59.124 75.802 59.124 C 76.315 59.124 76.731 59.299 77.041 59.594 C 77.082 59.632 77.082 59.669 77.041 59.717 L 76.7 60.055 C 76.665 60.093 76.624 60.093 76.589 60.065 C 76.375 59.898 76.122 59.789 75.808 59.789 C 75.183 59.789 74.711 60.236 74.711 60.839 C 74.711 61.443 75.183 61.884 75.842 61.884 C 76.402 61.884 76.731 61.576 76.746 61.2 L 75.842 61.2 C 75.797 61.2 75.767 61.172 75.767 61.13 L 75.767 60.668 C 75.767 60.626 75.797 60.597 75.842 60.597 L 77.376 60.597 C 77.421 60.597 77.452 60.626 77.452 60.668 L 77.452 60.977 C 77.452 61.848 76.838 62.551 75.817 62.551 C 74.792 62.551 73.975 61.814 73.975 60.839" style="fill: rgb(21, 45, 67); fill-opacity: 1; clip-path: url(&quot;#clippath0&quot;);"/>
  <path d="M 78.131 62.418 L 78.131 59.232 C 78.131 59.19 78.161 59.161 78.207 59.161 L 78.78 59.161 C 78.827 59.161 78.857 59.19 78.857 59.232 L 78.857 62.418 C 78.857 62.46 78.827 62.489 78.78 62.489 L 78.207 62.489 C 78.161 62.489 78.131 62.46 78.131 62.418" style="fill: rgb(21, 45, 67); fill-opacity: 1; clip-path: url(&quot;#clippath0&quot;);"/>
  <path d="M 81.377 61.884 C 82 61.884 82.468 61.433 82.468 60.839 C 82.468 60.24 82 59.788 81.377 59.788 C 80.757 59.788 80.286 60.24 80.286 60.839 C 80.286 61.433 80.757 61.884 81.377 61.884 M 79.55 60.839 C 79.55 59.873 80.367 59.124 81.377 59.124 C 82.387 59.124 83.204 59.873 83.204 60.839 C 83.204 61.799 82.387 62.551 81.377 62.551 C 80.367 62.551 79.55 61.799 79.55 60.839" style="fill: rgb(21, 45, 67); fill-opacity: 1; clip-path: url(&quot;#clippath0&quot;);"/>
  <path d="M 85.903 62.442 L 84.634 60.25 L 84.634 62.418 C 84.634 62.46 84.603 62.489 84.558 62.489 L 83.984 62.489 C 83.939 62.489 83.908 62.46 83.908 62.418 L 83.908 59.232 C 83.908 59.19 83.939 59.161 83.984 59.161 L 84.659 59.161 C 84.7 59.161 84.73 59.175 84.751 59.208 L 86.019 61.4 L 86.019 59.232 C 86.019 59.19 86.05 59.161 86.096 59.161 L 86.669 59.161 C 86.714 59.161 86.746 59.19 86.746 59.232 L 86.746 62.418 C 86.746 62.46 86.714 62.489 86.669 62.489 L 85.994 62.489 C 85.954 62.489 85.924 62.475 85.903 62.442" style="fill: rgb(21, 45, 67); fill-opacity: 1; clip-path: url(&quot;#clippath0&quot;);"/>
  <path d="M 89.363 61.339 L 88.9 60.016 L 88.438 61.339 L 89.363 61.339 Z M 87.312 62.409 L 88.5 59.217 C 88.515 59.18 88.556 59.161 88.596 59.161 L 89.211 59.161 C 89.251 59.161 89.292 59.18 89.306 59.217 L 90.494 62.409 C 90.515 62.455 90.485 62.489 90.428 62.489 L 89.83 62.489 C 89.788 62.489 89.758 62.474 89.743 62.432 L 89.57 61.942 L 88.23 61.942 L 88.059 62.432 C 88.044 62.474 88.012 62.489 87.972 62.489 L 87.372 62.489 C 87.318 62.489 87.292 62.455 87.312 62.409" style="fill: rgb(21, 45, 67); fill-opacity: 1; clip-path: url(&quot;#clippath0&quot;);"/>
  <path d="M 91.059 62.418 L 91.059 59.232 C 91.059 59.19 91.089 59.161 91.135 59.161 L 91.709 59.161 C 91.754 59.161 91.785 59.19 91.785 59.232 L 91.785 61.884 L 92.871 61.884 C 92.916 61.884 92.947 61.913 92.947 61.957 L 92.947 62.418 C 92.947 62.46 92.916 62.489 92.871 62.489 L 91.135 62.489 C 91.089 62.489 91.059 62.46 91.059 62.418" style="fill: rgb(21, 45, 67); fill-opacity: 1; clip-path: url(&quot;#clippath0&quot;);"/>
  <path d="M 94.487 62.027 C 94.462 61.995 94.462 61.962 94.496 61.923 L 94.791 61.605 C 94.825 61.567 94.867 61.563 94.907 61.595 C 95.131 61.809 95.334 61.923 95.623 61.923 C 95.922 61.923 96.119 61.804 96.119 61.567 C 96.119 61.343 95.942 61.263 95.694 61.158 L 95.263 60.968 C 94.887 60.806 94.552 60.554 94.552 60.059 C 94.552 59.455 95.044 59.124 95.648 59.124 C 96.07 59.124 96.411 59.279 96.689 59.56 C 96.725 59.594 96.725 59.632 96.693 59.669 L 96.405 59.997 C 96.374 60.036 96.334 60.046 96.293 60.016 C 96.075 59.836 95.897 59.746 95.674 59.746 C 95.415 59.746 95.252 59.864 95.252 60.065 C 95.252 60.259 95.395 60.335 95.668 60.455 L 96.034 60.611 C 96.42 60.782 96.827 61.006 96.827 61.567 C 96.827 62.238 96.242 62.546 95.638 62.546 C 95.085 62.546 94.695 62.294 94.487 62.027" style="fill: rgb(21, 45, 67); fill-opacity: 1; clip-path: url(&quot;#clippath0&quot;);"/>
  <path d="M 97.523 62.418 L 97.523 59.232 C 97.523 59.19 97.552 59.161 97.599 59.161 L 99.405 59.161 C 99.45 59.161 99.481 59.19 99.481 59.232 L 99.481 59.694 C 99.481 59.737 99.45 59.765 99.405 59.765 L 98.248 59.765 L 98.248 60.502 L 99.339 60.502 C 99.385 60.502 99.415 60.53 99.415 60.572 L 99.415 61.034 C 99.415 61.077 99.385 61.105 99.339 61.105 L 98.248 61.105 L 98.248 61.884 L 99.405 61.884 C 99.45 61.884 99.481 61.913 99.481 61.957 L 99.481 62.418 C 99.481 62.46 99.45 62.489 99.405 62.489 L 97.599 62.489 C 97.552 62.489 97.523 62.46 97.523 62.418" style="fill: rgb(21, 45, 67); fill-opacity: 1; clip-path: url(&quot;#clippath0&quot;);"/>
  <path d="M 101.408 60.721 C 101.718 60.721 101.987 60.621 101.987 60.24 C 101.987 59.864 101.718 59.765 101.408 59.765 L 101.013 59.765 L 101.013 60.721 L 101.408 60.721 Z M 102.022 62.442 L 101.271 61.324 L 101.013 61.324 L 101.013 62.418 C 101.013 62.46 100.981 62.489 100.936 62.489 L 100.363 62.489 C 100.317 62.489 100.286 62.46 100.286 62.418 L 100.286 59.232 C 100.286 59.189 100.317 59.161 100.363 59.161 L 101.433 59.161 C 102.275 59.161 102.682 59.603 102.682 60.24 C 102.682 60.725 102.454 61.092 101.977 61.247 L 102.774 62.404 C 102.809 62.455 102.784 62.489 102.722 62.489 L 102.115 62.489 C 102.073 62.489 102.043 62.475 102.022 62.442" style="fill: rgb(21, 45, 67); fill-opacity: 1; clip-path: url(&quot;#clippath0&quot;);"/>
  <path d="M 104.281 62.432 L 103.093 59.242 C 103.074 59.194 103.1 59.161 103.154 59.161 L 103.753 59.161 C 103.794 59.161 103.825 59.175 103.84 59.217 L 104.683 61.633 L 105.525 59.217 C 105.541 59.175 105.57 59.161 105.611 59.161 L 106.21 59.161 C 106.266 59.161 106.296 59.194 106.276 59.242 L 105.088 62.432 C 105.074 62.47 105.033 62.489 104.993 62.489 L 104.378 62.489 C 104.338 62.489 104.296 62.47 104.281 62.432" style="fill: rgb(21, 45, 67); fill-opacity: 1; clip-path: url(&quot;#clippath0&quot;);"/>
  <path d="M 106.841 62.418 L 106.841 59.232 C 106.841 59.19 106.87 59.161 106.916 59.161 L 107.489 59.161 C 107.535 59.161 107.565 59.19 107.565 59.232 L 107.565 62.418 C 107.565 62.46 107.535 62.489 107.489 62.489 L 106.916 62.489 C 106.87 62.489 106.841 62.46 106.841 62.418" style="fill: rgb(21, 45, 67); fill-opacity: 1; clip-path: url(&quot;#clippath0&quot;);"/>
  <path d="M 108.269 60.839 C 108.269 59.864 109.086 59.124 110.102 59.124 C 110.608 59.124 111.03 59.309 111.345 59.603 C 111.381 59.637 111.376 59.669 111.345 59.702 L 110.99 60.059 C 110.96 60.093 110.919 60.093 110.883 60.065 C 110.669 59.898 110.416 59.789 110.102 59.789 C 109.477 59.789 109.005 60.236 109.005 60.839 C 109.005 61.443 109.477 61.884 110.102 61.884 C 110.416 61.884 110.669 61.776 110.883 61.609 C 110.919 61.581 110.96 61.581 110.99 61.614 L 111.345 61.971 C 111.376 61.999 111.381 62.033 111.345 62.066 C 111.03 62.366 110.608 62.551 110.102 62.551 C 109.086 62.551 108.269 61.814 108.269 60.839" style="fill: rgb(21, 45, 67); fill-opacity: 1; clip-path: url(&quot;#clippath0&quot;);"/>
  <path d="M 112.002 62.418 L 112.002 59.232 C 112.002 59.19 112.033 59.161 112.078 59.161 L 113.885 59.161 C 113.93 59.161 113.961 59.19 113.961 59.232 L 113.961 59.694 C 113.961 59.737 113.93 59.765 113.885 59.765 L 112.728 59.765 L 112.728 60.502 L 113.819 60.502 C 113.864 60.502 113.895 60.53 113.895 60.572 L 113.895 61.034 C 113.895 61.077 113.864 61.105 113.819 61.105 L 112.728 61.105 L 112.728 61.884 L 113.885 61.884 C 113.93 61.884 113.961 61.913 113.961 61.957 L 113.961 62.418 C 113.961 62.46 113.93 62.489 113.885 62.489 L 112.078 62.489 C 112.033 62.489 112.002 62.46 112.002 62.418" style="fill: rgb(21, 45, 67); fill-opacity: 1; clip-path: url(&quot;#clippath0&quot;);"/>
  <path d="M 115.607 60.839 C 115.607 59.864 116.425 59.124 117.439 59.124 C 117.948 59.124 118.369 59.309 118.683 59.603 C 118.719 59.637 118.713 59.669 118.683 59.702 L 118.328 60.059 C 118.297 60.093 118.256 60.093 118.221 60.065 C 118.008 59.898 117.755 59.789 117.439 59.789 C 116.815 59.789 116.343 60.236 116.343 60.839 C 116.343 61.443 116.815 61.884 117.439 61.884 C 117.755 61.884 118.008 61.776 118.221 61.609 C 118.256 61.581 118.297 61.581 118.328 61.614 L 118.683 61.971 C 118.713 61.999 118.719 62.033 118.683 62.066 C 118.369 62.366 117.948 62.551 117.439 62.551 C 116.425 62.551 115.607 61.814 115.607 60.839" style="fill: rgb(21, 45, 67); fill-opacity: 1; clip-path: url(&quot;#clippath0&quot;);"/>
  <path d="M 120.92 61.884 C 121.544 61.884 122.011 61.433 122.011 60.839 C 122.011 60.24 121.544 59.788 120.92 59.788 C 120.301 59.788 119.83 60.24 119.83 60.839 C 119.83 61.433 120.301 61.884 120.92 61.884 M 119.094 60.839 C 119.094 59.873 119.911 59.124 120.92 59.124 C 121.931 59.124 122.747 59.873 122.747 60.839 C 122.747 61.799 121.931 62.551 120.92 62.551 C 119.911 62.551 119.094 61.799 119.094 60.839" style="fill: rgb(21, 45, 67); fill-opacity: 1; clip-path: url(&quot;#clippath0&quot;);"/>
  <path d="M 123.452 62.418 L 123.452 59.232 C 123.452 59.19 123.483 59.161 123.528 59.161 L 124.193 59.161 C 124.233 59.161 124.264 59.175 124.279 59.208 L 125.339 61.706 L 126.401 59.208 C 126.416 59.175 126.446 59.161 126.486 59.161 L 127.152 59.161 C 127.198 59.161 127.228 59.19 127.228 59.232 L 127.228 62.418 C 127.228 62.46 127.198 62.489 127.152 62.489 L 126.579 62.489 C 126.533 62.489 126.503 62.46 126.503 62.418 L 126.503 60.432 L 125.685 62.432 C 125.67 62.47 125.635 62.489 125.594 62.489 L 125.086 62.489 C 125.046 62.489 125.01 62.47 124.995 62.432 L 124.178 60.432 L 124.178 62.418 C 124.178 62.46 124.147 62.489 124.102 62.489 L 123.528 62.489 C 123.483 62.489 123.452 62.46 123.452 62.418" style="fill: rgb(21, 45, 67); fill-opacity: 1; clip-path: url(&quot;#clippath0&quot;);"/>
  <path d="M 128.093 62.418 L 128.093 59.232 C 128.093 59.19 128.124 59.161 128.169 59.161 L 128.835 59.161 C 128.875 59.161 128.905 59.175 128.921 59.208 L 129.98 61.706 L 131.042 59.208 C 131.057 59.175 131.087 59.161 131.128 59.161 L 131.794 59.161 C 131.839 59.161 131.869 59.19 131.869 59.232 L 131.869 62.418 C 131.869 62.46 131.839 62.489 131.794 62.489 L 131.219 62.489 C 131.174 62.489 131.144 62.46 131.144 62.418 L 131.144 60.432 L 130.326 62.432 C 130.312 62.47 130.276 62.489 130.236 62.489 L 129.727 62.489 C 129.687 62.489 129.651 62.47 129.636 62.432 L 128.819 60.432 L 128.819 62.418 C 128.819 62.46 128.788 62.489 128.743 62.489 L 128.169 62.489 C 128.124 62.489 128.093 62.46 128.093 62.418" style="fill: rgb(21, 45, 67); fill-opacity: 1; clip-path: url(&quot;#clippath0&quot;);"/>
  <path d="M 132.735 62.418 L 132.735 59.232 C 132.735 59.19 132.765 59.161 132.81 59.161 L 133.384 59.161 C 133.429 59.161 133.46 59.19 133.46 59.232 L 133.46 62.418 C 133.46 62.46 133.429 62.489 133.384 62.489 L 132.81 62.489 C 132.765 62.489 132.735 62.46 132.735 62.418" style="fill: rgb(21, 45, 67); fill-opacity: 1; clip-path: url(&quot;#clippath0&quot;);"/>
  <path d="M 134.154 62.027 C 134.13 61.995 134.13 61.962 134.164 61.923 L 134.46 61.605 C 134.495 61.567 134.535 61.563 134.575 61.595 C 134.799 61.809 135.002 61.923 135.292 61.923 C 135.592 61.923 135.789 61.804 135.789 61.567 C 135.789 61.343 135.611 61.263 135.363 61.158 L 134.932 60.968 C 134.555 60.806 134.221 60.554 134.221 60.059 C 134.221 59.455 134.713 59.124 135.317 59.124 C 135.739 59.124 136.079 59.279 136.357 59.56 C 136.394 59.594 136.394 59.632 136.362 59.669 L 136.073 59.997 C 136.043 60.036 136.002 60.046 135.962 60.016 C 135.744 59.836 135.566 59.746 135.343 59.746 C 135.084 59.746 134.921 59.864 134.921 60.065 C 134.921 60.259 135.063 60.335 135.337 60.455 L 135.702 60.611 C 136.088 60.782 136.495 61.006 136.495 61.567 C 136.495 62.238 135.91 62.546 135.308 62.546 C 134.753 62.546 134.362 62.294 134.154 62.027" style="fill: rgb(21, 45, 67); fill-opacity: 1; clip-path: url(&quot;#clippath0&quot;);"/>
  <path d="M 137.012 62.027 C 136.987 61.995 136.987 61.962 137.023 61.923 L 137.318 61.605 C 137.353 61.567 137.393 61.563 137.434 61.595 C 137.656 61.809 137.86 61.923 138.149 61.923 C 138.449 61.923 138.647 61.804 138.647 61.567 C 138.647 61.343 138.469 61.263 138.221 61.158 L 137.79 60.968 C 137.414 60.806 137.079 60.554 137.079 60.059 C 137.079 59.455 137.571 59.124 138.175 59.124 C 138.596 59.124 138.936 59.279 139.214 59.56 C 139.251 59.594 139.251 59.632 139.221 59.669 L 138.932 59.997 C 138.901 60.036 138.86 60.046 138.82 60.016 C 138.603 59.836 138.424 59.746 138.201 59.746 C 137.942 59.746 137.779 59.864 137.779 60.065 C 137.779 60.259 137.92 60.335 138.196 60.455 L 138.561 60.611 C 138.946 60.782 139.352 61.006 139.352 61.567 C 139.352 62.238 138.769 62.546 138.165 62.546 C 137.611 62.546 137.22 62.294 137.012 62.027" style="fill: rgb(21, 45, 67); fill-opacity: 1; clip-path: url(&quot;#clippath0&quot;);"/>
  <path d="M 140.049 62.418 L 140.049 59.232 C 140.049 59.19 140.08 59.161 140.126 59.161 L 140.699 59.161 C 140.744 59.161 140.774 59.19 140.774 59.232 L 140.774 62.418 C 140.774 62.46 140.744 62.489 140.699 62.489 L 140.126 62.489 C 140.08 62.489 140.049 62.46 140.049 62.418" style="fill: rgb(21, 45, 67); fill-opacity: 1; clip-path: url(&quot;#clippath0&quot;);"/>
  <path d="M 143.294 61.884 C 143.92 61.884 144.385 61.433 144.385 60.839 C 144.385 60.24 143.92 59.788 143.294 59.788 C 142.675 59.788 142.203 60.24 142.203 60.839 C 142.203 61.433 142.675 61.884 143.294 61.884 M 141.468 60.839 C 141.468 59.873 142.284 59.124 143.294 59.124 C 144.305 59.124 145.121 59.873 145.121 60.839 C 145.121 61.799 144.305 62.551 143.294 62.551 C 142.284 62.551 141.468 61.799 141.468 60.839" style="fill: rgb(21, 45, 67); fill-opacity: 1; clip-path: url(&quot;#clippath0&quot;);"/>
  <path d="M 147.822 62.442 L 146.552 60.25 L 146.552 62.418 C 146.552 62.46 146.522 62.489 146.476 62.489 L 145.902 62.489 C 145.857 62.489 145.826 62.46 145.826 62.418 L 145.826 59.232 C 145.826 59.19 145.857 59.161 145.902 59.161 L 146.578 59.161 C 146.618 59.161 146.649 59.175 146.669 59.208 L 147.937 61.4 L 147.937 59.232 C 147.937 59.19 147.968 59.161 148.013 59.161 L 148.587 59.161 C 148.633 59.161 148.663 59.19 148.663 59.232 L 148.663 62.418 C 148.663 62.46 148.633 62.489 148.587 62.489 L 147.912 62.489 C 147.872 62.489 147.842 62.475 147.822 62.442" style="fill: rgb(21, 45, 67); fill-opacity: 1; clip-path: url(&quot;#clippath0&quot;);"/>
  <path d="M 68.253 11.365 C 68.253 10.39 69.07 9.649 70.086 9.649 C 70.593 9.649 71.014 9.835 71.328 10.129 C 71.364 10.162 71.36 10.196 71.328 10.229 L 70.973 10.586 C 70.944 10.618 70.903 10.618 70.867 10.591 C 70.654 10.424 70.4 10.316 70.086 10.316 C 69.461 10.316 68.989 10.762 68.989 11.365 C 68.989 11.969 69.461 12.411 70.086 12.411 C 70.4 12.411 70.654 12.302 70.867 12.135 C 70.903 12.107 70.944 12.107 70.973 12.14 L 71.328 12.497 C 71.36 12.525 71.364 12.559 71.328 12.591 C 71.014 12.891 70.593 13.077 70.086 13.077 C 69.07 13.077 68.253 12.34 68.253 11.365" style="fill: rgb(21, 45, 67); fill-opacity: 1; clip-path: url(&quot;#clippath0&quot;);"/>
  <path d="M 73.566 12.411 C 74.191 12.411 74.658 11.959 74.658 11.365 C 74.658 10.766 74.191 10.314 73.566 10.314 C 72.947 10.314 72.475 10.766 72.475 11.365 C 72.475 11.959 72.947 12.411 73.566 12.411 M 71.738 11.365 C 71.738 10.4 72.556 9.649 73.566 9.649 C 74.576 9.649 75.393 10.4 75.393 11.365 C 75.393 12.325 74.576 13.077 73.566 13.077 C 72.556 13.077 71.738 12.325 71.738 11.365" style="fill: rgb(21, 45, 67); fill-opacity: 1; clip-path: url(&quot;#clippath0&quot;);"/>
  <path d="M 76.098 12.944 L 76.098 9.758 C 76.098 9.715 76.128 9.687 76.175 9.687 L 76.84 9.687 C 76.88 9.687 76.91 9.702 76.925 9.734 L 77.986 12.23 L 79.046 9.734 C 79.062 9.702 79.093 9.687 79.133 9.687 L 79.798 9.687 C 79.843 9.687 79.874 9.715 79.874 9.758 L 79.874 12.944 C 79.874 12.987 79.843 13.015 79.798 13.015 L 79.224 13.015 C 79.179 13.015 79.148 12.987 79.148 12.944 L 79.148 10.957 L 78.331 12.958 C 78.315 12.996 78.28 13.015 78.24 13.015 L 77.732 13.015 C 77.691 13.015 77.656 12.996 77.641 12.958 L 76.823 10.957 L 76.823 12.944 C 76.823 12.987 76.793 13.015 76.747 13.015 L 76.175 13.015 C 76.128 13.015 76.098 12.987 76.098 12.944" style="fill: rgb(21, 45, 67); fill-opacity: 1; clip-path: url(&quot;#clippath0&quot;);"/>
  <path d="M 80.739 12.944 L 80.739 9.758 C 80.739 9.715 80.769 9.687 80.816 9.687 L 81.48 9.687 C 81.521 9.687 81.551 9.702 81.566 9.734 L 82.627 12.23 L 83.689 9.734 C 83.703 9.702 83.734 9.687 83.774 9.687 L 84.439 9.687 C 84.485 9.687 84.515 9.715 84.515 9.758 L 84.515 12.944 C 84.515 12.987 84.485 13.015 84.439 13.015 L 83.866 13.015 C 83.819 13.015 83.79 12.987 83.79 12.944 L 83.79 10.957 L 82.972 12.958 C 82.957 12.996 82.921 13.015 82.88 13.015 L 82.374 13.015 C 82.334 13.015 82.297 12.996 82.282 12.958 L 81.465 10.957 L 81.465 12.944 C 81.465 12.987 81.434 13.015 81.389 13.015 L 80.816 13.015 C 80.769 13.015 80.739 12.987 80.739 12.944" style="fill: rgb(21, 45, 67); fill-opacity: 1; clip-path: url(&quot;#clippath0&quot;);"/>
  <path d="M 85.38 12.944 L 85.38 9.758 C 85.38 9.715 85.412 9.687 85.457 9.687 L 86.03 9.687 C 86.076 9.687 86.107 9.715 86.107 9.758 L 86.107 12.944 C 86.107 12.987 86.076 13.015 86.03 13.015 L 85.457 13.015 C 85.412 13.015 85.38 12.987 85.38 12.944" style="fill: rgb(21, 45, 67); fill-opacity: 1; clip-path: url(&quot;#clippath0&quot;);"/>
  <path d="M 86.801 12.554 C 86.776 12.521 86.776 12.487 86.811 12.448 L 87.105 12.131 C 87.14 12.092 87.182 12.088 87.223 12.122 C 87.446 12.335 87.649 12.448 87.938 12.448 C 88.236 12.448 88.434 12.331 88.434 12.092 C 88.434 11.869 88.258 11.788 88.008 11.683 L 87.577 11.494 C 87.202 11.332 86.867 11.08 86.867 10.586 C 86.867 9.981 87.359 9.649 87.963 9.649 C 88.385 9.649 88.725 9.806 89.004 10.087 C 89.038 10.12 89.038 10.158 89.009 10.196 L 88.72 10.525 C 88.688 10.562 88.647 10.571 88.607 10.543 C 88.39 10.363 88.211 10.271 87.988 10.271 C 87.73 10.271 87.567 10.39 87.567 10.59 C 87.567 10.785 87.709 10.861 87.983 10.98 L 88.349 11.137 C 88.735 11.308 89.141 11.531 89.141 12.092 C 89.141 12.763 88.557 13.071 87.952 13.071 C 87.4 13.071 87.008 12.821 86.801 12.554" style="fill: rgb(21, 45, 67); fill-opacity: 1; clip-path: url(&quot;#clippath0&quot;);"/>
  <path d="M 89.659 12.554 C 89.633 12.521 89.633 12.487 89.668 12.448 L 89.962 12.131 C 89.998 12.092 90.039 12.088 90.08 12.122 C 90.303 12.335 90.507 12.448 90.795 12.448 C 91.095 12.448 91.292 12.331 91.292 12.092 C 91.292 11.869 91.116 11.788 90.866 11.683 L 90.434 11.494 C 90.059 11.332 89.724 11.08 89.724 10.586 C 89.724 9.981 90.216 9.649 90.82 9.649 C 91.242 9.649 91.582 9.806 91.861 10.087 C 91.897 10.12 91.897 10.158 91.866 10.196 L 91.577 10.525 C 91.546 10.562 91.506 10.571 91.465 10.543 C 91.247 10.363 91.069 10.271 90.845 10.271 C 90.587 10.271 90.424 10.39 90.424 10.59 C 90.424 10.785 90.567 10.861 90.841 10.98 L 91.206 11.137 C 91.593 11.308 91.999 11.531 91.999 12.092 C 91.999 12.763 91.415 13.071 90.811 13.071 C 90.258 13.071 89.867 12.821 89.659 12.554" style="fill: rgb(21, 45, 67); fill-opacity: 1; clip-path: url(&quot;#clippath0&quot;);"/>
  <path d="M 92.695 12.944 L 92.695 9.758 C 92.695 9.715 92.725 9.687 92.77 9.687 L 93.344 9.687 C 93.389 9.687 93.421 9.715 93.421 9.758 L 93.421 12.944 C 93.421 12.987 93.389 13.015 93.344 13.015 L 92.77 13.015 C 92.725 13.015 92.695 12.987 92.695 12.944" style="fill: rgb(21, 45, 67); fill-opacity: 1; clip-path: url(&quot;#clippath0&quot;);"/>
  <path d="M 95.94 12.411 C 96.564 12.411 97.031 11.959 97.031 11.365 C 97.031 10.766 96.564 10.314 95.94 10.314 C 95.322 10.314 94.85 10.766 94.85 11.365 C 94.85 11.959 95.322 12.411 95.94 12.411 M 94.114 11.365 C 94.114 10.4 94.93 9.649 95.94 9.649 C 96.951 9.649 97.768 10.4 97.768 11.365 C 97.768 12.325 96.951 13.077 95.94 13.077 C 94.93 13.077 94.114 12.325 94.114 11.365" style="fill: rgb(21, 45, 67); fill-opacity: 1; clip-path: url(&quot;#clippath0&quot;);"/>
  <path d="M 100.466 12.968 L 99.197 10.776 L 99.197 12.945 C 99.197 12.987 99.167 13.015 99.122 13.015 L 98.548 13.015 C 98.503 13.015 98.472 12.987 98.472 12.945 L 98.472 9.758 C 98.472 9.715 98.503 9.687 98.548 9.687 L 99.223 9.687 C 99.265 9.687 99.294 9.702 99.315 9.734 L 100.584 11.926 L 100.584 9.758 C 100.584 9.715 100.614 9.687 100.66 9.687 L 101.234 9.687 C 101.279 9.687 101.309 9.715 101.309 9.758 L 101.309 12.945 C 101.309 12.987 101.279 13.015 101.234 13.015 L 100.558 13.015 C 100.518 13.015 100.487 13 100.466 12.968" style="fill: rgb(21, 45, 67); fill-opacity: 1; clip-path: url(&quot;#clippath0&quot;);"/>
  <path d="M 104.215 12.411 C 104.935 12.411 105.301 12.036 105.301 11.351 C 105.301 10.667 104.935 10.291 104.215 10.291 L 103.828 10.291 L 103.828 12.411 L 104.215 12.411 Z M 103.103 12.944 L 103.103 9.758 C 103.103 9.715 103.133 9.687 103.179 9.687 L 104.224 9.687 C 105.412 9.687 106.037 10.414 106.037 11.351 C 106.037 12.288 105.412 13.015 104.224 13.015 L 103.179 13.015 C 103.133 13.015 103.103 12.987 103.103 12.944" style="fill: rgb(21, 45, 67); fill-opacity: 1; clip-path: url(&quot;#clippath0&quot;);"/>
  <path d="M 106.734 12.944 L 106.734 9.758 C 106.734 9.715 106.764 9.687 106.809 9.687 L 108.616 9.687 C 108.662 9.687 108.692 9.715 108.692 9.758 L 108.692 10.22 C 108.692 10.262 108.662 10.291 108.616 10.291 L 107.46 10.291 L 107.46 11.027 L 108.551 11.027 C 108.596 11.027 108.626 11.057 108.626 11.099 L 108.626 11.559 C 108.626 11.603 108.596 11.632 108.551 11.632 L 107.46 11.632 L 107.46 12.411 L 108.616 12.411 C 108.662 12.411 108.692 12.439 108.692 12.483 L 108.692 12.944 C 108.692 12.987 108.662 13.015 108.616 13.015 L 106.809 13.015 C 106.764 13.015 106.734 12.987 106.734 12.944" style="fill: rgb(21, 45, 67); fill-opacity: 1; clip-path: url(&quot;#clippath0&quot;);"/>
  <path d="M 110.339 12.554 C 110.314 12.521 110.314 12.487 110.349 12.448 L 110.643 12.131 C 110.679 12.092 110.72 12.088 110.76 12.122 C 110.984 12.335 111.187 12.448 111.476 12.448 C 111.775 12.448 111.973 12.331 111.973 12.092 C 111.973 11.869 111.796 11.788 111.546 11.683 L 111.115 11.494 C 110.74 11.332 110.405 11.08 110.405 10.586 C 110.405 9.981 110.898 9.649 111.501 9.649 C 111.922 9.649 112.263 9.806 112.542 10.087 C 112.577 10.12 112.577 10.158 112.546 10.196 L 112.258 10.525 C 112.227 10.562 112.186 10.571 112.145 10.543 C 111.927 10.363 111.749 10.271 111.526 10.271 C 111.268 10.271 111.105 10.39 111.105 10.59 C 111.105 10.785 111.248 10.861 111.521 10.98 L 111.887 11.137 C 112.273 11.308 112.679 11.531 112.679 12.092 C 112.679 12.763 112.095 13.071 111.49 13.071 C 110.939 13.071 110.547 12.821 110.339 12.554" style="fill: rgb(21, 45, 67); fill-opacity: 1; clip-path: url(&quot;#clippath0&quot;);"/>
  <path d="M 113.375 12.944 L 113.375 9.758 C 113.375 9.715 113.406 9.687 113.451 9.687 L 115.258 9.687 C 115.304 9.687 115.335 9.715 115.335 9.758 L 115.335 10.22 C 115.335 10.262 115.304 10.291 115.258 10.291 L 114.101 10.291 L 114.101 11.027 L 115.192 11.027 C 115.237 11.027 115.268 11.057 115.268 11.099 L 115.268 11.559 C 115.268 11.603 115.237 11.632 115.192 11.632 L 114.101 11.632 L 114.101 12.411 L 115.258 12.411 C 115.304 12.411 115.335 12.439 115.335 12.483 L 115.335 12.944 C 115.335 12.987 115.304 13.015 115.258 13.015 L 113.451 13.015 C 113.406 13.015 113.375 12.987 113.375 12.944" style="fill: rgb(21, 45, 67); fill-opacity: 1; clip-path: url(&quot;#clippath0&quot;);"/>
  <path d="M 117.261 11.246 C 117.571 11.246 117.84 11.146 117.84 10.766 C 117.84 10.39 117.571 10.291 117.261 10.291 L 116.865 10.291 L 116.865 11.246 L 117.261 11.246 Z M 117.875 12.968 L 117.124 11.85 L 116.865 11.85 L 116.865 12.944 C 116.865 12.987 116.835 13.015 116.789 13.015 L 116.216 13.015 C 116.17 13.015 116.139 12.987 116.139 12.944 L 116.139 9.758 C 116.139 9.715 116.17 9.687 116.216 9.687 L 117.287 9.687 C 118.128 9.687 118.535 10.129 118.535 10.766 C 118.535 11.251 118.307 11.618 117.829 11.774 L 118.626 12.93 C 118.662 12.981 118.637 13.015 118.575 13.015 L 117.967 13.015 C 117.926 13.015 117.896 13 117.875 12.968" style="fill: rgb(21, 45, 67); fill-opacity: 1; clip-path: url(&quot;#clippath0&quot;);"/>
  <path d="M 120.135 12.958 L 118.946 9.768 C 118.926 9.721 118.951 9.687 119.007 9.687 L 119.606 9.687 C 119.646 9.687 119.676 9.702 119.693 9.744 L 120.534 12.159 L 121.377 9.744 C 121.392 9.702 121.422 9.687 121.464 9.687 L 122.063 9.687 C 122.118 9.687 122.149 9.721 122.129 9.768 L 120.941 12.958 C 120.925 12.996 120.885 13.015 120.844 13.015 L 120.23 13.015 C 120.19 13.015 120.149 12.996 120.135 12.958" style="fill: rgb(21, 45, 67); fill-opacity: 1; clip-path: url(&quot;#clippath0&quot;);"/>
  <path d="M 122.693 12.944 L 122.693 9.758 C 122.693 9.715 122.723 9.687 122.769 9.687 L 123.342 9.687 C 123.387 9.687 123.419 9.715 123.419 9.758 L 123.419 12.944 C 123.419 12.987 123.387 13.015 123.342 13.015 L 122.769 13.015 C 122.723 13.015 122.693 12.987 122.693 12.944" style="fill: rgb(21, 45, 67); fill-opacity: 1; clip-path: url(&quot;#clippath0&quot;);"/>
  <path d="M 124.122 11.365 C 124.122 10.39 124.939 9.649 125.954 9.649 C 126.462 9.649 126.882 9.835 127.198 10.129 C 127.234 10.162 127.228 10.196 127.198 10.229 L 126.843 10.586 C 126.812 10.618 126.771 10.618 126.736 10.591 C 126.523 10.424 126.269 10.316 125.954 10.316 C 125.33 10.316 124.858 10.762 124.858 11.365 C 124.858 11.969 125.33 12.411 125.954 12.411 C 126.269 12.411 126.523 12.302 126.736 12.135 C 126.771 12.107 126.812 12.107 126.843 12.14 L 127.198 12.497 C 127.228 12.525 127.234 12.559 127.198 12.591 C 126.882 12.891 126.462 13.077 125.954 13.077 C 124.939 13.077 124.122 12.34 124.122 11.365" style="fill: rgb(21, 45, 67); fill-opacity: 1; clip-path: url(&quot;#clippath0&quot;);"/>
  <path d="M 127.855 12.944 L 127.855 9.758 C 127.855 9.715 127.885 9.687 127.931 9.687 L 129.738 9.687 C 129.783 9.687 129.814 9.715 129.814 9.758 L 129.814 10.22 C 129.814 10.262 129.783 10.291 129.738 10.291 L 128.58 10.291 L 128.58 11.027 L 129.671 11.027 C 129.717 11.027 129.747 11.057 129.747 11.099 L 129.747 11.559 C 129.747 11.603 129.717 11.632 129.671 11.632 L 128.58 11.632 L 128.58 12.411 L 129.738 12.411 C 129.783 12.411 129.814 12.439 129.814 12.483 L 129.814 12.944 C 129.814 12.987 129.783 13.015 129.738 13.015 L 127.931 13.015 C 127.885 13.015 127.855 12.987 127.855 12.944" style="fill: rgb(21, 45, 67); fill-opacity: 1; clip-path: url(&quot;#clippath0&quot;);"/>
  <path d="M 130.424 12.554 C 130.399 12.521 130.399 12.487 130.435 12.448 L 130.73 12.131 C 130.765 12.092 130.805 12.088 130.846 12.122 C 131.069 12.335 131.272 12.448 131.562 12.448 C 131.861 12.448 132.06 12.331 132.06 12.092 C 132.06 11.869 131.881 11.788 131.633 11.683 L 131.201 11.494 C 130.826 11.332 130.491 11.08 130.491 10.586 C 130.491 9.981 130.983 9.649 131.588 9.649 C 132.008 9.649 132.348 9.806 132.626 10.087 C 132.664 10.12 132.664 10.158 132.632 10.196 L 132.344 10.525 C 132.313 10.562 132.272 10.571 132.232 10.543 C 132.013 10.363 131.836 10.271 131.613 10.271 C 131.353 10.271 131.191 10.39 131.191 10.59 C 131.191 10.785 131.334 10.861 131.608 10.98 L 131.971 11.137 C 132.358 11.308 132.764 11.531 132.764 12.092 C 132.764 12.763 132.181 13.071 131.577 13.071 C 131.023 13.071 130.632 12.821 130.424 12.554" style="fill: rgb(21, 45, 67); fill-opacity: 1; clip-path: url(&quot;#clippath0&quot;);"/>
  <path d="M 135.558 11.246 C 135.867 11.246 136.136 11.146 136.136 10.766 C 136.136 10.39 135.867 10.291 135.558 10.291 L 135.162 10.291 L 135.162 11.246 L 135.558 11.246 Z M 136.172 12.968 L 135.421 11.85 L 135.162 11.85 L 135.162 12.944 C 135.162 12.987 135.131 13.015 135.086 13.015 L 134.512 13.015 C 134.467 13.015 134.437 12.987 134.437 12.944 L 134.437 9.758 C 134.437 9.715 134.467 9.687 134.512 9.687 L 135.583 9.687 C 136.425 9.687 136.832 10.129 136.832 10.766 C 136.832 11.251 136.602 11.618 136.126 11.774 L 136.923 12.93 C 136.958 12.981 136.933 13.015 136.872 13.015 L 136.264 13.015 C 136.223 13.015 136.192 13 136.172 12.968" style="fill: rgb(21, 45, 67); fill-opacity: 1; clip-path: url(&quot;#clippath0&quot;);"/>
  <path d="M 138.731 8.746 C 138.761 8.703 138.781 8.688 138.827 8.688 L 139.233 8.688 C 139.289 8.688 139.314 8.726 139.284 8.77 L 138.903 9.312 C 138.873 9.354 138.853 9.367 138.808 9.367 L 138.401 9.367 C 138.345 9.367 138.324 9.331 138.354 9.287 L 138.731 8.746 Z M 137.599 12.945 L 137.599 9.758 C 137.599 9.715 137.629 9.687 137.674 9.687 L 139.482 9.687 C 139.528 9.687 139.558 9.715 139.558 9.758 L 139.558 10.22 C 139.558 10.262 139.528 10.291 139.482 10.291 L 138.324 10.291 L 138.324 11.028 L 139.416 11.028 C 139.462 11.028 139.492 11.057 139.492 11.099 L 139.492 11.56 C 139.492 11.603 139.462 11.632 139.416 11.632 L 138.324 11.632 L 138.324 12.411 L 139.482 12.411 C 139.528 12.411 139.558 12.439 139.558 12.483 L 139.558 12.945 C 139.558 12.987 139.528 13.015 139.482 13.015 L 137.674 13.015 C 137.629 13.015 137.599 12.987 137.599 12.945" style="fill: rgb(21, 45, 67); fill-opacity: 1; clip-path: url(&quot;#clippath0&quot;);"/>
  <path d="M 140.158 11.365 C 140.158 10.39 140.975 9.649 141.985 9.649 C 142.497 9.649 142.914 9.825 143.224 10.12 C 143.264 10.158 143.264 10.196 143.224 10.243 L 142.883 10.58 C 142.847 10.618 142.807 10.618 142.772 10.591 C 142.559 10.424 142.305 10.316 141.99 10.316 C 141.366 10.316 140.894 10.762 140.894 11.365 C 140.894 11.969 141.366 12.411 142.025 12.411 C 142.585 12.411 142.914 12.103 142.928 11.726 L 142.025 11.726 C 141.98 11.726 141.95 11.698 141.95 11.656 L 141.95 11.194 C 141.95 11.15 141.98 11.123 142.025 11.123 L 143.558 11.123 C 143.603 11.123 143.635 11.15 143.635 11.194 L 143.635 11.503 C 143.635 12.373 143.021 13.077 142 13.077 C 140.975 13.077 140.158 12.34 140.158 11.365" style="fill: rgb(21, 45, 67); fill-opacity: 1; clip-path: url(&quot;#clippath0&quot;);"/>
  <path d="M 144.314 12.944 L 144.314 9.758 C 144.314 9.715 144.344 9.687 144.39 9.687 L 144.963 9.687 C 145.009 9.687 145.039 9.715 145.039 9.758 L 145.039 12.944 C 145.039 12.987 145.009 13.015 144.963 13.015 L 144.39 13.015 C 144.344 13.015 144.314 12.987 144.314 12.944" style="fill: rgb(21, 45, 67); fill-opacity: 1; clip-path: url(&quot;#clippath0&quot;);"/>
  <path d="M 147.559 12.411 C 148.183 12.411 148.65 11.959 148.65 11.365 C 148.65 10.766 148.183 10.314 147.559 10.314 C 146.941 10.314 146.468 10.766 146.468 11.365 C 146.468 11.959 146.941 12.411 147.559 12.411 M 145.733 11.365 C 145.733 10.4 146.55 9.649 147.559 9.649 C 148.569 9.649 149.387 10.4 149.387 11.365 C 149.387 12.325 148.569 13.077 147.559 13.077 C 146.55 13.077 145.733 12.325 145.733 11.365" style="fill: rgb(21, 45, 67); fill-opacity: 1; clip-path: url(&quot;#clippath0&quot;);"/>
  <path d="M 152.087 12.968 L 150.817 10.776 L 150.817 12.945 C 150.817 12.987 150.786 13.015 150.741 13.015 L 150.167 13.015 C 150.122 13.015 150.091 12.987 150.091 12.945 L 150.091 9.758 C 150.091 9.715 150.122 9.687 150.167 9.687 L 150.842 9.687 C 150.883 9.687 150.913 9.702 150.933 9.734 L 152.202 11.926 L 152.202 9.758 C 152.202 9.715 152.234 9.687 152.279 9.687 L 152.852 9.687 C 152.898 9.687 152.929 9.715 152.929 9.758 L 152.929 12.945 C 152.929 12.987 152.898 13.015 152.852 13.015 L 152.177 13.015 C 152.136 13.015 152.107 13 152.087 12.968" style="fill: rgb(21, 45, 67); fill-opacity: 1; clip-path: url(&quot;#clippath0&quot;);"/>
  <path d="M 155.545 11.865 L 155.084 10.543 L 154.621 11.865 L 155.545 11.865 Z M 153.494 12.935 L 154.683 9.744 C 154.698 9.706 154.739 9.687 154.779 9.687 L 155.394 9.687 C 155.434 9.687 155.474 9.706 155.489 9.744 L 156.677 12.935 C 156.697 12.981 156.668 13.015 156.612 13.015 L 156.013 13.015 C 155.972 13.015 155.94 13 155.926 12.958 L 155.753 12.467 L 154.414 12.467 L 154.241 12.958 C 154.226 13 154.195 13.015 154.154 13.015 L 153.556 13.015 C 153.499 13.015 153.474 12.981 153.494 12.935" style="fill: rgb(21, 45, 67); fill-opacity: 1; clip-path: url(&quot;#clippath0&quot;);"/>
  <path d="M 157.139 11.75 L 157.139 9.758 C 157.139 9.715 157.169 9.687 157.214 9.687 L 157.788 9.687 C 157.834 9.687 157.864 9.715 157.864 9.758 L 157.864 11.736 C 157.864 12.173 158.092 12.411 158.483 12.411 C 158.869 12.411 159.097 12.173 159.097 11.736 L 159.097 9.758 C 159.097 9.715 159.128 9.687 159.174 9.687 L 159.747 9.687 C 159.793 9.687 159.823 9.715 159.823 9.758 L 159.823 11.75 C 159.823 12.625 159.265 13.077 158.483 13.077 C 157.696 13.077 157.139 12.625 157.139 11.75" style="fill: rgb(21, 45, 67); fill-opacity: 1; clip-path: url(&quot;#clippath0&quot;);"/>
  <path d="M 160.385 12.93 L 161.405 11.313 L 160.435 9.772 C 160.405 9.721 160.426 9.687 160.486 9.687 L 161.1 9.687 C 161.141 9.687 161.177 9.702 161.197 9.734 L 161.8 10.69 L 162.404 9.734 C 162.42 9.702 162.455 9.687 162.496 9.687 L 163.11 9.687 C 163.171 9.687 163.191 9.721 163.16 9.772 L 162.192 11.313 L 163.212 12.93 C 163.242 12.981 163.222 13.015 163.16 13.015 L 162.538 13.015 C 162.496 13.015 162.465 13 162.445 12.968 L 161.8 11.935 L 161.151 12.968 C 161.13 13 161.1 13.015 161.06 13.015 L 160.435 13.015 C 160.374 13.015 160.354 12.981 160.385 12.93" style="fill: rgb(21, 45, 67); fill-opacity: 1; clip-path: url(&quot;#clippath0&quot;);"/>
  <path d="M 74.291 44.735 C 73.272 44.122 72.448 43.577 72.448 42.738 C 72.448 42.011 72.957 41.512 73.806 41.512 C 74.606 41.512 75.407 41.782 76.086 42.42 L 77.444 39.766 C 76.498 38.947 75.116 38.468 73.612 38.468 C 70.409 38.468 68.714 40.624 68.714 42.918 C 68.714 45.733 70.555 46.801 72.035 47.684 C 73.053 48.298 73.903 48.822 73.903 49.774 C 73.903 50.524 73.369 51.091 72.475 51.091 C 71.578 51.091 70.482 50.683 69.781 49.886 L 68.253 52.565 C 69.37 53.611 70.825 54.131 72.786 54.131 C 75.747 54.131 77.639 52.225 77.639 49.525 C 77.639 46.801 75.795 45.664 74.291 44.735" style="fill: rgb(21, 45, 67); fill-opacity: 1; clip-path: url(&quot;#clippath0&quot;);"/>
  <path d="M 84.076 51.091 C 82.79 51.091 82.354 49.071 82.354 46.301 C 82.354 43.508 82.79 41.512 84.076 41.512 C 85.361 41.512 85.797 43.508 85.797 46.301 C 85.797 49.071 85.361 51.091 84.076 51.091 M 84.076 38.468 C 80.29 38.468 78.592 41.782 78.592 46.301 C 78.592 50.818 80.29 54.131 84.076 54.131 C 87.861 54.131 89.559 50.818 89.559 46.301 C 89.559 41.782 87.861 38.468 84.076 38.468" style="fill: rgb(21, 45, 67); fill-opacity: 1; clip-path: url(&quot;#clippath0&quot;);"/>
  <path d="M 97.513 38.718 L 97.513 49.432 C 97.513 50.683 96.979 51.136 96.154 51.136 C 95.33 51.136 94.796 50.683 94.796 49.432 L 94.796 38.718 L 91.132 38.718 L 91.132 49.251 C 91.132 52.655 93.631 54.131 96.154 54.131 C 98.702 54.131 101.201 52.655 101.201 49.231 L 101.201 38.718 L 97.513 38.718 Z" style="fill: rgb(21, 45, 67); fill-opacity: 1; clip-path: url(&quot;#clippath0&quot;);"/>
  <path d="M 102.452 38.718 L 102.452 41.717 L 104.854 41.717 L 104.854 53.86 L 108.542 53.86 L 108.542 41.717 L 110.92 41.717 L 110.92 38.718 L 102.452 38.718 Z" style="fill: rgb(21, 45, 67); fill-opacity: 1; clip-path: url(&quot;#clippath0&quot;);"/>
  <path d="M 118.552 38.718 L 118.552 44.576 L 115.835 44.576 L 115.835 38.718 L 112.171 38.718 L 112.171 53.86 L 115.835 53.86 L 115.835 47.57 L 118.552 47.57 L 118.552 53.86 L 122.216 53.86 L 122.216 38.718 L 118.552 38.718 Z" style="fill: rgb(21, 45, 67); fill-opacity: 1; clip-path: url(&quot;#clippath0&quot;);"/>
  <path d="M 132.004 41.717 L 132.004 38.718 L 124.386 38.718 L 124.386 53.86 L 132.004 53.86 L 132.004 50.862 L 128.049 50.862 L 128.049 47.663 L 131.834 47.663 L 131.834 44.665 L 128.049 44.665 L 128.049 41.717 L 132.004 41.717 Z" style="fill: rgb(21, 45, 67); fill-opacity: 1; clip-path: url(&quot;#clippath0&quot;);"/>
  <path d="M 137.251 48.412 L 138.441 41.737 L 139.629 48.412 L 137.251 48.412 Z M 140.55 38.718 L 136.329 38.718 L 132.86 53.86 L 136.427 53.86 L 136.839 51.407 L 140.042 51.407 L 140.454 53.86 L 144.02 53.86 L 140.55 38.718 Z" style="fill: rgb(21, 45, 67); fill-opacity: 1; clip-path: url(&quot;#clippath0&quot;);"/>
  <path d="M 150.55 44.735 C 149.531 44.122 148.707 43.577 148.707 42.738 C 148.707 42.011 149.216 41.512 150.065 41.512 C 150.865 41.512 151.666 41.782 152.345 42.42 L 153.704 39.766 C 152.758 38.947 151.375 38.468 149.871 38.468 C 146.668 38.468 144.971 40.624 144.971 42.918 C 144.971 45.733 146.814 46.801 148.294 47.684 C 149.312 48.298 150.162 48.822 150.162 49.774 C 150.162 50.524 149.629 51.091 148.731 51.091 C 147.833 51.091 146.741 50.683 146.037 49.886 L 144.508 52.565 C 145.626 53.611 147.081 54.131 149.046 54.131 C 152.007 54.131 153.898 52.225 153.898 49.525 C 153.898 46.801 152.055 45.664 150.55 44.735" style="fill: rgb(21, 45, 67); fill-opacity: 1; clip-path: url(&quot;#clippath0&quot;);"/>
  <path d="M 154.758 38.718 L 154.758 41.717 L 157.16 41.717 L 157.16 53.86 L 160.849 53.86 L 160.849 41.717 L 163.225 41.717 L 163.225 38.718 L 154.758 38.718 Z" style="fill: rgb(21, 45, 67); fill-opacity: 1; clip-path: url(&quot;#clippath0&quot;);"/>
  <path d="M 74.295 24.299 C 73.275 23.686 72.451 23.142 72.451 22.303 C 72.451 21.575 72.96 21.076 73.806 21.076 C 74.609 21.076 75.41 21.349 76.089 21.984 L 77.444 19.329 C 76.498 18.511 75.12 18.037 73.615 18.037 C 70.412 18.037 68.714 20.193 68.714 22.483 C 68.714 25.298 70.558 26.366 72.038 27.249 C 73.057 27.863 73.906 28.386 73.906 29.338 C 73.906 30.088 73.372 30.656 72.475 30.656 C 71.578 30.656 70.485 30.247 69.781 29.453 L 68.253 32.133 C 69.37 33.176 70.825 33.696 72.79 33.696 C 75.747 33.696 77.639 31.789 77.639 29.089 C 77.639 26.366 75.798 25.232 74.295 24.299" style="fill: rgb(21, 45, 67); fill-opacity: 1; clip-path: url(&quot;#clippath0&quot;);"/>
  <path d="M 85.358 18.286 L 85.358 28.999 C 85.358 30.247 84.824 30.701 83.999 30.701 C 83.175 30.701 82.645 30.247 82.645 28.999 L 82.645 18.286 L 78.98 18.286 L 78.98 28.816 C 78.98 32.222 81.48 33.696 83.999 33.696 C 86.547 33.696 89.046 32.222 89.046 28.795 L 89.046 18.286 L 85.358 18.286 Z" style="fill: rgb(21, 45, 67); fill-opacity: 1; clip-path: url(&quot;#clippath0&quot;);"/>
  <path d="M 95.697 30.428 L 94.848 30.428 L 94.848 21.281 L 95.697 21.281 C 97.056 21.281 97.829 22.666 97.829 25.865 C 97.829 28.909 97.08 30.428 95.697 30.428 M 95.697 18.286 L 91.184 18.286 L 91.184 33.426 L 95.721 33.426 C 99.867 33.426 101.589 30.177 101.589 25.865 C 101.589 21.599 99.842 18.286 95.697 18.286" style="fill: rgb(21, 45, 67); fill-opacity: 1; clip-path: url(&quot;#clippath0&quot;);"/>
  <path d="M 103.26 26.978 L 107.724 26.978 L 107.724 24.39 L 103.26 24.39 L 103.26 26.978 Z" style="fill: rgb(21, 45, 67); fill-opacity: 1; clip-path: url(&quot;#clippath0&quot;);"/>
  <path d="M 117.263 21.281 L 117.263 18.286 L 109.644 18.286 L 109.644 33.426 L 117.263 33.426 L 117.263 30.427 L 113.309 30.427 L 113.309 27.229 L 117.093 27.229 L 117.093 24.23 L 113.309 24.23 L 113.309 21.281 L 117.263 21.281 Z" style="fill: rgb(21, 45, 67); fill-opacity: 1; clip-path: url(&quot;#clippath0&quot;);"/>
  <path d="M 124.267 24.299 C 123.252 23.686 122.426 23.142 122.426 22.303 C 122.426 21.575 122.936 21.076 123.782 21.076 C 124.583 21.076 125.382 21.349 126.064 21.984 L 127.422 19.329 C 126.475 18.511 125.092 18.037 123.591 18.037 C 120.389 18.037 118.69 20.193 118.69 22.483 C 118.69 25.298 120.534 26.366 122.014 27.249 C 123.034 27.863 123.883 28.386 123.883 29.338 C 123.883 30.088 123.345 30.656 122.452 30.656 C 121.554 30.656 120.462 30.247 119.758 29.453 L 118.23 32.133 C 119.346 33.176 120.802 33.696 122.764 33.696 C 125.723 33.696 127.616 31.789 127.616 29.089 C 127.616 26.366 125.771 25.232 124.267 24.299" style="fill: rgb(21, 45, 67); fill-opacity: 1; clip-path: url(&quot;#clippath0&quot;);"/>
  <path d="M 128.479 18.286 L 128.479 21.281 L 130.88 21.281 L 130.88 33.426 L 134.565 33.426 L 134.565 21.281 L 136.943 21.281 L 136.943 18.286 L 128.479 18.286 Z" style="fill: rgb(21, 45, 67); fill-opacity: 1; clip-path: url(&quot;#clippath0&quot;);"/>
  <path d="M 50.583 43.485 C 48.357 41.866 45.24 42.359 43.622 44.589 C 39.948 50.09 47.592 55.638 51.686 50.445 C 53.304 48.218 52.811 45.103 50.583 43.485" style="fill: rgb(186, 213, 70); fill-opacity: 1; clip-path: url(&quot;#clippath0&quot;);"/>
  <path d="M 63.018 34.849 L 63.016 34.851 L 55.081 40.987 L 55.08 40.987 C 49.626 36.981 42.454 37.578 39.04 44.455 C 39.04 44.453 39.038 44.453 39.038 44.453 C 37.792 43.055 36.446 41.75 35.019 40.537 C 35.019 40.526 35.011 34.334 35.011 34.323 C 37.74 32.7 40.633 31.552 43.653 30.773 C 50.16 29.37 57.223 30.635 63.018 34.849" style="fill: rgb(186, 213, 70); fill-opacity: 1; clip-path: url(&quot;#clippath0&quot;);"/>
  <path d="M 50.484 19.827 C 48.865 17.601 45.745 17.109 43.519 18.723 C 38.328 22.827 43.875 30.46 49.379 26.79 C 51.605 25.173 52.097 22.056 50.484 19.827" style="fill: rgb(232, 87, 102); fill-opacity: 1; clip-path: url(&quot;#clippath0&quot;);"/>
  <path d="M 38.294 26.332 C 38.845 27.576 39.689 28.816 40.882 30.018 C 38.746 31.202 36.885 32.803 35.011 34.323 L 30.374 30.844 C 30.373 30.833 30.346 30.74 30.34 30.72 C 29.51 27.459 29.18 24.05 29.374 20.691 C 30.243 14.144 33.717 8.166 39.149 4.23 C 39.5 5.205 42.119 12.521 42.532 13.678 C 38.439 16.608 36.15 21.658 38.294 26.332" style="fill: rgb(232, 87, 102); fill-opacity: 1; clip-path: url(&quot;#clippath0&quot;);"/>
  <path d="M 18.566 19.276 C 19.805 20.918 22.05 21.666 24.066 20.991 C 30.276 18.701 27.358 9.724 20.99 11.513 C 17.761 12.492 16.486 16.643 18.566 19.276" style="fill: rgb(243, 175, 68); fill-opacity: 1; clip-path: url(&quot;#clippath0&quot;);"/>
  <path d="M 30.374 30.844 C 30.374 30.844 25.745 34.323 25.743 34.323 L 24.042 34.177 C 14.123 33.246 5.775 27.058 2.653 17.471 L 12.683 17.172 C 14.923 23.992 21.2 27.233 27.784 23.752 C 28.373 26.194 29.262 28.627 30.374 30.844" style="fill: rgb(243, 175, 68); fill-opacity: 1; clip-path: url(&quot;#clippath0&quot;);"/>
  <path d="M 8.951 41.976 C 11.703 41.976 13.935 39.745 13.935 36.991 C 13.672 30.381 4.23 30.383 3.967 36.991 C 3.967 39.745 6.199 41.976 8.951 41.976" style="fill: rgb(82, 193, 225); fill-opacity: 1; clip-path: url(&quot;#clippath0&quot;);"/>
  <path d="M 27.373 40.039 C 27.373 40.041 27.372 40.043 27.372 40.047 C 25.416 44.294 22.479 48.102 18.922 51.098 C 14.661 54.406 9.59 56.254 3.967 56.272 L 6.785 46.64 C 13.56 46.607 18.881 42.143 17.742 34.56 C 20.407 34.801 23.099 34.722 25.745 34.323 L 25.745 40.039 L 27.373 40.039 Z" style="fill: rgb(82, 193, 225); fill-opacity: 1; clip-path: url(&quot;#clippath0&quot;);"/>
  <path d="M 41.275 67.011 L 32.983 61.359 C 34.935 55.348 32.87 48.495 24.732 47.17 C 25.888 44.879 26.779 42.483 27.372 40.047 C 27.372 40.043 27.373 40.041 27.373 40.039 L 31.094 40.039 C 30.262 39.249 29.729 38.175 29.713 37.026 L 29.699 35.971 L 30.808 36.062 C 33.065 36.209 34.957 38.049 34.816 40.366 C 33.804 39.529 32.748 38.743 31.663 38.011 C 39.827 45.565 44.964 55.901 41.275 67.011" style="fill: rgb(45, 168, 109); fill-opacity: 1; clip-path: url(&quot;#clippath0&quot;);"/>
  <path d="M 26.022 51.573 C 23.404 50.721 20.592 52.156 19.741 54.775 C 17.956 61.151 26.924 64.057 29.218 57.853 C 30.07 55.236 28.637 52.424 26.022 51.573" style="fill: rgb(45, 168, 109); fill-opacity: 1; clip-path: url(&quot;#clippath0&quot;);"/>
</svg>